<?xml version="1.0" standalone="no"?>
 <!DOCTYPE svg PUBLIC "-//W3C//DTD SVG 1.1//EN" 
 "http://www.w3.org/Graphics/SVG/1.1/DTD/svg11.dtd"> 
<svg
  xmlns:svg="http://www.w3.org/2000/svg"
  xmlns="http://www.w3.org/2000/svg"
  xmlns:xlink="http://www.w3.org/1999/xlink"
  version="1.1"
  width="4.671060cm" height="2.039620cm" viewBox="0 0 18390 8030">
<title>SVG Picture created as hello.t1616.echo-brd.svg date 2021/03/03 12:22:20 </title>
  <desc>Picture generated by PCBNEW </desc>
<g style="fill:#000000; fill-opacity:1;stroke:#000000; stroke-opacity:1;
stroke-linecap:round; stroke-linejoin:round;"
 transform="translate(0 0) scale(1 1)">
</g>
<g style="fill:#000000; fill-opacity:0.0; 
stroke:#000000; stroke-width:-0.000393701; stroke-opacity:1; 
stroke-linecap:round; stroke-linejoin:round;">
</g>
<g style="fill:#840000; fill-opacity:0.0; 
stroke:#840000; stroke-width:-0.000393701; stroke-opacity:1; 
stroke-linecap:round; stroke-linejoin:round;">
</g>
<g style="fill:#840000; fill-opacity:0.0; 
stroke:#840000; stroke-width:118.11; stroke-opacity:1; 
stroke-linecap:round; stroke-linejoin:round;">
<text x="13048.2" y="1314.96"
textLength="2591.63" font-size="1049.87" lengthAdjust="spacingAndGlyphs"
text-anchor="middle" opacity="0">GND</text>
<path d="M12448 724
L12373 696
L12260 696
L12148 724
L12073 780
L12035 836
L11998 949
L11998 1033
L12035 1146
L12073 1202
L12148 1258
L12260 1286
L12335 1286
L12448 1258
L12485 1230
L12485 1033
L12335 1033
" />
<path d="M12823 1286
L12823 696
L13273 1286
L13273 696
" />
<path d="M13648 1286
L13648 696
L13835 696
L13948 724
L14023 780
L14060 836
L14098 949
L14098 1033
L14060 1146
L14023 1202
L13948 1258
L13835 1286
L13648 1286
" />
<text x="2798.23" y="7064.96"
textLength="2403.26" font-size="1049.87" lengthAdjust="spacingAndGlyphs"
text-anchor="middle" opacity="0">VCC</text>
<path d="M1748 6446
L2010 7036
L2273 6446
" />
<path d="M2985 6980
L2948 7008
L2835 7036
L2760 7036
L2648 7008
L2573 6952
L2535 6896
L2498 6783
L2498 6699
L2535 6586
L2573 6530
L2648 6474
L2760 6446
L2835 6446
L2948 6474
L2985 6502
" />
<path d="M3773 6980
L3735 7008
L3623 7036
L3548 7036
L3435 7008
L3360 6952
L3323 6896
L3285 6783
L3285 6699
L3323 6586
L3360 6530
L3435 6474
L3548 6446
L3623 6446
L3735 6474
L3773 6502
" />
</g>
<g style="fill:#840000; fill-opacity:0.0; 
stroke:#840000; stroke-width:147.638; stroke-opacity:1; 
stroke-linecap:round; stroke-linejoin:round;">
<text x="3048.23" y="1564.96"
textLength="2928.2" font-size="1049.87" lengthAdjust="spacingAndGlyphs"
text-anchor="middle" opacity="0">UPDI</text>
<path d="M1848 946
L1848 1424
L1885 1480
L1923 1508
L1998 1536
L2148 1536
L2223 1508
L2260 1480
L2298 1424
L2298 946
" />
<path d="M2673 1536
L2673 946
L2973 946
L3048 974
L3085 1002
L3123 1058
L3123 1143
L3085 1199
L3048 1227
L2973 1255
L2673 1255
" />
<path d="M3460 1536
L3460 946
L3648 946
L3760 974
L3835 1030
L3873 1086
L3910 1199
L3910 1283
L3873 1396
L3835 1452
L3760 1508
L3648 1536
L3460 1536
" />
<path d="M4248 1536
L4248 946
" />
<g >
</g>
<g style="fill:#840000; fill-opacity:0.0; 
stroke:#840000; stroke-width:0; stroke-opacity:1; 
stroke-linecap:round; stroke-linejoin:round;">
</g>
<g style="fill:#840000; fill-opacity:1.0; 
stroke:#840000; stroke-width:0; stroke-opacity:1; 
stroke-linecap:round; stroke-linejoin:round;">
<path style="fill:#840000; fill-opacity:1.0; 
stroke:#840000; stroke-width:0; stroke-opacity:1; 
stroke-linecap:round; stroke-linejoin:round;fill-rule:evenodd;"
d="M 14556.1,6854.33
14556.1,6185.04
15540.4,6185.04
15540.4,6854.33
Z" /> 
<path style="fill:#840000; fill-opacity:1.0; 
stroke:#840000; stroke-width:0; stroke-opacity:1; 
stroke-linecap:round; stroke-linejoin:round;fill-rule:evenodd;"
d="M 14556.1,5854.33
14556.1,5185.04
15540.4,5185.04
15540.4,5854.33
Z" /> 
<path style="fill:#840000; fill-opacity:1.0; 
stroke:#840000; stroke-width:0; stroke-opacity:1; 
stroke-linecap:round; stroke-linejoin:round;fill-rule:evenodd;"
d="M 14556.1,4854.33
14556.1,4185.04
15540.4,4185.04
15540.4,4854.33
Z" /> 
<path style="fill:#840000; fill-opacity:1.0; 
stroke:#840000; stroke-width:0; stroke-opacity:1; 
stroke-linecap:round; stroke-linejoin:round;fill-rule:evenodd;"
d="M 14556.1,3854.33
14556.1,3185.04
15540.4,3185.04
15540.4,3854.33
Z" /> 
<path style="fill:#840000; fill-opacity:1.0; 
stroke:#840000; stroke-width:0; stroke-opacity:1; 
stroke-linecap:round; stroke-linejoin:round;fill-rule:evenodd;"
d="M 14556.1,2854.33
14556.1,2185.04
15540.4,2185.04
15540.4,2854.33
Z" /> 
<path style="fill:#840000; fill-opacity:1.0; 
stroke:#840000; stroke-width:0; stroke-opacity:1; 
stroke-linecap:round; stroke-linejoin:round;fill-rule:evenodd;"
d="M 14556.1,1854.33
14556.1,1185.04
15540.4,1185.04
15540.4,1854.33
Z" /> 
</g>
<g >
</g>
<g style="fill:#840000; fill-opacity:1.0; 
stroke:#840000; stroke-width:0; stroke-opacity:1; 
stroke-linecap:round; stroke-linejoin:round;">
<path style="fill:#840000; fill-opacity:1.0; 
stroke:#840000; stroke-width:0; stroke-opacity:1; 
stroke-linecap:round; stroke-linejoin:round;fill-rule:evenodd;"
d="M 4040.35,2685.04
4040.35,3354.33
3056.1,3354.33
3056.1,2685.04
Z" /> 
<path style="fill:#840000; fill-opacity:1.0; 
stroke:#840000; stroke-width:0; stroke-opacity:1; 
stroke-linecap:round; stroke-linejoin:round;fill-rule:evenodd;"
d="M 4040.35,3685.04
4040.35,4354.33
3056.1,4354.33
3056.1,3685.04
Z" /> 
<path style="fill:#840000; fill-opacity:1.0; 
stroke:#840000; stroke-width:0; stroke-opacity:1; 
stroke-linecap:round; stroke-linejoin:round;fill-rule:evenodd;"
d="M 4040.35,4685.04
4040.35,5354.33
3056.1,5354.33
3056.1,4685.04
Z" /> 
</g>
<g >
</g>
<g style="fill:#840000; fill-opacity:1.0; 
stroke:#840000; stroke-width:0; stroke-opacity:1; 
stroke-linecap:round; stroke-linejoin:round;">
<path style="fill:#840000; fill-opacity:1.0; 
stroke:#840000; stroke-width:0; stroke-opacity:1; 
stroke-linecap:round; stroke-linejoin:round;fill-rule:evenodd;"
d="M 8113.07,1785.72
8118.8,1786.57
8124.43,1787.98
8129.88,1789.93
8135.12,1792.41
8140.09,1795.39
8144.75,1798.84
8149.04,1802.73
8152.93,1807.02
8156.39,1811.68
8159.37,1816.65
8161.84,1821.89
8163.8,1827.35
8165.2,1832.97
8166.05,1838.7
8166.34,1844.49
8166.34,2533.46
8166.05,2539.25
8165.2,2544.99
8163.8,2550.61
8161.84,2556.06
8159.37,2561.3
8156.39,2566.27
8152.93,2570.93
8149.04,2575.22
8144.75,2579.12
8140.09,2582.57
8135.12,2585.55
8129.88,2588.02
8124.43,2589.98
8118.8,2591.39
8113.07,2592.24
8107.28,2592.52
7989.17,2592.52
7983.38,2592.24
7977.65,2591.39
7972.03,2589.98
7966.57,2588.02
7961.33,2585.55
7956.36,2582.57
7951.71,2579.12
7947.41,2575.22
7943.52,2570.93
7940.07,2566.27
7937.09,2561.3
7934.61,2556.06
7932.66,2550.61
7931.25,2544.99
7930.4,2539.25
7930.12,2533.46
7930.12,1844.49
7930.4,1838.7
7931.25,1832.97
7932.66,1827.35
7934.61,1821.89
7937.09,1816.65
7940.07,1811.68
7943.52,1807.02
7947.41,1802.73
7951.71,1798.84
7956.36,1795.39
7961.33,1792.41
7966.57,1789.93
7972.03,1787.98
7977.65,1786.57
7983.38,1785.72
7989.17,1785.43
8107.28,1785.43
Z" /> 
<path style="fill:#840000; fill-opacity:1.0; 
stroke:#840000; stroke-width:0; stroke-opacity:1; 
stroke-linecap:round; stroke-linejoin:round;fill-rule:evenodd;"
d="M 8613.07,1785.72
8618.8,1786.57
8624.43,1787.98
8629.88,1789.93
8635.12,1792.41
8640.09,1795.39
8644.75,1798.84
8649.04,1802.73
8652.93,1807.02
8656.39,1811.68
8659.37,1816.65
8661.84,1821.89
8663.8,1827.35
8665.2,1832.97
8666.05,1838.7
8666.34,1844.49
8666.34,2533.46
8666.05,2539.25
8665.2,2544.99
8663.8,2550.61
8661.84,2556.06
8659.37,2561.3
8656.39,2566.27
8652.93,2570.93
8649.04,2575.22
8644.75,2579.12
8640.09,2582.57
8635.12,2585.55
8629.88,2588.02
8624.43,2589.98
8618.8,2591.39
8613.07,2592.24
8607.28,2592.52
8489.17,2592.52
8483.38,2592.24
8477.65,2591.39
8472.03,2589.98
8466.57,2588.02
8461.33,2585.55
8456.36,2582.57
8451.71,2579.12
8447.41,2575.22
8443.52,2570.93
8440.07,2566.27
8437.09,2561.3
8434.61,2556.06
8432.66,2550.61
8431.25,2544.99
8430.4,2539.25
8430.12,2533.46
8430.12,1844.49
8430.4,1838.7
8431.25,1832.97
8432.66,1827.35
8434.61,1821.89
8437.09,1816.65
8440.07,1811.68
8443.52,1807.02
8447.41,1802.73
8451.71,1798.84
8456.36,1795.39
8461.33,1792.41
8466.57,1789.93
8472.03,1787.98
8477.65,1786.57
8483.38,1785.72
8489.17,1785.43
8607.28,1785.43
Z" /> 
<path style="fill:#840000; fill-opacity:1.0; 
stroke:#840000; stroke-width:0; stroke-opacity:1; 
stroke-linecap:round; stroke-linejoin:round;fill-rule:evenodd;"
d="M 9113.07,1785.72
9118.8,1786.57
9124.43,1787.98
9129.88,1789.93
9135.12,1792.41
9140.09,1795.39
9144.75,1798.84
9149.04,1802.73
9152.93,1807.02
9156.39,1811.68
9159.37,1816.65
9161.84,1821.89
9163.8,1827.35
9165.2,1832.97
9166.05,1838.7
9166.34,1844.49
9166.34,2533.46
9166.05,2539.25
9165.2,2544.99
9163.8,2550.61
9161.84,2556.06
9159.37,2561.3
9156.39,2566.27
9152.93,2570.93
9149.04,2575.22
9144.75,2579.12
9140.09,2582.57
9135.12,2585.55
9129.88,2588.02
9124.43,2589.98
9118.8,2591.39
9113.07,2592.24
9107.28,2592.52
8989.17,2592.52
8983.38,2592.24
8977.65,2591.39
8972.03,2589.98
8966.57,2588.02
8961.33,2585.55
8956.36,2582.57
8951.71,2579.12
8947.41,2575.22
8943.52,2570.93
8940.07,2566.27
8937.09,2561.3
8934.61,2556.06
8932.66,2550.61
8931.25,2544.99
8930.4,2539.25
8930.12,2533.46
8930.12,1844.49
8930.4,1838.7
8931.25,1832.97
8932.66,1827.35
8934.61,1821.89
8937.09,1816.65
8940.07,1811.68
8943.52,1807.02
8947.41,1802.73
8951.71,1798.84
8956.36,1795.39
8961.33,1792.41
8966.57,1789.93
8972.03,1787.98
8977.65,1786.57
8983.38,1785.72
8989.17,1785.43
9107.28,1785.43
Z" /> 
<path style="fill:#840000; fill-opacity:1.0; 
stroke:#840000; stroke-width:0; stroke-opacity:1; 
stroke-linecap:round; stroke-linejoin:round;fill-rule:evenodd;"
d="M 9613.07,1785.72
9618.8,1786.57
9624.43,1787.98
9629.88,1789.93
9635.12,1792.41
9640.09,1795.39
9644.75,1798.84
9649.04,1802.73
9652.93,1807.02
9656.39,1811.68
9659.37,1816.65
9661.84,1821.89
9663.8,1827.35
9665.2,1832.97
9666.05,1838.7
9666.34,1844.49
9666.34,2533.46
9666.05,2539.25
9665.2,2544.99
9663.8,2550.61
9661.84,2556.06
9659.37,2561.3
9656.39,2566.27
9652.93,2570.93
9649.04,2575.22
9644.75,2579.12
9640.09,2582.57
9635.12,2585.55
9629.88,2588.02
9624.43,2589.98
9618.8,2591.39
9613.07,2592.24
9607.28,2592.52
9489.17,2592.52
9483.38,2592.24
9477.65,2591.39
9472.03,2589.98
9466.57,2588.02
9461.33,2585.55
9456.36,2582.57
9451.71,2579.12
9447.41,2575.22
9443.52,2570.93
9440.07,2566.27
9437.09,2561.3
9434.61,2556.06
9432.66,2550.61
9431.25,2544.99
9430.4,2539.25
9430.12,2533.46
9430.12,1844.49
9430.4,1838.7
9431.25,1832.97
9432.66,1827.35
9434.61,1821.89
9437.09,1816.65
9440.07,1811.68
9443.52,1807.02
9447.41,1802.73
9451.71,1798.84
9456.36,1795.39
9461.33,1792.41
9466.57,1789.93
9472.03,1787.98
9477.65,1786.57
9483.38,1785.72
9489.17,1785.43
9607.28,1785.43
Z" /> 
<path style="fill:#840000; fill-opacity:1.0; 
stroke:#840000; stroke-width:0; stroke-opacity:1; 
stroke-linecap:round; stroke-linejoin:round;fill-rule:evenodd;"
d="M 10113.1,1785.72
10118.8,1786.57
10124.4,1787.98
10129.9,1789.93
10135.1,1792.41
10140.1,1795.39
10144.7,1798.84
10149,1802.73
10152.9,1807.02
10156.4,1811.68
10159.4,1816.65
10161.8,1821.89
10163.8,1827.35
10165.2,1832.97
10166.1,1838.7
10166.3,1844.49
10166.3,2533.46
10166.1,2539.25
10165.2,2544.99
10163.8,2550.61
10161.8,2556.06
10159.4,2561.3
10156.4,2566.27
10152.9,2570.93
10149,2575.22
10144.7,2579.12
10140.1,2582.57
10135.1,2585.55
10129.9,2588.02
10124.4,2589.98
10118.8,2591.39
10113.1,2592.24
10107.3,2592.52
9989.17,2592.52
9983.38,2592.24
9977.65,2591.39
9972.03,2589.98
9966.57,2588.02
9961.33,2585.55
9956.36,2582.57
9951.71,2579.12
9947.41,2575.22
9943.52,2570.93
9940.07,2566.27
9937.09,2561.3
9934.61,2556.06
9932.66,2550.61
9931.25,2544.99
9930.4,2539.25
9930.12,2533.46
9930.12,1844.49
9930.4,1838.7
9931.25,1832.97
9932.66,1827.35
9934.61,1821.89
9937.09,1816.65
9940.07,1811.68
9943.52,1807.02
9947.41,1802.73
9951.71,1798.84
9956.36,1795.39
9961.33,1792.41
9966.57,1789.93
9972.03,1787.98
9977.65,1786.57
9983.38,1785.72
9989.17,1785.43
10107.3,1785.43
Z" /> 
<path style="fill:#840000; fill-opacity:1.0; 
stroke:#840000; stroke-width:0; stroke-opacity:1; 
stroke-linecap:round; stroke-linejoin:round;fill-rule:evenodd;"
d="M 10613.1,1785.72
10618.8,1786.57
10624.4,1787.98
10629.9,1789.93
10635.1,1792.41
10640.1,1795.39
10644.7,1798.84
10649,1802.73
10652.9,1807.02
10656.4,1811.68
10659.4,1816.65
10661.8,1821.89
10663.8,1827.35
10665.2,1832.97
10666.1,1838.7
10666.3,1844.49
10666.3,2533.46
10666.1,2539.25
10665.2,2544.99
10663.8,2550.61
10661.8,2556.06
10659.4,2561.3
10656.4,2566.27
10652.9,2570.93
10649,2575.22
10644.7,2579.12
10640.1,2582.57
10635.1,2585.55
10629.9,2588.02
10624.4,2589.98
10618.8,2591.39
10613.1,2592.24
10607.3,2592.52
10489.2,2592.52
10483.4,2592.24
10477.7,2591.39
10472,2589.98
10466.6,2588.02
10461.3,2585.55
10456.4,2582.57
10451.7,2579.12
10447.4,2575.22
10443.5,2570.93
10440.1,2566.27
10437.1,2561.3
10434.6,2556.06
10432.7,2550.61
10431.3,2544.99
10430.4,2539.25
10430.1,2533.46
10430.1,1844.49
10430.4,1838.7
10431.3,1832.97
10432.7,1827.35
10434.6,1821.89
10437.1,1816.65
10440.1,1811.68
10443.5,1807.02
10447.4,1802.73
10451.7,1798.84
10456.4,1795.39
10461.3,1792.41
10466.6,1789.93
10472,1787.98
10477.7,1786.57
10483.4,1785.72
10489.2,1785.43
10607.3,1785.43
Z" /> 
<path style="fill:#840000; fill-opacity:1.0; 
stroke:#840000; stroke-width:0; stroke-opacity:1; 
stroke-linecap:round; stroke-linejoin:round;fill-rule:evenodd;"
d="M 11113.1,1785.72
11118.8,1786.57
11124.4,1787.98
11129.9,1789.93
11135.1,1792.41
11140.1,1795.39
11144.7,1798.84
11149,1802.73
11152.9,1807.02
11156.4,1811.68
11159.4,1816.65
11161.8,1821.89
11163.8,1827.35
11165.2,1832.97
11166.1,1838.7
11166.3,1844.49
11166.3,2533.46
11166.1,2539.25
11165.2,2544.99
11163.8,2550.61
11161.8,2556.06
11159.4,2561.3
11156.4,2566.27
11152.9,2570.93
11149,2575.22
11144.7,2579.12
11140.1,2582.57
11135.1,2585.55
11129.9,2588.02
11124.4,2589.98
11118.8,2591.39
11113.1,2592.24
11107.3,2592.52
10989.2,2592.52
10983.4,2592.24
10977.7,2591.39
10972,2589.98
10966.6,2588.02
10961.3,2585.55
10956.4,2582.57
10951.7,2579.12
10947.4,2575.22
10943.5,2570.93
10940.1,2566.27
10937.1,2561.3
10934.6,2556.06
10932.7,2550.61
10931.3,2544.99
10930.4,2539.25
10930.1,2533.46
10930.1,1844.49
10930.4,1838.7
10931.3,1832.97
10932.7,1827.35
10934.6,1821.89
10937.1,1816.65
10940.1,1811.68
10943.5,1807.02
10947.4,1802.73
10951.7,1798.84
10956.4,1795.39
10961.3,1792.41
10966.6,1789.93
10972,1787.98
10977.7,1786.57
10983.4,1785.72
10989.2,1785.43
11107.3,1785.43
Z" /> 
<path style="fill:#840000; fill-opacity:1.0; 
stroke:#840000; stroke-width:0; stroke-opacity:1; 
stroke-linecap:round; stroke-linejoin:round;fill-rule:evenodd;"
d="M 11613.1,1785.72
11618.8,1786.57
11624.4,1787.98
11629.9,1789.93
11635.1,1792.41
11640.1,1795.39
11644.7,1798.84
11649,1802.73
11652.9,1807.02
11656.4,1811.68
11659.4,1816.65
11661.8,1821.89
11663.8,1827.35
11665.2,1832.97
11666.1,1838.7
11666.3,1844.49
11666.3,2533.46
11666.1,2539.25
11665.2,2544.99
11663.8,2550.61
11661.8,2556.06
11659.4,2561.3
11656.4,2566.27
11652.9,2570.93
11649,2575.22
11644.7,2579.12
11640.1,2582.57
11635.1,2585.55
11629.9,2588.02
11624.4,2589.98
11618.8,2591.39
11613.1,2592.24
11607.3,2592.52
11489.2,2592.52
11483.4,2592.24
11477.7,2591.39
11472,2589.98
11466.6,2588.02
11461.3,2585.55
11456.4,2582.57
11451.7,2579.12
11447.4,2575.22
11443.5,2570.93
11440.1,2566.27
11437.1,2561.3
11434.6,2556.06
11432.7,2550.61
11431.3,2544.99
11430.4,2539.25
11430.1,2533.46
11430.1,1844.49
11430.4,1838.7
11431.3,1832.97
11432.7,1827.35
11434.6,1821.89
11437.1,1816.65
11440.1,1811.68
11443.5,1807.02
11447.4,1802.73
11451.7,1798.84
11456.4,1795.39
11461.3,1792.41
11466.6,1789.93
11472,1787.98
11477.7,1786.57
11483.4,1785.72
11489.2,1785.43
11607.3,1785.43
Z" /> 
<path style="fill:#840000; fill-opacity:1.0; 
stroke:#840000; stroke-width:0; stroke-opacity:1; 
stroke-linecap:round; stroke-linejoin:round;fill-rule:evenodd;"
d="M 12113.1,1785.72
12118.8,1786.57
12124.4,1787.98
12129.9,1789.93
12135.1,1792.41
12140.1,1795.39
12144.7,1798.84
12149,1802.73
12152.9,1807.02
12156.4,1811.68
12159.4,1816.65
12161.8,1821.89
12163.8,1827.35
12165.2,1832.97
12166.1,1838.7
12166.3,1844.49
12166.3,2533.46
12166.1,2539.25
12165.2,2544.99
12163.8,2550.61
12161.8,2556.06
12159.4,2561.3
12156.4,2566.27
12152.9,2570.93
12149,2575.22
12144.7,2579.12
12140.1,2582.57
12135.1,2585.55
12129.9,2588.02
12124.4,2589.98
12118.8,2591.39
12113.1,2592.24
12107.3,2592.52
11989.2,2592.52
11983.4,2592.24
11977.7,2591.39
11972,2589.98
11966.6,2588.02
11961.3,2585.55
11956.4,2582.57
11951.7,2579.12
11947.4,2575.22
11943.5,2570.93
11940.1,2566.27
11937.1,2561.3
11934.6,2556.06
11932.7,2550.61
11931.3,2544.99
11930.4,2539.25
11930.1,2533.46
11930.1,1844.49
11930.4,1838.7
11931.3,1832.97
11932.7,1827.35
11934.6,1821.89
11937.1,1816.65
11940.1,1811.68
11943.5,1807.02
11947.4,1802.73
11951.7,1798.84
11956.4,1795.39
11961.3,1792.41
11966.6,1789.93
11972,1787.98
11977.7,1786.57
11983.4,1785.72
11989.2,1785.43
12107.3,1785.43
Z" /> 
<path style="fill:#840000; fill-opacity:1.0; 
stroke:#840000; stroke-width:0; stroke-opacity:1; 
stroke-linecap:round; stroke-linejoin:round;fill-rule:evenodd;"
d="M 12613.1,1785.72
12618.8,1786.57
12624.4,1787.98
12629.9,1789.93
12635.1,1792.41
12640.1,1795.39
12644.7,1798.84
12649,1802.73
12652.9,1807.02
12656.4,1811.68
12659.4,1816.65
12661.8,1821.89
12663.8,1827.35
12665.2,1832.97
12666.1,1838.7
12666.3,1844.49
12666.3,2533.46
12666.1,2539.25
12665.2,2544.99
12663.8,2550.61
12661.8,2556.06
12659.4,2561.3
12656.4,2566.27
12652.9,2570.93
12649,2575.22
12644.7,2579.12
12640.1,2582.57
12635.1,2585.55
12629.9,2588.02
12624.4,2589.98
12618.8,2591.39
12613.1,2592.24
12607.3,2592.52
12489.2,2592.52
12483.4,2592.24
12477.7,2591.39
12472,2589.98
12466.6,2588.02
12461.3,2585.55
12456.4,2582.57
12451.7,2579.12
12447.4,2575.22
12443.5,2570.93
12440.1,2566.27
12437.1,2561.3
12434.6,2556.06
12432.7,2550.61
12431.3,2544.99
12430.4,2539.25
12430.1,2533.46
12430.1,1844.49
12430.4,1838.7
12431.3,1832.97
12432.7,1827.35
12434.6,1821.89
12437.1,1816.65
12440.1,1811.68
12443.5,1807.02
12447.4,1802.73
12451.7,1798.84
12456.4,1795.39
12461.3,1792.41
12466.6,1789.93
12472,1787.98
12477.7,1786.57
12483.4,1785.72
12489.2,1785.43
12607.3,1785.43
Z" /> 
<path style="fill:#840000; fill-opacity:1.0; 
stroke:#840000; stroke-width:0; stroke-opacity:1; 
stroke-linecap:round; stroke-linejoin:round;fill-rule:evenodd;"
d="M 12613.1,5447.14
12618.8,5447.99
12624.4,5449.39
12629.9,5451.35
12635.1,5453.82
12640.1,5456.8
12644.7,5460.26
12649,5464.15
12652.9,5468.44
12656.4,5473.1
12659.4,5478.07
12661.8,5483.31
12663.8,5488.76
12665.2,5494.38
12666.1,5500.12
12666.3,5505.91
12666.3,6194.88
12666.1,6200.67
12665.2,6206.4
12663.8,6212.03
12661.8,6217.48
12659.4,6222.72
12656.4,6227.69
12652.9,6232.35
12649,6236.64
12644.7,6240.53
12640.1,6243.98
12635.1,6246.96
12629.9,6249.44
12624.4,6251.39
12618.8,6252.8
12613.1,6253.65
12607.3,6253.94
12489.2,6253.94
12483.4,6253.65
12477.7,6252.8
12472,6251.39
12466.6,6249.44
12461.3,6246.96
12456.4,6243.98
12451.7,6240.53
12447.4,6236.64
12443.5,6232.35
12440.1,6227.69
12437.1,6222.72
12434.6,6217.48
12432.7,6212.03
12431.3,6206.4
12430.4,6200.67
12430.1,6194.88
12430.1,5505.91
12430.4,5500.12
12431.3,5494.38
12432.7,5488.76
12434.6,5483.31
12437.1,5478.07
12440.1,5473.1
12443.5,5468.44
12447.4,5464.15
12451.7,5460.26
12456.4,5456.8
12461.3,5453.82
12466.6,5451.35
12472,5449.39
12477.7,5447.99
12483.4,5447.14
12489.2,5446.85
12607.3,5446.85
Z" /> 
<path style="fill:#840000; fill-opacity:1.0; 
stroke:#840000; stroke-width:0; stroke-opacity:1; 
stroke-linecap:round; stroke-linejoin:round;fill-rule:evenodd;"
d="M 12113.1,5447.14
12118.8,5447.99
12124.4,5449.39
12129.9,5451.35
12135.1,5453.82
12140.1,5456.8
12144.7,5460.26
12149,5464.15
12152.9,5468.44
12156.4,5473.1
12159.4,5478.07
12161.8,5483.31
12163.8,5488.76
12165.2,5494.38
12166.1,5500.12
12166.3,5505.91
12166.3,6194.88
12166.1,6200.67
12165.2,6206.4
12163.8,6212.03
12161.8,6217.48
12159.4,6222.72
12156.4,6227.69
12152.9,6232.35
12149,6236.64
12144.7,6240.53
12140.1,6243.98
12135.1,6246.96
12129.9,6249.44
12124.4,6251.39
12118.8,6252.8
12113.1,6253.65
12107.3,6253.94
11989.2,6253.94
11983.4,6253.65
11977.7,6252.8
11972,6251.39
11966.6,6249.44
11961.3,6246.96
11956.4,6243.98
11951.7,6240.53
11947.4,6236.64
11943.5,6232.35
11940.1,6227.69
11937.1,6222.72
11934.6,6217.48
11932.7,6212.03
11931.3,6206.4
11930.4,6200.67
11930.1,6194.88
11930.1,5505.91
11930.4,5500.12
11931.3,5494.38
11932.7,5488.76
11934.6,5483.31
11937.1,5478.07
11940.1,5473.1
11943.5,5468.44
11947.4,5464.15
11951.7,5460.26
11956.4,5456.8
11961.3,5453.82
11966.6,5451.35
11972,5449.39
11977.7,5447.99
11983.4,5447.14
11989.2,5446.85
12107.3,5446.85
Z" /> 
<path style="fill:#840000; fill-opacity:1.0; 
stroke:#840000; stroke-width:0; stroke-opacity:1; 
stroke-linecap:round; stroke-linejoin:round;fill-rule:evenodd;"
d="M 11613.1,5447.14
11618.8,5447.99
11624.4,5449.39
11629.9,5451.35
11635.1,5453.82
11640.1,5456.8
11644.7,5460.26
11649,5464.15
11652.9,5468.44
11656.4,5473.1
11659.4,5478.07
11661.8,5483.31
11663.8,5488.76
11665.2,5494.38
11666.1,5500.12
11666.3,5505.91
11666.3,6194.88
11666.1,6200.67
11665.2,6206.4
11663.8,6212.03
11661.8,6217.48
11659.4,6222.72
11656.4,6227.69
11652.9,6232.35
11649,6236.64
11644.7,6240.53
11640.1,6243.98
11635.1,6246.96
11629.9,6249.44
11624.4,6251.39
11618.8,6252.8
11613.1,6253.65
11607.3,6253.94
11489.2,6253.94
11483.4,6253.65
11477.7,6252.8
11472,6251.39
11466.6,6249.44
11461.3,6246.96
11456.4,6243.98
11451.7,6240.53
11447.4,6236.64
11443.5,6232.35
11440.1,6227.69
11437.1,6222.72
11434.6,6217.48
11432.7,6212.03
11431.3,6206.4
11430.4,6200.67
11430.1,6194.88
11430.1,5505.91
11430.4,5500.12
11431.3,5494.38
11432.7,5488.76
11434.6,5483.31
11437.1,5478.07
11440.1,5473.1
11443.5,5468.44
11447.4,5464.15
11451.7,5460.26
11456.4,5456.8
11461.3,5453.82
11466.6,5451.35
11472,5449.39
11477.7,5447.99
11483.4,5447.14
11489.2,5446.85
11607.3,5446.85
Z" /> 
<path style="fill:#840000; fill-opacity:1.0; 
stroke:#840000; stroke-width:0; stroke-opacity:1; 
stroke-linecap:round; stroke-linejoin:round;fill-rule:evenodd;"
d="M 11113.1,5447.14
11118.8,5447.99
11124.4,5449.39
11129.9,5451.35
11135.1,5453.82
11140.1,5456.8
11144.7,5460.26
11149,5464.15
11152.9,5468.44
11156.4,5473.1
11159.4,5478.07
11161.8,5483.31
11163.8,5488.76
11165.2,5494.38
11166.1,5500.12
11166.3,5505.91
11166.3,6194.88
11166.1,6200.67
11165.2,6206.4
11163.8,6212.03
11161.8,6217.48
11159.4,6222.72
11156.4,6227.69
11152.9,6232.35
11149,6236.64
11144.7,6240.53
11140.1,6243.98
11135.1,6246.96
11129.9,6249.44
11124.4,6251.39
11118.8,6252.8
11113.1,6253.65
11107.3,6253.94
10989.2,6253.94
10983.4,6253.65
10977.7,6252.8
10972,6251.39
10966.6,6249.44
10961.3,6246.96
10956.4,6243.98
10951.7,6240.53
10947.4,6236.64
10943.5,6232.35
10940.1,6227.69
10937.1,6222.72
10934.6,6217.48
10932.7,6212.03
10931.3,6206.4
10930.4,6200.67
10930.1,6194.88
10930.1,5505.91
10930.4,5500.12
10931.3,5494.38
10932.7,5488.76
10934.6,5483.31
10937.1,5478.07
10940.1,5473.1
10943.5,5468.44
10947.4,5464.15
10951.7,5460.26
10956.4,5456.8
10961.3,5453.82
10966.6,5451.35
10972,5449.39
10977.7,5447.99
10983.4,5447.14
10989.2,5446.85
11107.3,5446.85
Z" /> 
<path style="fill:#840000; fill-opacity:1.0; 
stroke:#840000; stroke-width:0; stroke-opacity:1; 
stroke-linecap:round; stroke-linejoin:round;fill-rule:evenodd;"
d="M 10613.1,5447.14
10618.8,5447.99
10624.4,5449.39
10629.9,5451.35
10635.1,5453.82
10640.1,5456.8
10644.7,5460.26
10649,5464.15
10652.9,5468.44
10656.4,5473.1
10659.4,5478.07
10661.8,5483.31
10663.8,5488.76
10665.2,5494.38
10666.1,5500.12
10666.3,5505.91
10666.3,6194.88
10666.1,6200.67
10665.2,6206.4
10663.8,6212.03
10661.8,6217.48
10659.4,6222.72
10656.4,6227.69
10652.9,6232.35
10649,6236.64
10644.7,6240.53
10640.1,6243.98
10635.1,6246.96
10629.9,6249.44
10624.4,6251.39
10618.8,6252.8
10613.1,6253.65
10607.3,6253.94
10489.2,6253.94
10483.4,6253.65
10477.7,6252.8
10472,6251.39
10466.6,6249.44
10461.3,6246.96
10456.4,6243.98
10451.7,6240.53
10447.4,6236.64
10443.5,6232.35
10440.1,6227.69
10437.1,6222.72
10434.6,6217.48
10432.7,6212.03
10431.3,6206.4
10430.4,6200.67
10430.1,6194.88
10430.1,5505.91
10430.4,5500.12
10431.3,5494.38
10432.7,5488.76
10434.6,5483.31
10437.1,5478.07
10440.1,5473.1
10443.5,5468.44
10447.4,5464.15
10451.7,5460.26
10456.4,5456.8
10461.3,5453.82
10466.6,5451.35
10472,5449.39
10477.7,5447.99
10483.4,5447.14
10489.2,5446.85
10607.3,5446.85
Z" /> 
<path style="fill:#840000; fill-opacity:1.0; 
stroke:#840000; stroke-width:0; stroke-opacity:1; 
stroke-linecap:round; stroke-linejoin:round;fill-rule:evenodd;"
d="M 10113.1,5447.14
10118.8,5447.99
10124.4,5449.39
10129.9,5451.35
10135.1,5453.82
10140.1,5456.8
10144.7,5460.26
10149,5464.15
10152.9,5468.44
10156.4,5473.1
10159.4,5478.07
10161.8,5483.31
10163.8,5488.76
10165.2,5494.38
10166.1,5500.12
10166.3,5505.91
10166.3,6194.88
10166.1,6200.67
10165.2,6206.4
10163.8,6212.03
10161.8,6217.48
10159.4,6222.72
10156.4,6227.69
10152.9,6232.35
10149,6236.64
10144.7,6240.53
10140.1,6243.98
10135.1,6246.96
10129.9,6249.44
10124.4,6251.39
10118.8,6252.8
10113.1,6253.65
10107.3,6253.94
9989.17,6253.94
9983.38,6253.65
9977.65,6252.8
9972.03,6251.39
9966.57,6249.44
9961.33,6246.96
9956.36,6243.98
9951.71,6240.53
9947.41,6236.64
9943.52,6232.35
9940.07,6227.69
9937.09,6222.72
9934.61,6217.48
9932.66,6212.03
9931.25,6206.4
9930.4,6200.67
9930.12,6194.88
9930.12,5505.91
9930.4,5500.12
9931.25,5494.38
9932.66,5488.76
9934.61,5483.31
9937.09,5478.07
9940.07,5473.1
9943.52,5468.44
9947.41,5464.15
9951.71,5460.26
9956.36,5456.8
9961.33,5453.82
9966.57,5451.35
9972.03,5449.39
9977.65,5447.99
9983.38,5447.14
9989.17,5446.85
10107.3,5446.85
Z" /> 
<path style="fill:#840000; fill-opacity:1.0; 
stroke:#840000; stroke-width:0; stroke-opacity:1; 
stroke-linecap:round; stroke-linejoin:round;fill-rule:evenodd;"
d="M 9613.07,5447.14
9618.8,5447.99
9624.43,5449.39
9629.88,5451.35
9635.12,5453.82
9640.09,5456.8
9644.75,5460.26
9649.04,5464.15
9652.93,5468.44
9656.39,5473.1
9659.37,5478.07
9661.84,5483.31
9663.8,5488.76
9665.2,5494.38
9666.05,5500.12
9666.34,5505.91
9666.34,6194.88
9666.05,6200.67
9665.2,6206.4
9663.8,6212.03
9661.84,6217.48
9659.37,6222.72
9656.39,6227.69
9652.93,6232.35
9649.04,6236.64
9644.75,6240.53
9640.09,6243.98
9635.12,6246.96
9629.88,6249.44
9624.43,6251.39
9618.8,6252.8
9613.07,6253.65
9607.28,6253.94
9489.17,6253.94
9483.38,6253.65
9477.65,6252.8
9472.03,6251.39
9466.57,6249.44
9461.33,6246.96
9456.36,6243.98
9451.71,6240.53
9447.41,6236.64
9443.52,6232.35
9440.07,6227.69
9437.09,6222.72
9434.61,6217.48
9432.66,6212.03
9431.25,6206.4
9430.4,6200.67
9430.12,6194.88
9430.12,5505.91
9430.4,5500.12
9431.25,5494.38
9432.66,5488.76
9434.61,5483.31
9437.09,5478.07
9440.07,5473.1
9443.52,5468.44
9447.41,5464.15
9451.71,5460.26
9456.36,5456.8
9461.33,5453.82
9466.57,5451.35
9472.03,5449.39
9477.65,5447.99
9483.38,5447.14
9489.17,5446.85
9607.28,5446.85
Z" /> 
<path style="fill:#840000; fill-opacity:1.0; 
stroke:#840000; stroke-width:0; stroke-opacity:1; 
stroke-linecap:round; stroke-linejoin:round;fill-rule:evenodd;"
d="M 9113.07,5447.14
9118.8,5447.99
9124.43,5449.39
9129.88,5451.35
9135.12,5453.82
9140.09,5456.8
9144.75,5460.26
9149.04,5464.15
9152.93,5468.44
9156.39,5473.1
9159.37,5478.07
9161.84,5483.31
9163.8,5488.76
9165.2,5494.38
9166.05,5500.12
9166.34,5505.91
9166.34,6194.88
9166.05,6200.67
9165.2,6206.4
9163.8,6212.03
9161.84,6217.48
9159.37,6222.72
9156.39,6227.69
9152.93,6232.35
9149.04,6236.64
9144.75,6240.53
9140.09,6243.98
9135.12,6246.96
9129.88,6249.44
9124.43,6251.39
9118.8,6252.8
9113.07,6253.65
9107.28,6253.94
8989.17,6253.94
8983.38,6253.65
8977.65,6252.8
8972.03,6251.39
8966.57,6249.44
8961.33,6246.96
8956.36,6243.98
8951.71,6240.53
8947.41,6236.64
8943.52,6232.35
8940.07,6227.69
8937.09,6222.72
8934.61,6217.48
8932.66,6212.03
8931.25,6206.4
8930.4,6200.67
8930.12,6194.88
8930.12,5505.91
8930.4,5500.12
8931.25,5494.38
8932.66,5488.76
8934.61,5483.31
8937.09,5478.07
8940.07,5473.1
8943.52,5468.44
8947.41,5464.15
8951.71,5460.26
8956.36,5456.8
8961.33,5453.82
8966.57,5451.35
8972.03,5449.39
8977.65,5447.99
8983.38,5447.14
8989.17,5446.85
9107.28,5446.85
Z" /> 
<path style="fill:#840000; fill-opacity:1.0; 
stroke:#840000; stroke-width:0; stroke-opacity:1; 
stroke-linecap:round; stroke-linejoin:round;fill-rule:evenodd;"
d="M 8613.07,5447.14
8618.8,5447.99
8624.43,5449.39
8629.88,5451.35
8635.12,5453.82
8640.09,5456.8
8644.75,5460.26
8649.04,5464.15
8652.93,5468.44
8656.39,5473.1
8659.37,5478.07
8661.84,5483.31
8663.8,5488.76
8665.2,5494.38
8666.05,5500.12
8666.34,5505.91
8666.34,6194.88
8666.05,6200.67
8665.2,6206.4
8663.8,6212.03
8661.84,6217.48
8659.37,6222.72
8656.39,6227.69
8652.93,6232.35
8649.04,6236.64
8644.75,6240.53
8640.09,6243.98
8635.12,6246.96
8629.88,6249.44
8624.43,6251.39
8618.8,6252.8
8613.07,6253.65
8607.28,6253.94
8489.17,6253.94
8483.38,6253.65
8477.65,6252.8
8472.03,6251.39
8466.57,6249.44
8461.33,6246.96
8456.36,6243.98
8451.71,6240.53
8447.41,6236.64
8443.52,6232.35
8440.07,6227.69
8437.09,6222.72
8434.61,6217.48
8432.66,6212.03
8431.25,6206.4
8430.4,6200.67
8430.12,6194.88
8430.12,5505.91
8430.4,5500.12
8431.25,5494.38
8432.66,5488.76
8434.61,5483.31
8437.09,5478.07
8440.07,5473.1
8443.52,5468.44
8447.41,5464.15
8451.71,5460.26
8456.36,5456.8
8461.33,5453.82
8466.57,5451.35
8472.03,5449.39
8477.65,5447.99
8483.38,5447.14
8489.17,5446.85
8607.28,5446.85
Z" /> 
<path style="fill:#840000; fill-opacity:1.0; 
stroke:#840000; stroke-width:0; stroke-opacity:1; 
stroke-linecap:round; stroke-linejoin:round;fill-rule:evenodd;"
d="M 8113.07,5447.14
8118.8,5447.99
8124.43,5449.39
8129.88,5451.35
8135.12,5453.82
8140.09,5456.8
8144.75,5460.26
8149.04,5464.15
8152.93,5468.44
8156.39,5473.1
8159.37,5478.07
8161.84,5483.31
8163.8,5488.76
8165.2,5494.38
8166.05,5500.12
8166.34,5505.91
8166.34,6194.88
8166.05,6200.67
8165.2,6206.4
8163.8,6212.03
8161.84,6217.48
8159.37,6222.72
8156.39,6227.69
8152.93,6232.35
8149.04,6236.64
8144.75,6240.53
8140.09,6243.98
8135.12,6246.96
8129.88,6249.44
8124.43,6251.39
8118.8,6252.8
8113.07,6253.65
8107.28,6253.94
7989.17,6253.94
7983.38,6253.65
7977.65,6252.8
7972.03,6251.39
7966.57,6249.44
7961.33,6246.96
7956.36,6243.98
7951.71,6240.53
7947.41,6236.64
7943.52,6232.35
7940.07,6227.69
7937.09,6222.72
7934.61,6217.48
7932.66,6212.03
7931.25,6206.4
7930.4,6200.67
7930.12,6194.88
7930.12,5505.91
7930.4,5500.12
7931.25,5494.38
7932.66,5488.76
7934.61,5483.31
7937.09,5478.07
7940.07,5473.1
7943.52,5468.44
7947.41,5464.15
7951.71,5460.26
7956.36,5456.8
7961.33,5453.82
7966.57,5451.35
7972.03,5449.39
7977.65,5447.99
7983.38,5447.14
7989.17,5446.85
8107.28,5446.85
Z" /> 
</g>
<g >
</g>
<g style="fill:#840000; fill-opacity:1.0; 
stroke:#840000; stroke-width:0; stroke-opacity:1; 
stroke-linecap:round; stroke-linejoin:round;">
<path style="fill:#840000; fill-opacity:1.0; 
stroke:#840000; stroke-width:0; stroke-opacity:1; 
stroke-linecap:round; stroke-linejoin:round;fill-rule:evenodd;"
d="M 6402.23,3533.19
5694.23,3533.19
5694.23,2904.19
6402.23,2904.19
Z" /> 
<path style="fill:#840000; fill-opacity:1.0; 
stroke:#840000; stroke-width:0; stroke-opacity:1; 
stroke-linecap:round; stroke-linejoin:round;fill-rule:evenodd;"
d="M 6402.23,4635.19
5694.23,4635.19
5694.23,4006.19
6402.23,4006.19
Z" /> 
</g>
<g >
</g>
<g >
</g>
<g style="fill:#840000; fill-opacity:1.0; 
stroke:#840000; stroke-width:0; stroke-opacity:1; 
stroke-linecap:round; stroke-linejoin:round;">
</g>
<g style="fill:#840000; fill-opacity:1.0; 
stroke:#840000; stroke-width:196.85; stroke-opacity:1; 
stroke-linecap:round; stroke-linejoin:round;">
</g>
<g style="fill:#840000; fill-opacity:0.0; 
stroke:#840000; stroke-width:196.85; stroke-opacity:1; 
stroke-linecap:round; stroke-linejoin:round;">
<path d="M8048 2188
L8048 3269
" />
<path d="M6099 3269
L6048 3218
" />
<path d="M8048 3269
L6099 3269
" />
<path d="M5869 4141
L6048 4320
" />
<path d="M6099 4269
L6048 4320
" />
<path d="M7798 4269
L6099 4269
" />
<path d="M8525 2166
L8548 2188
" />
<path d="M6048 3218
L4849 3218
" />
<path d="M4849 3218
L4798 3269
" />
<path d="M4548 4019
L3548 4019
" />
<path d="M4798 3769
L4548 4019
" />
<path d="M4798 3269
L4798 3769
" />
<path d="M8048 3269
L12798 3269
" />
<path d="M14548 1519
L15048 1519
" />
<path d="M12798 3269
L14548 1519
" />
<path d="M6048 4320
L5997 4320
" />
<path d="M5298 5019
L3548 5019
" />
<path d="M5997 4320
L5298 5019
" />
<path d="M8048 4519
L7798 4269
" />
<path d="M8048 5850
L8048 4519
" />
<path d="M8048 4519
L8548 4019
" />
<path d="M8548 4019
L13298 4019
" />
<path d="M13798 3519
L15048 3519
" />
<path d="M13298 4019
L13798 3519
" />
<path d="M10048 1541
L10048 2188
" />
<path d="M9775 1269
L10048 1541
" />
<path d="M5298 1269
L9775 1269
" />
<path d="M3548 3019
L5298 1269
" />
<path d="M11048 5019
L13548 5019
" />
<path d="M14048 5519
L15048 5519
" />
<path d="M13548 5019
L14048 5519
" />
<path d="M11048 5850
L11048 5019
" />
<path d="M10548 5850
L10548 4519
" />
<path d="M10548 4519
L15048 4519
" />
</g>
<g >
</g>
</g>
<g style="fill:#FFFFFF; fill-opacity:0.0; 
stroke:#FFFFFF; stroke-width:196.85; stroke-opacity:1; 
stroke-linecap:round; stroke-linejoin:round;">
</g>
<g style="fill:#000000; fill-opacity:0.0; 
stroke:#000000; stroke-width:196.85; stroke-opacity:1; 
stroke-linecap:round; stroke-linejoin:round;">
</g>
<g style="fill:#C2C2C2; fill-opacity:0.0; 
stroke:#C2C2C2; stroke-width:196.85; stroke-opacity:1; 
stroke-linecap:round; stroke-linejoin:round;">
</g>
<g style="fill:#C2C2C2; fill-opacity:0.0; 
stroke:#C2C2C2; stroke-width:39.3701; stroke-opacity:1; 
stroke-linecap:round; stroke-linejoin:round;">
</g>
<g style="fill:#C2C2C2; fill-opacity:1.0; 
stroke:#C2C2C2; stroke-width:39.3701; stroke-opacity:1; 
stroke-linecap:round; stroke-linejoin:round;">
<path style="fill:#C2C2C2; fill-opacity:1.0; 
stroke:#C2C2C2; stroke-width:39.3701; stroke-opacity:1; 
stroke-linecap:round; stroke-linejoin:round;fill-rule:evenodd;"
d="M 17048.2,7769.69
1548.23,7769.69
1548.23,269.685
17048.2,269.685
Z" /> 
<g >
</g>
<g >
</g>
<g >
</g>
<g >
</g>
<g >
</g>
</g>
<g style="fill:#000000; fill-opacity:1.0; 
stroke:#000000; stroke-width:39.3701; stroke-opacity:1; 
stroke-linecap:round; stroke-linejoin:round;">
</g>
<g style="fill:#C200C2; fill-opacity:1.0; 
stroke:#C200C2; stroke-width:39.3701; stroke-opacity:1; 
stroke-linecap:round; stroke-linejoin:round;">
<path style="fill:#C200C2; fill-opacity:1.0; 
stroke:#C200C2; stroke-width:39.3701; stroke-opacity:1; 
stroke-linecap:round; stroke-linejoin:round;fill-rule:evenodd;"
d="M 17298.2,8019.69
1048.23,8019.69
1048.23,19.6854
17548.2,19.6854
Z" /> 
<g >
</g>
<g >
</g>
<g >
</g>
<g >
</g>
<g >
</g>
</g> 
</svg>
