<?xml version="1.0" standalone="no"?>
 <!DOCTYPE svg PUBLIC "-//W3C//DTD SVG 1.1//EN" 
 "http://www.w3.org/Graphics/SVG/1.1/DTD/svg11.dtd"> 
<svg
  xmlns:svg="http://www.w3.org/2000/svg"
  xmlns="http://www.w3.org/2000/svg"
  xmlns:xlink="http://www.w3.org/1999/xlink"
  version="1.1"
  width="4.018280cm" height="2.039620cm" viewBox="0 0 15820 8030">
<title>SVG Picture created as hello.t1616.echo-F_Cu.svg date 2021/03/01 22:44:46 </title>
  <desc>Picture generated by PCBNEW </desc>
<g style="fill:#000000; fill-opacity:1;stroke:#000000; stroke-opacity:1;
stroke-linecap:round; stroke-linejoin:round;"
 transform="translate(0 0) scale(1 1)">
</g>
<g style="fill:#000000; fill-opacity:0.0; 
stroke:#000000; stroke-width:-0.000393701; stroke-opacity:1; 
stroke-linecap:round; stroke-linejoin:round;">
</g>
<g style="fill:#000000; fill-opacity:0.0; 
stroke:#000000; stroke-width:98.4252; stroke-opacity:1; 
stroke-linecap:round; stroke-linejoin:round;">
<text x="11548.2" y="1314.96"
textLength="1876.55" font-size="787.402" lengthAdjust="spacingAndGlyphs"
text-anchor="middle" opacity="0">GND</text>
<path d="M11098 724
L11042 696
L10957 696
L10873 724
L10817 780
L10788 836
L10760 949
L10760 1033
L10788 1146
L10817 1202
L10873 1258
L10957 1286
L11013 1286
L11098 1258
L11126 1230
L11126 1033
L11013 1033
" />
<path d="M11379 1286
L11379 696
L11716 1286
L11716 696
" />
<path d="M11998 1286
L11998 696
L12138 696
L12223 724
L12279 780
L12307 836
L12335 949
L12335 1033
L12307 1146
L12279 1202
L12223 1258
L12138 1286
L11998 1286
" />
<text x="2548.23" y="6814.96"
textLength="1815.24" font-size="787.402" lengthAdjust="spacingAndGlyphs"
text-anchor="middle" opacity="0">VCC</text>
<path d="M1760 6196
L1957 6786
L2154 6196
" />
<path d="M2688 6730
L2660 6758
L2576 6786
L2520 6786
L2435 6758
L2379 6702
L2351 6646
L2323 6533
L2323 6449
L2351 6336
L2379 6280
L2435 6224
L2520 6196
L2576 6196
L2660 6224
L2688 6252
" />
<path d="M3279 6730
L3251 6758
L3166 6786
L3110 6786
L3026 6758
L2970 6702
L2941 6646
L2913 6533
L2913 6449
L2941 6336
L2970 6280
L3026 6224
L3110 6196
L3166 6196
L3251 6224
L3279 6252
" />
<text x="2548.23" y="2064.96"
textLength="2208.94" font-size="787.402" lengthAdjust="spacingAndGlyphs"
text-anchor="middle" opacity="0">UPDI</text>
<path d="M1648 1446
L1648 1924
L1676 1980
L1704 2008
L1760 2036
L1873 2036
L1929 2008
L1957 1980
L1985 1924
L1985 1446
" />
<path d="M2267 2036
L2267 1446
L2491 1446
L2548 1474
L2576 1502
L2604 1558
L2604 1643
L2576 1699
L2548 1727
L2491 1755
L2267 1755
" />
<path d="M2857 2036
L2857 1446
L2998 1446
L3082 1474
L3138 1530
L3166 1586
L3195 1699
L3195 1783
L3166 1896
L3138 1952
L3082 2008
L2998 2036
L2857 2036
" />
<path d="M3448 2036
L3448 1446
" />
<g >
</g>
<g style="fill:#000000; fill-opacity:0.0; 
stroke:#000000; stroke-width:0; stroke-opacity:1; 
stroke-linecap:round; stroke-linejoin:round;">
</g>
<g style="fill:#000000; fill-opacity:1.0; 
stroke:#000000; stroke-width:0; stroke-opacity:1; 
stroke-linecap:round; stroke-linejoin:round;">
<path style="fill:#000000; fill-opacity:1.0; 
stroke:#000000; stroke-width:0; stroke-opacity:1; 
stroke-linecap:round; stroke-linejoin:round;fill-rule:evenodd;"
d="M 12806.1,6854.33
12806.1,6185.04
13790.4,6185.04
13790.4,6854.33
Z" /> 
<path style="fill:#000000; fill-opacity:1.0; 
stroke:#000000; stroke-width:0; stroke-opacity:1; 
stroke-linecap:round; stroke-linejoin:round;fill-rule:evenodd;"
d="M 12806.1,5854.33
12806.1,5185.04
13790.4,5185.04
13790.4,5854.33
Z" /> 
<path style="fill:#000000; fill-opacity:1.0; 
stroke:#000000; stroke-width:0; stroke-opacity:1; 
stroke-linecap:round; stroke-linejoin:round;fill-rule:evenodd;"
d="M 12806.1,4854.33
12806.1,4185.04
13790.4,4185.04
13790.4,4854.33
Z" /> 
<path style="fill:#000000; fill-opacity:1.0; 
stroke:#000000; stroke-width:0; stroke-opacity:1; 
stroke-linecap:round; stroke-linejoin:round;fill-rule:evenodd;"
d="M 12806.1,3854.33
12806.1,3185.04
13790.4,3185.04
13790.4,3854.33
Z" /> 
<path style="fill:#000000; fill-opacity:1.0; 
stroke:#000000; stroke-width:0; stroke-opacity:1; 
stroke-linecap:round; stroke-linejoin:round;fill-rule:evenodd;"
d="M 12806.1,2854.33
12806.1,2185.04
13790.4,2185.04
13790.4,2854.33
Z" /> 
<path style="fill:#000000; fill-opacity:1.0; 
stroke:#000000; stroke-width:0; stroke-opacity:1; 
stroke-linecap:round; stroke-linejoin:round;fill-rule:evenodd;"
d="M 12806.1,1854.33
12806.1,1185.04
13790.4,1185.04
13790.4,1854.33
Z" /> 
</g>
<g >
</g>
<g style="fill:#000000; fill-opacity:1.0; 
stroke:#000000; stroke-width:0; stroke-opacity:1; 
stroke-linecap:round; stroke-linejoin:round;">
<path style="fill:#000000; fill-opacity:1.0; 
stroke:#000000; stroke-width:0; stroke-opacity:1; 
stroke-linecap:round; stroke-linejoin:round;fill-rule:evenodd;"
d="M 3290.35,2935.04
3290.35,3604.33
2306.1,3604.33
2306.1,2935.04
Z" /> 
<path style="fill:#000000; fill-opacity:1.0; 
stroke:#000000; stroke-width:0; stroke-opacity:1; 
stroke-linecap:round; stroke-linejoin:round;fill-rule:evenodd;"
d="M 3290.35,3935.04
3290.35,4604.33
2306.1,4604.33
2306.1,3935.04
Z" /> 
<path style="fill:#000000; fill-opacity:1.0; 
stroke:#000000; stroke-width:0; stroke-opacity:1; 
stroke-linecap:round; stroke-linejoin:round;fill-rule:evenodd;"
d="M 3290.35,4935.04
3290.35,5604.33
2306.1,5604.33
2306.1,4935.04
Z" /> 
</g>
<g >
</g>
<g style="fill:#000000; fill-opacity:1.0; 
stroke:#000000; stroke-width:0; stroke-opacity:1; 
stroke-linecap:round; stroke-linejoin:round;">
<path style="fill:#000000; fill-opacity:1.0; 
stroke:#000000; stroke-width:0; stroke-opacity:1; 
stroke-linecap:round; stroke-linejoin:round;fill-rule:evenodd;"
d="M 6363.07,1785.72
6368.8,1786.57
6374.43,1787.98
6379.88,1789.93
6385.12,1792.41
6390.09,1795.39
6394.75,1798.84
6399.04,1802.73
6402.93,1807.02
6406.39,1811.68
6409.37,1816.65
6411.84,1821.89
6413.8,1827.35
6415.2,1832.97
6416.05,1838.7
6416.34,1844.49
6416.34,2533.46
6416.05,2539.25
6415.2,2544.99
6413.8,2550.61
6411.84,2556.06
6409.37,2561.3
6406.39,2566.27
6402.93,2570.93
6399.04,2575.22
6394.75,2579.12
6390.09,2582.57
6385.12,2585.55
6379.88,2588.02
6374.43,2589.98
6368.8,2591.39
6363.07,2592.24
6357.28,2592.52
6239.17,2592.52
6233.38,2592.24
6227.65,2591.39
6222.03,2589.98
6216.57,2588.02
6211.33,2585.55
6206.36,2582.57
6201.71,2579.12
6197.41,2575.22
6193.52,2570.93
6190.07,2566.27
6187.09,2561.3
6184.61,2556.06
6182.66,2550.61
6181.25,2544.99
6180.4,2539.25
6180.12,2533.46
6180.12,1844.49
6180.4,1838.7
6181.25,1832.97
6182.66,1827.35
6184.61,1821.89
6187.09,1816.65
6190.07,1811.68
6193.52,1807.02
6197.41,1802.73
6201.71,1798.84
6206.36,1795.39
6211.33,1792.41
6216.57,1789.93
6222.03,1787.98
6227.65,1786.57
6233.38,1785.72
6239.17,1785.43
6357.28,1785.43
Z" /> 
<path style="fill:#000000; fill-opacity:1.0; 
stroke:#000000; stroke-width:0; stroke-opacity:1; 
stroke-linecap:round; stroke-linejoin:round;fill-rule:evenodd;"
d="M 6863.07,1785.72
6868.8,1786.57
6874.43,1787.98
6879.88,1789.93
6885.12,1792.41
6890.09,1795.39
6894.75,1798.84
6899.04,1802.73
6902.93,1807.02
6906.39,1811.68
6909.37,1816.65
6911.84,1821.89
6913.8,1827.35
6915.2,1832.97
6916.05,1838.7
6916.34,1844.49
6916.34,2533.46
6916.05,2539.25
6915.2,2544.99
6913.8,2550.61
6911.84,2556.06
6909.37,2561.3
6906.39,2566.27
6902.93,2570.93
6899.04,2575.22
6894.75,2579.12
6890.09,2582.57
6885.12,2585.55
6879.88,2588.02
6874.43,2589.98
6868.8,2591.39
6863.07,2592.24
6857.28,2592.52
6739.17,2592.52
6733.38,2592.24
6727.65,2591.39
6722.03,2589.98
6716.57,2588.02
6711.33,2585.55
6706.36,2582.57
6701.71,2579.12
6697.41,2575.22
6693.52,2570.93
6690.07,2566.27
6687.09,2561.3
6684.61,2556.06
6682.66,2550.61
6681.25,2544.99
6680.4,2539.25
6680.12,2533.46
6680.12,1844.49
6680.4,1838.7
6681.25,1832.97
6682.66,1827.35
6684.61,1821.89
6687.09,1816.65
6690.07,1811.68
6693.52,1807.02
6697.41,1802.73
6701.71,1798.84
6706.36,1795.39
6711.33,1792.41
6716.57,1789.93
6722.03,1787.98
6727.65,1786.57
6733.38,1785.72
6739.17,1785.43
6857.28,1785.43
Z" /> 
<path style="fill:#000000; fill-opacity:1.0; 
stroke:#000000; stroke-width:0; stroke-opacity:1; 
stroke-linecap:round; stroke-linejoin:round;fill-rule:evenodd;"
d="M 7363.07,1785.72
7368.8,1786.57
7374.43,1787.98
7379.88,1789.93
7385.12,1792.41
7390.09,1795.39
7394.75,1798.84
7399.04,1802.73
7402.93,1807.02
7406.39,1811.68
7409.37,1816.65
7411.84,1821.89
7413.8,1827.35
7415.2,1832.97
7416.05,1838.7
7416.34,1844.49
7416.34,2533.46
7416.05,2539.25
7415.2,2544.99
7413.8,2550.61
7411.84,2556.06
7409.37,2561.3
7406.39,2566.27
7402.93,2570.93
7399.04,2575.22
7394.75,2579.12
7390.09,2582.57
7385.12,2585.55
7379.88,2588.02
7374.43,2589.98
7368.8,2591.39
7363.07,2592.24
7357.28,2592.52
7239.17,2592.52
7233.38,2592.24
7227.65,2591.39
7222.03,2589.98
7216.57,2588.02
7211.33,2585.55
7206.36,2582.57
7201.71,2579.12
7197.41,2575.22
7193.52,2570.93
7190.07,2566.27
7187.09,2561.3
7184.61,2556.06
7182.66,2550.61
7181.25,2544.99
7180.4,2539.25
7180.12,2533.46
7180.12,1844.49
7180.4,1838.7
7181.25,1832.97
7182.66,1827.35
7184.61,1821.89
7187.09,1816.65
7190.07,1811.68
7193.52,1807.02
7197.41,1802.73
7201.71,1798.84
7206.36,1795.39
7211.33,1792.41
7216.57,1789.93
7222.03,1787.98
7227.65,1786.57
7233.38,1785.72
7239.17,1785.43
7357.28,1785.43
Z" /> 
<path style="fill:#000000; fill-opacity:1.0; 
stroke:#000000; stroke-width:0; stroke-opacity:1; 
stroke-linecap:round; stroke-linejoin:round;fill-rule:evenodd;"
d="M 7863.07,1785.72
7868.8,1786.57
7874.43,1787.98
7879.88,1789.93
7885.12,1792.41
7890.09,1795.39
7894.75,1798.84
7899.04,1802.73
7902.93,1807.02
7906.39,1811.68
7909.37,1816.65
7911.84,1821.89
7913.8,1827.35
7915.2,1832.97
7916.05,1838.7
7916.34,1844.49
7916.34,2533.46
7916.05,2539.25
7915.2,2544.99
7913.8,2550.61
7911.84,2556.06
7909.37,2561.3
7906.39,2566.27
7902.93,2570.93
7899.04,2575.22
7894.75,2579.12
7890.09,2582.57
7885.12,2585.55
7879.88,2588.02
7874.43,2589.98
7868.8,2591.39
7863.07,2592.24
7857.28,2592.52
7739.17,2592.52
7733.38,2592.24
7727.65,2591.39
7722.03,2589.98
7716.57,2588.02
7711.33,2585.55
7706.36,2582.57
7701.71,2579.12
7697.41,2575.22
7693.52,2570.93
7690.07,2566.27
7687.09,2561.3
7684.61,2556.06
7682.66,2550.61
7681.25,2544.99
7680.4,2539.25
7680.12,2533.46
7680.12,1844.49
7680.4,1838.7
7681.25,1832.97
7682.66,1827.35
7684.61,1821.89
7687.09,1816.65
7690.07,1811.68
7693.52,1807.02
7697.41,1802.73
7701.71,1798.84
7706.36,1795.39
7711.33,1792.41
7716.57,1789.93
7722.03,1787.98
7727.65,1786.57
7733.38,1785.72
7739.17,1785.43
7857.28,1785.43
Z" /> 
<path style="fill:#000000; fill-opacity:1.0; 
stroke:#000000; stroke-width:0; stroke-opacity:1; 
stroke-linecap:round; stroke-linejoin:round;fill-rule:evenodd;"
d="M 8363.07,1785.72
8368.8,1786.57
8374.43,1787.98
8379.88,1789.93
8385.12,1792.41
8390.09,1795.39
8394.75,1798.84
8399.04,1802.73
8402.93,1807.02
8406.39,1811.68
8409.37,1816.65
8411.84,1821.89
8413.8,1827.35
8415.2,1832.97
8416.05,1838.7
8416.34,1844.49
8416.34,2533.46
8416.05,2539.25
8415.2,2544.99
8413.8,2550.61
8411.84,2556.06
8409.37,2561.3
8406.39,2566.27
8402.93,2570.93
8399.04,2575.22
8394.75,2579.12
8390.09,2582.57
8385.12,2585.55
8379.88,2588.02
8374.43,2589.98
8368.8,2591.39
8363.07,2592.24
8357.28,2592.52
8239.17,2592.52
8233.38,2592.24
8227.65,2591.39
8222.03,2589.98
8216.57,2588.02
8211.33,2585.55
8206.36,2582.57
8201.71,2579.12
8197.41,2575.22
8193.52,2570.93
8190.07,2566.27
8187.09,2561.3
8184.61,2556.06
8182.66,2550.61
8181.25,2544.99
8180.4,2539.25
8180.12,2533.46
8180.12,1844.49
8180.4,1838.7
8181.25,1832.97
8182.66,1827.35
8184.61,1821.89
8187.09,1816.65
8190.07,1811.68
8193.52,1807.02
8197.41,1802.73
8201.71,1798.84
8206.36,1795.39
8211.33,1792.41
8216.57,1789.93
8222.03,1787.98
8227.65,1786.57
8233.38,1785.72
8239.17,1785.43
8357.28,1785.43
Z" /> 
<path style="fill:#000000; fill-opacity:1.0; 
stroke:#000000; stroke-width:0; stroke-opacity:1; 
stroke-linecap:round; stroke-linejoin:round;fill-rule:evenodd;"
d="M 8863.07,1785.72
8868.8,1786.57
8874.43,1787.98
8879.88,1789.93
8885.12,1792.41
8890.09,1795.39
8894.75,1798.84
8899.04,1802.73
8902.93,1807.02
8906.39,1811.68
8909.37,1816.65
8911.84,1821.89
8913.8,1827.35
8915.2,1832.97
8916.05,1838.7
8916.34,1844.49
8916.34,2533.46
8916.05,2539.25
8915.2,2544.99
8913.8,2550.61
8911.84,2556.06
8909.37,2561.3
8906.39,2566.27
8902.93,2570.93
8899.04,2575.22
8894.75,2579.12
8890.09,2582.57
8885.12,2585.55
8879.88,2588.02
8874.43,2589.98
8868.8,2591.39
8863.07,2592.24
8857.28,2592.52
8739.17,2592.52
8733.38,2592.24
8727.65,2591.39
8722.03,2589.98
8716.57,2588.02
8711.33,2585.55
8706.36,2582.57
8701.71,2579.12
8697.41,2575.22
8693.52,2570.93
8690.07,2566.27
8687.09,2561.3
8684.61,2556.06
8682.66,2550.61
8681.25,2544.99
8680.4,2539.25
8680.12,2533.46
8680.12,1844.49
8680.4,1838.7
8681.25,1832.97
8682.66,1827.35
8684.61,1821.89
8687.09,1816.65
8690.07,1811.68
8693.52,1807.02
8697.41,1802.73
8701.71,1798.84
8706.36,1795.39
8711.33,1792.41
8716.57,1789.93
8722.03,1787.98
8727.65,1786.57
8733.38,1785.72
8739.17,1785.43
8857.28,1785.43
Z" /> 
<path style="fill:#000000; fill-opacity:1.0; 
stroke:#000000; stroke-width:0; stroke-opacity:1; 
stroke-linecap:round; stroke-linejoin:round;fill-rule:evenodd;"
d="M 9363.07,1785.72
9368.8,1786.57
9374.43,1787.98
9379.88,1789.93
9385.12,1792.41
9390.09,1795.39
9394.75,1798.84
9399.04,1802.73
9402.93,1807.02
9406.39,1811.68
9409.37,1816.65
9411.84,1821.89
9413.8,1827.35
9415.2,1832.97
9416.05,1838.7
9416.34,1844.49
9416.34,2533.46
9416.05,2539.25
9415.2,2544.99
9413.8,2550.61
9411.84,2556.06
9409.37,2561.3
9406.39,2566.27
9402.93,2570.93
9399.04,2575.22
9394.75,2579.12
9390.09,2582.57
9385.12,2585.55
9379.88,2588.02
9374.43,2589.98
9368.8,2591.39
9363.07,2592.24
9357.28,2592.52
9239.17,2592.52
9233.38,2592.24
9227.65,2591.39
9222.03,2589.98
9216.57,2588.02
9211.33,2585.55
9206.36,2582.57
9201.71,2579.12
9197.41,2575.22
9193.52,2570.93
9190.07,2566.27
9187.09,2561.3
9184.61,2556.06
9182.66,2550.61
9181.25,2544.99
9180.4,2539.25
9180.12,2533.46
9180.12,1844.49
9180.4,1838.7
9181.25,1832.97
9182.66,1827.35
9184.61,1821.89
9187.09,1816.65
9190.07,1811.68
9193.52,1807.02
9197.41,1802.73
9201.71,1798.84
9206.36,1795.39
9211.33,1792.41
9216.57,1789.93
9222.03,1787.98
9227.65,1786.57
9233.38,1785.72
9239.17,1785.43
9357.28,1785.43
Z" /> 
<path style="fill:#000000; fill-opacity:1.0; 
stroke:#000000; stroke-width:0; stroke-opacity:1; 
stroke-linecap:round; stroke-linejoin:round;fill-rule:evenodd;"
d="M 9863.07,1785.72
9868.8,1786.57
9874.43,1787.98
9879.88,1789.93
9885.12,1792.41
9890.09,1795.39
9894.75,1798.84
9899.04,1802.73
9902.93,1807.02
9906.39,1811.68
9909.37,1816.65
9911.84,1821.89
9913.8,1827.35
9915.2,1832.97
9916.05,1838.7
9916.34,1844.49
9916.34,2533.46
9916.05,2539.25
9915.2,2544.99
9913.8,2550.61
9911.84,2556.06
9909.37,2561.3
9906.39,2566.27
9902.93,2570.93
9899.04,2575.22
9894.75,2579.12
9890.09,2582.57
9885.12,2585.55
9879.88,2588.02
9874.43,2589.98
9868.8,2591.39
9863.07,2592.24
9857.28,2592.52
9739.17,2592.52
9733.38,2592.24
9727.65,2591.39
9722.03,2589.98
9716.57,2588.02
9711.33,2585.55
9706.36,2582.57
9701.71,2579.12
9697.41,2575.22
9693.52,2570.93
9690.07,2566.27
9687.09,2561.3
9684.61,2556.06
9682.66,2550.61
9681.25,2544.99
9680.4,2539.25
9680.12,2533.46
9680.12,1844.49
9680.4,1838.7
9681.25,1832.97
9682.66,1827.35
9684.61,1821.89
9687.09,1816.65
9690.07,1811.68
9693.52,1807.02
9697.41,1802.73
9701.71,1798.84
9706.36,1795.39
9711.33,1792.41
9716.57,1789.93
9722.03,1787.98
9727.65,1786.57
9733.38,1785.72
9739.17,1785.43
9857.28,1785.43
Z" /> 
<path style="fill:#000000; fill-opacity:1.0; 
stroke:#000000; stroke-width:0; stroke-opacity:1; 
stroke-linecap:round; stroke-linejoin:round;fill-rule:evenodd;"
d="M 10363.1,1785.72
10368.8,1786.57
10374.4,1787.98
10379.9,1789.93
10385.1,1792.41
10390.1,1795.39
10394.7,1798.84
10399,1802.73
10402.9,1807.02
10406.4,1811.68
10409.4,1816.65
10411.8,1821.89
10413.8,1827.35
10415.2,1832.97
10416.1,1838.7
10416.3,1844.49
10416.3,2533.46
10416.1,2539.25
10415.2,2544.99
10413.8,2550.61
10411.8,2556.06
10409.4,2561.3
10406.4,2566.27
10402.9,2570.93
10399,2575.22
10394.7,2579.12
10390.1,2582.57
10385.1,2585.55
10379.9,2588.02
10374.4,2589.98
10368.8,2591.39
10363.1,2592.24
10357.3,2592.52
10239.2,2592.52
10233.4,2592.24
10227.7,2591.39
10222,2589.98
10216.6,2588.02
10211.3,2585.55
10206.4,2582.57
10201.7,2579.12
10197.4,2575.22
10193.5,2570.93
10190.1,2566.27
10187.1,2561.3
10184.6,2556.06
10182.7,2550.61
10181.3,2544.99
10180.4,2539.25
10180.1,2533.46
10180.1,1844.49
10180.4,1838.7
10181.3,1832.97
10182.7,1827.35
10184.6,1821.89
10187.1,1816.65
10190.1,1811.68
10193.5,1807.02
10197.4,1802.73
10201.7,1798.84
10206.4,1795.39
10211.3,1792.41
10216.6,1789.93
10222,1787.98
10227.7,1786.57
10233.4,1785.72
10239.2,1785.43
10357.3,1785.43
Z" /> 
<path style="fill:#000000; fill-opacity:1.0; 
stroke:#000000; stroke-width:0; stroke-opacity:1; 
stroke-linecap:round; stroke-linejoin:round;fill-rule:evenodd;"
d="M 10863.1,1785.72
10868.8,1786.57
10874.4,1787.98
10879.9,1789.93
10885.1,1792.41
10890.1,1795.39
10894.7,1798.84
10899,1802.73
10902.9,1807.02
10906.4,1811.68
10909.4,1816.65
10911.8,1821.89
10913.8,1827.35
10915.2,1832.97
10916.1,1838.7
10916.3,1844.49
10916.3,2533.46
10916.1,2539.25
10915.2,2544.99
10913.8,2550.61
10911.8,2556.06
10909.4,2561.3
10906.4,2566.27
10902.9,2570.93
10899,2575.22
10894.7,2579.12
10890.1,2582.57
10885.1,2585.55
10879.9,2588.02
10874.4,2589.98
10868.8,2591.39
10863.1,2592.24
10857.3,2592.52
10739.2,2592.52
10733.4,2592.24
10727.7,2591.39
10722,2589.98
10716.6,2588.02
10711.3,2585.55
10706.4,2582.57
10701.7,2579.12
10697.4,2575.22
10693.5,2570.93
10690.1,2566.27
10687.1,2561.3
10684.6,2556.06
10682.7,2550.61
10681.3,2544.99
10680.4,2539.25
10680.1,2533.46
10680.1,1844.49
10680.4,1838.7
10681.3,1832.97
10682.7,1827.35
10684.6,1821.89
10687.1,1816.65
10690.1,1811.68
10693.5,1807.02
10697.4,1802.73
10701.7,1798.84
10706.4,1795.39
10711.3,1792.41
10716.6,1789.93
10722,1787.98
10727.7,1786.57
10733.4,1785.72
10739.2,1785.43
10857.3,1785.43
Z" /> 
<path style="fill:#000000; fill-opacity:1.0; 
stroke:#000000; stroke-width:0; stroke-opacity:1; 
stroke-linecap:round; stroke-linejoin:round;fill-rule:evenodd;"
d="M 10863.1,5447.14
10868.8,5447.99
10874.4,5449.39
10879.9,5451.35
10885.1,5453.82
10890.1,5456.8
10894.7,5460.26
10899,5464.15
10902.9,5468.44
10906.4,5473.1
10909.4,5478.07
10911.8,5483.31
10913.8,5488.76
10915.2,5494.38
10916.1,5500.12
10916.3,5505.91
10916.3,6194.88
10916.1,6200.67
10915.2,6206.4
10913.8,6212.03
10911.8,6217.48
10909.4,6222.72
10906.4,6227.69
10902.9,6232.35
10899,6236.64
10894.7,6240.53
10890.1,6243.98
10885.1,6246.96
10879.9,6249.44
10874.4,6251.39
10868.8,6252.8
10863.1,6253.65
10857.3,6253.94
10739.2,6253.94
10733.4,6253.65
10727.7,6252.8
10722,6251.39
10716.6,6249.44
10711.3,6246.96
10706.4,6243.98
10701.7,6240.53
10697.4,6236.64
10693.5,6232.35
10690.1,6227.69
10687.1,6222.72
10684.6,6217.48
10682.7,6212.03
10681.3,6206.4
10680.4,6200.67
10680.1,6194.88
10680.1,5505.91
10680.4,5500.12
10681.3,5494.38
10682.7,5488.76
10684.6,5483.31
10687.1,5478.07
10690.1,5473.1
10693.5,5468.44
10697.4,5464.15
10701.7,5460.26
10706.4,5456.8
10711.3,5453.82
10716.6,5451.35
10722,5449.39
10727.7,5447.99
10733.4,5447.14
10739.2,5446.85
10857.3,5446.85
Z" /> 
<path style="fill:#000000; fill-opacity:1.0; 
stroke:#000000; stroke-width:0; stroke-opacity:1; 
stroke-linecap:round; stroke-linejoin:round;fill-rule:evenodd;"
d="M 10363.1,5447.14
10368.8,5447.99
10374.4,5449.39
10379.9,5451.35
10385.1,5453.82
10390.1,5456.8
10394.7,5460.26
10399,5464.15
10402.9,5468.44
10406.4,5473.1
10409.4,5478.07
10411.8,5483.31
10413.8,5488.76
10415.2,5494.38
10416.1,5500.12
10416.3,5505.91
10416.3,6194.88
10416.1,6200.67
10415.2,6206.4
10413.8,6212.03
10411.8,6217.48
10409.4,6222.72
10406.4,6227.69
10402.9,6232.35
10399,6236.64
10394.7,6240.53
10390.1,6243.98
10385.1,6246.96
10379.9,6249.44
10374.4,6251.39
10368.8,6252.8
10363.1,6253.65
10357.3,6253.94
10239.2,6253.94
10233.4,6253.65
10227.7,6252.8
10222,6251.39
10216.6,6249.44
10211.3,6246.96
10206.4,6243.98
10201.7,6240.53
10197.4,6236.64
10193.5,6232.35
10190.1,6227.69
10187.1,6222.72
10184.6,6217.48
10182.7,6212.03
10181.3,6206.4
10180.4,6200.67
10180.1,6194.88
10180.1,5505.91
10180.4,5500.12
10181.3,5494.38
10182.7,5488.76
10184.6,5483.31
10187.1,5478.07
10190.1,5473.1
10193.5,5468.44
10197.4,5464.15
10201.7,5460.26
10206.4,5456.8
10211.3,5453.82
10216.6,5451.35
10222,5449.39
10227.7,5447.99
10233.4,5447.14
10239.2,5446.85
10357.3,5446.85
Z" /> 
<path style="fill:#000000; fill-opacity:1.0; 
stroke:#000000; stroke-width:0; stroke-opacity:1; 
stroke-linecap:round; stroke-linejoin:round;fill-rule:evenodd;"
d="M 9863.07,5447.14
9868.8,5447.99
9874.43,5449.39
9879.88,5451.35
9885.12,5453.82
9890.09,5456.8
9894.75,5460.26
9899.04,5464.15
9902.93,5468.44
9906.39,5473.1
9909.37,5478.07
9911.84,5483.31
9913.8,5488.76
9915.2,5494.38
9916.05,5500.12
9916.34,5505.91
9916.34,6194.88
9916.05,6200.67
9915.2,6206.4
9913.8,6212.03
9911.84,6217.48
9909.37,6222.72
9906.39,6227.69
9902.93,6232.35
9899.04,6236.64
9894.75,6240.53
9890.09,6243.98
9885.12,6246.96
9879.88,6249.44
9874.43,6251.39
9868.8,6252.8
9863.07,6253.65
9857.28,6253.94
9739.17,6253.94
9733.38,6253.65
9727.65,6252.8
9722.03,6251.39
9716.57,6249.44
9711.33,6246.96
9706.36,6243.98
9701.71,6240.53
9697.41,6236.64
9693.52,6232.35
9690.07,6227.69
9687.09,6222.72
9684.61,6217.48
9682.66,6212.03
9681.25,6206.4
9680.4,6200.67
9680.12,6194.88
9680.12,5505.91
9680.4,5500.12
9681.25,5494.38
9682.66,5488.76
9684.61,5483.31
9687.09,5478.07
9690.07,5473.1
9693.52,5468.44
9697.41,5464.15
9701.71,5460.26
9706.36,5456.8
9711.33,5453.82
9716.57,5451.35
9722.03,5449.39
9727.65,5447.99
9733.38,5447.14
9739.17,5446.85
9857.28,5446.85
Z" /> 
<path style="fill:#000000; fill-opacity:1.0; 
stroke:#000000; stroke-width:0; stroke-opacity:1; 
stroke-linecap:round; stroke-linejoin:round;fill-rule:evenodd;"
d="M 9363.07,5447.14
9368.8,5447.99
9374.43,5449.39
9379.88,5451.35
9385.12,5453.82
9390.09,5456.8
9394.75,5460.26
9399.04,5464.15
9402.93,5468.44
9406.39,5473.1
9409.37,5478.07
9411.84,5483.31
9413.8,5488.76
9415.2,5494.38
9416.05,5500.12
9416.34,5505.91
9416.34,6194.88
9416.05,6200.67
9415.2,6206.4
9413.8,6212.03
9411.84,6217.48
9409.37,6222.72
9406.39,6227.69
9402.93,6232.35
9399.04,6236.64
9394.75,6240.53
9390.09,6243.98
9385.12,6246.96
9379.88,6249.44
9374.43,6251.39
9368.8,6252.8
9363.07,6253.65
9357.28,6253.94
9239.17,6253.94
9233.38,6253.65
9227.65,6252.8
9222.03,6251.39
9216.57,6249.44
9211.33,6246.96
9206.36,6243.98
9201.71,6240.53
9197.41,6236.64
9193.52,6232.35
9190.07,6227.69
9187.09,6222.72
9184.61,6217.48
9182.66,6212.03
9181.25,6206.4
9180.4,6200.67
9180.12,6194.88
9180.12,5505.91
9180.4,5500.12
9181.25,5494.38
9182.66,5488.76
9184.61,5483.31
9187.09,5478.07
9190.07,5473.1
9193.52,5468.44
9197.41,5464.15
9201.71,5460.26
9206.36,5456.8
9211.33,5453.82
9216.57,5451.35
9222.03,5449.39
9227.65,5447.99
9233.38,5447.14
9239.17,5446.85
9357.28,5446.85
Z" /> 
<path style="fill:#000000; fill-opacity:1.0; 
stroke:#000000; stroke-width:0; stroke-opacity:1; 
stroke-linecap:round; stroke-linejoin:round;fill-rule:evenodd;"
d="M 8863.07,5447.14
8868.8,5447.99
8874.43,5449.39
8879.88,5451.35
8885.12,5453.82
8890.09,5456.8
8894.75,5460.26
8899.04,5464.15
8902.93,5468.44
8906.39,5473.1
8909.37,5478.07
8911.84,5483.31
8913.8,5488.76
8915.2,5494.38
8916.05,5500.12
8916.34,5505.91
8916.34,6194.88
8916.05,6200.67
8915.2,6206.4
8913.8,6212.03
8911.84,6217.48
8909.37,6222.72
8906.39,6227.69
8902.93,6232.35
8899.04,6236.64
8894.75,6240.53
8890.09,6243.98
8885.12,6246.96
8879.88,6249.44
8874.43,6251.39
8868.8,6252.8
8863.07,6253.65
8857.28,6253.94
8739.17,6253.94
8733.38,6253.65
8727.65,6252.8
8722.03,6251.39
8716.57,6249.44
8711.33,6246.96
8706.36,6243.98
8701.71,6240.53
8697.41,6236.64
8693.52,6232.35
8690.07,6227.69
8687.09,6222.72
8684.61,6217.48
8682.66,6212.03
8681.25,6206.4
8680.4,6200.67
8680.12,6194.88
8680.12,5505.91
8680.4,5500.12
8681.25,5494.38
8682.66,5488.76
8684.61,5483.31
8687.09,5478.07
8690.07,5473.1
8693.52,5468.44
8697.41,5464.15
8701.71,5460.26
8706.36,5456.8
8711.33,5453.82
8716.57,5451.35
8722.03,5449.39
8727.65,5447.99
8733.38,5447.14
8739.17,5446.85
8857.28,5446.85
Z" /> 
<path style="fill:#000000; fill-opacity:1.0; 
stroke:#000000; stroke-width:0; stroke-opacity:1; 
stroke-linecap:round; stroke-linejoin:round;fill-rule:evenodd;"
d="M 8363.07,5447.14
8368.8,5447.99
8374.43,5449.39
8379.88,5451.35
8385.12,5453.82
8390.09,5456.8
8394.75,5460.26
8399.04,5464.15
8402.93,5468.44
8406.39,5473.1
8409.37,5478.07
8411.84,5483.31
8413.8,5488.76
8415.2,5494.38
8416.05,5500.12
8416.34,5505.91
8416.34,6194.88
8416.05,6200.67
8415.2,6206.4
8413.8,6212.03
8411.84,6217.48
8409.37,6222.72
8406.39,6227.69
8402.93,6232.35
8399.04,6236.64
8394.75,6240.53
8390.09,6243.98
8385.12,6246.96
8379.88,6249.44
8374.43,6251.39
8368.8,6252.8
8363.07,6253.65
8357.28,6253.94
8239.17,6253.94
8233.38,6253.65
8227.65,6252.8
8222.03,6251.39
8216.57,6249.44
8211.33,6246.96
8206.36,6243.98
8201.71,6240.53
8197.41,6236.64
8193.52,6232.35
8190.07,6227.69
8187.09,6222.72
8184.61,6217.48
8182.66,6212.03
8181.25,6206.4
8180.4,6200.67
8180.12,6194.88
8180.12,5505.91
8180.4,5500.12
8181.25,5494.38
8182.66,5488.76
8184.61,5483.31
8187.09,5478.07
8190.07,5473.1
8193.52,5468.44
8197.41,5464.15
8201.71,5460.26
8206.36,5456.8
8211.33,5453.82
8216.57,5451.35
8222.03,5449.39
8227.65,5447.99
8233.38,5447.14
8239.17,5446.85
8357.28,5446.85
Z" /> 
<path style="fill:#000000; fill-opacity:1.0; 
stroke:#000000; stroke-width:0; stroke-opacity:1; 
stroke-linecap:round; stroke-linejoin:round;fill-rule:evenodd;"
d="M 7863.07,5447.14
7868.8,5447.99
7874.43,5449.39
7879.88,5451.35
7885.12,5453.82
7890.09,5456.8
7894.75,5460.26
7899.04,5464.15
7902.93,5468.44
7906.39,5473.1
7909.37,5478.07
7911.84,5483.31
7913.8,5488.76
7915.2,5494.38
7916.05,5500.12
7916.34,5505.91
7916.34,6194.88
7916.05,6200.67
7915.2,6206.4
7913.8,6212.03
7911.84,6217.48
7909.37,6222.72
7906.39,6227.69
7902.93,6232.35
7899.04,6236.64
7894.75,6240.53
7890.09,6243.98
7885.12,6246.96
7879.88,6249.44
7874.43,6251.39
7868.8,6252.8
7863.07,6253.65
7857.28,6253.94
7739.17,6253.94
7733.38,6253.65
7727.65,6252.8
7722.03,6251.39
7716.57,6249.44
7711.33,6246.96
7706.36,6243.98
7701.71,6240.53
7697.41,6236.64
7693.52,6232.35
7690.07,6227.69
7687.09,6222.72
7684.61,6217.48
7682.66,6212.03
7681.25,6206.4
7680.4,6200.67
7680.12,6194.88
7680.12,5505.91
7680.4,5500.12
7681.25,5494.38
7682.66,5488.76
7684.61,5483.31
7687.09,5478.07
7690.07,5473.1
7693.52,5468.44
7697.41,5464.15
7701.71,5460.26
7706.36,5456.8
7711.33,5453.82
7716.57,5451.35
7722.03,5449.39
7727.65,5447.99
7733.38,5447.14
7739.17,5446.85
7857.28,5446.85
Z" /> 
<path style="fill:#000000; fill-opacity:1.0; 
stroke:#000000; stroke-width:0; stroke-opacity:1; 
stroke-linecap:round; stroke-linejoin:round;fill-rule:evenodd;"
d="M 7363.07,5447.14
7368.8,5447.99
7374.43,5449.39
7379.88,5451.35
7385.12,5453.82
7390.09,5456.8
7394.75,5460.26
7399.04,5464.15
7402.93,5468.44
7406.39,5473.1
7409.37,5478.07
7411.84,5483.31
7413.8,5488.76
7415.2,5494.38
7416.05,5500.12
7416.34,5505.91
7416.34,6194.88
7416.05,6200.67
7415.2,6206.4
7413.8,6212.03
7411.84,6217.48
7409.37,6222.72
7406.39,6227.69
7402.93,6232.35
7399.04,6236.64
7394.75,6240.53
7390.09,6243.98
7385.12,6246.96
7379.88,6249.44
7374.43,6251.39
7368.8,6252.8
7363.07,6253.65
7357.28,6253.94
7239.17,6253.94
7233.38,6253.65
7227.65,6252.8
7222.03,6251.39
7216.57,6249.44
7211.33,6246.96
7206.36,6243.98
7201.71,6240.53
7197.41,6236.64
7193.52,6232.35
7190.07,6227.69
7187.09,6222.72
7184.61,6217.48
7182.66,6212.03
7181.25,6206.4
7180.4,6200.67
7180.12,6194.88
7180.12,5505.91
7180.4,5500.12
7181.25,5494.38
7182.66,5488.76
7184.61,5483.31
7187.09,5478.07
7190.07,5473.1
7193.52,5468.44
7197.41,5464.15
7201.71,5460.26
7206.36,5456.8
7211.33,5453.82
7216.57,5451.35
7222.03,5449.39
7227.65,5447.99
7233.38,5447.14
7239.17,5446.85
7357.28,5446.85
Z" /> 
<path style="fill:#000000; fill-opacity:1.0; 
stroke:#000000; stroke-width:0; stroke-opacity:1; 
stroke-linecap:round; stroke-linejoin:round;fill-rule:evenodd;"
d="M 6863.07,5447.14
6868.8,5447.99
6874.43,5449.39
6879.88,5451.35
6885.12,5453.82
6890.09,5456.8
6894.75,5460.26
6899.04,5464.15
6902.93,5468.44
6906.39,5473.1
6909.37,5478.07
6911.84,5483.31
6913.8,5488.76
6915.2,5494.38
6916.05,5500.12
6916.34,5505.91
6916.34,6194.88
6916.05,6200.67
6915.2,6206.4
6913.8,6212.03
6911.84,6217.48
6909.37,6222.72
6906.39,6227.69
6902.93,6232.35
6899.04,6236.64
6894.75,6240.53
6890.09,6243.98
6885.12,6246.96
6879.88,6249.44
6874.43,6251.39
6868.8,6252.8
6863.07,6253.65
6857.28,6253.94
6739.17,6253.94
6733.38,6253.65
6727.65,6252.8
6722.03,6251.39
6716.57,6249.44
6711.33,6246.96
6706.36,6243.98
6701.71,6240.53
6697.41,6236.64
6693.52,6232.35
6690.07,6227.69
6687.09,6222.72
6684.61,6217.48
6682.66,6212.03
6681.25,6206.4
6680.4,6200.67
6680.12,6194.88
6680.12,5505.91
6680.4,5500.12
6681.25,5494.38
6682.66,5488.76
6684.61,5483.31
6687.09,5478.07
6690.07,5473.1
6693.52,5468.44
6697.41,5464.15
6701.71,5460.26
6706.36,5456.8
6711.33,5453.82
6716.57,5451.35
6722.03,5449.39
6727.65,5447.99
6733.38,5447.14
6739.17,5446.85
6857.28,5446.85
Z" /> 
<path style="fill:#000000; fill-opacity:1.0; 
stroke:#000000; stroke-width:0; stroke-opacity:1; 
stroke-linecap:round; stroke-linejoin:round;fill-rule:evenodd;"
d="M 6363.07,5447.14
6368.8,5447.99
6374.43,5449.39
6379.88,5451.35
6385.12,5453.82
6390.09,5456.8
6394.75,5460.26
6399.04,5464.15
6402.93,5468.44
6406.39,5473.1
6409.37,5478.07
6411.84,5483.31
6413.8,5488.76
6415.2,5494.38
6416.05,5500.12
6416.34,5505.91
6416.34,6194.88
6416.05,6200.67
6415.2,6206.4
6413.8,6212.03
6411.84,6217.48
6409.37,6222.72
6406.39,6227.69
6402.93,6232.35
6399.04,6236.64
6394.75,6240.53
6390.09,6243.98
6385.12,6246.96
6379.88,6249.44
6374.43,6251.39
6368.8,6252.8
6363.07,6253.65
6357.28,6253.94
6239.17,6253.94
6233.38,6253.65
6227.65,6252.8
6222.03,6251.39
6216.57,6249.44
6211.33,6246.96
6206.36,6243.98
6201.71,6240.53
6197.41,6236.64
6193.52,6232.35
6190.07,6227.69
6187.09,6222.72
6184.61,6217.48
6182.66,6212.03
6181.25,6206.4
6180.4,6200.67
6180.12,6194.88
6180.12,5505.91
6180.4,5500.12
6181.25,5494.38
6182.66,5488.76
6184.61,5483.31
6187.09,5478.07
6190.07,5473.1
6193.52,5468.44
6197.41,5464.15
6201.71,5460.26
6206.36,5456.8
6211.33,5453.82
6216.57,5451.35
6222.03,5449.39
6227.65,5447.99
6233.38,5447.14
6239.17,5446.85
6357.28,5446.85
Z" /> 
</g>
<g >
</g>
<g style="fill:#000000; fill-opacity:1.0; 
stroke:#000000; stroke-width:0; stroke-opacity:1; 
stroke-linecap:round; stroke-linejoin:round;">
<path style="fill:#000000; fill-opacity:1.0; 
stroke:#000000; stroke-width:0; stroke-opacity:1; 
stroke-linecap:round; stroke-linejoin:round;fill-rule:evenodd;"
d="M 5152.23,3533.19
4444.23,3533.19
4444.23,2904.19
5152.23,2904.19
Z" /> 
<path style="fill:#000000; fill-opacity:1.0; 
stroke:#000000; stroke-width:0; stroke-opacity:1; 
stroke-linecap:round; stroke-linejoin:round;fill-rule:evenodd;"
d="M 5152.23,4635.19
4444.23,4635.19
4444.23,4006.19
5152.23,4006.19
Z" /> 
</g>
<g >
</g>
<g >
</g>
<g style="fill:#000000; fill-opacity:1.0; 
stroke:#000000; stroke-width:0; stroke-opacity:1; 
stroke-linecap:round; stroke-linejoin:round;">
</g>
<g style="fill:#000000; fill-opacity:1.0; 
stroke:#000000; stroke-width:196.85; stroke-opacity:1; 
stroke-linecap:round; stroke-linejoin:round;">
</g>
<g style="fill:#000000; fill-opacity:0.0; 
stroke:#000000; stroke-width:196.85; stroke-opacity:1; 
stroke-linecap:round; stroke-linejoin:round;">
<path d="M6298 2188
L6298 3269
" />
<path d="M2798 4269
L3298 4269
" />
<path d="M3298 4269
L3798 3769
" />
<path d="M3798 3769
L3798 3519
" />
<path d="M4099 3218
L4798 3218
" />
<path d="M3798 3519
L4099 3218
" />
<path d="M13048 1519
L13548 1519
" />
<path d="M13298 1519
L13074 1743
" />
<path d="M4849 3269
L4798 3218
" />
<path d="M6298 3269
L4849 3269
" />
<path d="M11298 3269
L6298 3269
" />
<path d="M11798 2769
L11298 3269
" />
<path d="M11798 2269
L11798 2769
" />
<path d="M12548 1519
L11798 2269
" />
<path d="M13298 1519
L12548 1519
" />
<path d="M3849 5269
L4798 4320
" />
<path d="M2798 5269
L3849 5269
" />
<path d="M6247 5799
L6298 5850
" />
<path d="M6247 4320
L6247 5799
" />
<path d="M11747 4320
L12548 3519
" />
<path d="M6349 4320
L4798 4320
" />
<path d="M6247 4320
L6349 4320
" />
<path d="M6349 4320
L11747 4320
" />
<path d="M12548 3519
L13298 3519
" />
<path d="M2798 3269
L4798 1269
" />
<path d="M8298 2188
L8298 1519
" />
<path d="M8048 1269
L4798 1269
" />
<path d="M8298 1519
L8048 1269
" />
<path d="M10298 5850
L10298 6519
" />
<path d="M10298 6519
L10548 6769
" />
<path d="M10548 6769
L11298 6769
" />
<path d="M12548 5519
L13298 5519
" />
<path d="M11298 6769
L12548 5519
" />
<path d="M9798 5850
L9798 5019
" />
<path d="M13048 4519
L13548 4519
" />
<path d="M12548 4519
L12048 5019
" />
<path d="M13298 4519
L12548 4519
" />
<path d="M9798 5019
L12048 5019
" />
</g>
<g >
</g>
</g>
<g style="fill:#FFFFFF; fill-opacity:0.0; 
stroke:#FFFFFF; stroke-width:196.85; stroke-opacity:1; 
stroke-linecap:round; stroke-linejoin:round;">
</g>
<g style="fill:#000000; fill-opacity:0.0; 
stroke:#000000; stroke-width:196.85; stroke-opacity:1; 
stroke-linecap:round; stroke-linejoin:round;">
</g> 
</svg>
