<?xml version="1.0" standalone="no"?>
 <!DOCTYPE svg PUBLIC "-//W3C//DTD SVG 1.1//EN" 
 "http://www.w3.org/Graphics/SVG/1.1/DTD/svg11.dtd"> 
<svg
  xmlns:svg="http://www.w3.org/2000/svg"
  xmlns="http://www.w3.org/2000/svg"
  xmlns:xlink="http://www.w3.org/1999/xlink"
  version="1.1"
  width="4.018280cm" height="2.039620cm" viewBox="0 0 15820 8030">
<title>SVG Picture created as hello.t1616.echo-Dwgs_User.svg date 2021/03/01 22:44:46 </title>
  <desc>Picture generated by PCBNEW </desc>
<g style="fill:#000000; fill-opacity:1;stroke:#000000; stroke-opacity:1;
stroke-linecap:round; stroke-linejoin:round;"
 transform="translate(0 0) scale(1 1)">
</g>
<g style="fill:#000000; fill-opacity:0.0; 
stroke:#000000; stroke-width:-0.000393701; stroke-opacity:1; 
stroke-linecap:round; stroke-linejoin:round;">
</g>
<g style="fill:#000000; fill-opacity:0.0; 
stroke:#000000; stroke-width:59.0551; stroke-opacity:1; 
stroke-linecap:round; stroke-linejoin:round;">
<text x="1548.23" y="7064.96"
textLength="1815.24" font-size="787.402" lengthAdjust="spacingAndGlyphs"
text-anchor="middle" opacity="0">VCC</text>
<path d="M760 6446
L957 7036
L1154 6446
" />
<path d="M1688 6980
L1660 7008
L1576 7036
L1520 7036
L1435 7008
L1379 6952
L1351 6896
L1323 6783
L1323 6699
L1351 6586
L1379 6530
L1435 6474
L1520 6446
L1576 6446
L1660 6474
L1688 6502
" />
<path d="M2279 6980
L2251 7008
L2166 7036
L2110 7036
L2026 7008
L1970 6952
L1941 6896
L1913 6783
L1913 6699
L1941 6586
L1970 6530
L2026 6474
L2110 6446
L2166 6446
L2251 6474
L2279 6502
" />
</g>
<g style="fill:#000000; fill-opacity:0.0; 
stroke:#000000; stroke-width:39.3701; stroke-opacity:1; 
stroke-linecap:round; stroke-linejoin:round;">
</g>
<g style="fill:#000000; fill-opacity:1.0; 
stroke:#000000; stroke-width:39.3701; stroke-opacity:1; 
stroke-linecap:round; stroke-linejoin:round;">
<path style="fill:#000000; fill-opacity:1.0; 
stroke:#000000; stroke-width:39.3701; stroke-opacity:1; 
stroke-linecap:round; stroke-linejoin:round;fill-rule:evenodd;"
d="M 15048.2,7519.69
798.228,7519.69
798.228,519.685
15048.2,519.685
Z" /> 
<g >
</g>
<g >
</g>
<g >
</g>
<g >
</g>
<g >
</g>
</g> 
</svg>
