<?xml version="1.0" standalone="no"?>
 <!DOCTYPE svg PUBLIC "-//W3C//DTD SVG 1.1//EN" 
 "http://www.w3.org/Graphics/SVG/1.1/DTD/svg11.dtd"> 
<svg
  xmlns:svg="http://www.w3.org/2000/svg"
  xmlns="http://www.w3.org/2000/svg"
  xmlns:xlink="http://www.w3.org/1999/xlink"
  version="1.1"
  width="4.671060cm" height="2.034540cm" viewBox="0 0 18390 8010">
<title>SVG Picture created as hello.t1616.echo-F_Cu.svg date 2021/03/03 14:03:31 </title>
  <desc>Picture generated by PCBNEW </desc>
<g style="fill:#000000; fill-opacity:1;stroke:#000000; stroke-opacity:1;
stroke-linecap:round; stroke-linejoin:round;"
 transform="translate(0 0) scale(1 1)">
</g>
<g style="fill:#000000; fill-opacity:0.0; 
stroke:#000000; stroke-width:-0.000393701; stroke-opacity:1; 
stroke-linecap:round; stroke-linejoin:round;">
</g>
<g style="fill:#000000; fill-opacity:0.0; 
stroke:#000000; stroke-width:118.11; stroke-opacity:1; 
stroke-linecap:round; stroke-linejoin:round;">
<text x="13048.2" y="1305.12"
textLength="2591.63" font-size="1049.87" lengthAdjust="spacingAndGlyphs"
text-anchor="middle" opacity="0">GND</text>
<path d="M12448 714
L12373 686
L12260 686
L12148 714
L12073 770
L12035 827
L11998 939
L11998 1023
L12035 1136
L12073 1192
L12148 1248
L12260 1276
L12335 1276
L12448 1248
L12485 1220
L12485 1023
L12335 1023
" />
<path d="M12823 1276
L12823 686
L13273 1276
L13273 686
" />
<path d="M13648 1276
L13648 686
L13835 686
L13948 714
L14023 770
L14060 827
L14098 939
L14098 1023
L14060 1136
L14023 1192
L13948 1248
L13835 1276
L13648 1276
" />
<text x="2798.23" y="7055.12"
textLength="2403.26" font-size="1049.87" lengthAdjust="spacingAndGlyphs"
text-anchor="middle" opacity="0">VCC</text>
<path d="M1748 6436
L2010 7026
L2273 6436
" />
<path d="M2985 6970
L2948 6998
L2835 7026
L2760 7026
L2648 6998
L2573 6942
L2535 6886
L2498 6773
L2498 6689
L2535 6577
L2573 6520
L2648 6464
L2760 6436
L2835 6436
L2948 6464
L2985 6492
" />
<path d="M3773 6970
L3735 6998
L3623 7026
L3548 7026
L3435 6998
L3360 6942
L3323 6886
L3285 6773
L3285 6689
L3323 6577
L3360 6520
L3435 6464
L3548 6436
L3623 6436
L3735 6464
L3773 6492
" />
</g>
<g style="fill:#000000; fill-opacity:0.0; 
stroke:#000000; stroke-width:147.638; stroke-opacity:1; 
stroke-linecap:round; stroke-linejoin:round;">
<text x="3048.23" y="1555.12"
textLength="2928.2" font-size="1049.87" lengthAdjust="spacingAndGlyphs"
text-anchor="middle" opacity="0">UPDI</text>
<path d="M1848 936
L1848 1414
L1885 1470
L1923 1498
L1998 1526
L2148 1526
L2223 1498
L2260 1470
L2298 1414
L2298 936
" />
<path d="M2673 1526
L2673 936
L2973 936
L3048 964
L3085 992
L3123 1048
L3123 1133
L3085 1189
L3048 1217
L2973 1245
L2673 1245
" />
<path d="M3460 1526
L3460 936
L3648 936
L3760 964
L3835 1020
L3873 1077
L3910 1189
L3910 1273
L3873 1386
L3835 1442
L3760 1498
L3648 1526
L3460 1526
" />
<path d="M4248 1526
L4248 936
" />
<g >
</g>
<g style="fill:#000000; fill-opacity:0.0; 
stroke:#000000; stroke-width:0; stroke-opacity:1; 
stroke-linecap:round; stroke-linejoin:round;">
</g>
<g style="fill:#000000; fill-opacity:1.0; 
stroke:#000000; stroke-width:0; stroke-opacity:1; 
stroke-linecap:round; stroke-linejoin:round;">
<path style="fill:#000000; fill-opacity:1.0; 
stroke:#000000; stroke-width:0; stroke-opacity:1; 
stroke-linecap:round; stroke-linejoin:round;fill-rule:evenodd;"
d="M 14556.1,6844.49
14556.1,6175.2
15540.4,6175.2
15540.4,6844.49
Z" /> 
<path style="fill:#000000; fill-opacity:1.0; 
stroke:#000000; stroke-width:0; stroke-opacity:1; 
stroke-linecap:round; stroke-linejoin:round;fill-rule:evenodd;"
d="M 14556.1,5844.49
14556.1,5175.2
15540.4,5175.2
15540.4,5844.49
Z" /> 
<path style="fill:#000000; fill-opacity:1.0; 
stroke:#000000; stroke-width:0; stroke-opacity:1; 
stroke-linecap:round; stroke-linejoin:round;fill-rule:evenodd;"
d="M 14556.1,4844.49
14556.1,4175.2
15540.4,4175.2
15540.4,4844.49
Z" /> 
<path style="fill:#000000; fill-opacity:1.0; 
stroke:#000000; stroke-width:0; stroke-opacity:1; 
stroke-linecap:round; stroke-linejoin:round;fill-rule:evenodd;"
d="M 14556.1,3844.49
14556.1,3175.2
15540.4,3175.2
15540.4,3844.49
Z" /> 
<path style="fill:#000000; fill-opacity:1.0; 
stroke:#000000; stroke-width:0; stroke-opacity:1; 
stroke-linecap:round; stroke-linejoin:round;fill-rule:evenodd;"
d="M 14556.1,2844.49
14556.1,2175.2
15540.4,2175.2
15540.4,2844.49
Z" /> 
<path style="fill:#000000; fill-opacity:1.0; 
stroke:#000000; stroke-width:0; stroke-opacity:1; 
stroke-linecap:round; stroke-linejoin:round;fill-rule:evenodd;"
d="M 14556.1,1844.49
14556.1,1175.2
15540.4,1175.2
15540.4,1844.49
Z" /> 
</g>
<g >
</g>
<g style="fill:#000000; fill-opacity:1.0; 
stroke:#000000; stroke-width:0; stroke-opacity:1; 
stroke-linecap:round; stroke-linejoin:round;">
<path style="fill:#000000; fill-opacity:1.0; 
stroke:#000000; stroke-width:0; stroke-opacity:1; 
stroke-linecap:round; stroke-linejoin:round;fill-rule:evenodd;"
d="M 4040.35,2675.2
4040.35,3344.49
3056.1,3344.49
3056.1,2675.2
Z" /> 
<path style="fill:#000000; fill-opacity:1.0; 
stroke:#000000; stroke-width:0; stroke-opacity:1; 
stroke-linecap:round; stroke-linejoin:round;fill-rule:evenodd;"
d="M 4040.35,3675.2
4040.35,4344.49
3056.1,4344.49
3056.1,3675.2
Z" /> 
<path style="fill:#000000; fill-opacity:1.0; 
stroke:#000000; stroke-width:0; stroke-opacity:1; 
stroke-linecap:round; stroke-linejoin:round;fill-rule:evenodd;"
d="M 4040.35,4675.2
4040.35,5344.49
3056.1,5344.49
3056.1,4675.2
Z" /> 
</g>
<g >
</g>
<g style="fill:#000000; fill-opacity:1.0; 
stroke:#000000; stroke-width:0; stroke-opacity:1; 
stroke-linecap:round; stroke-linejoin:round;">
<path style="fill:#000000; fill-opacity:1.0; 
stroke:#000000; stroke-width:0; stroke-opacity:1; 
stroke-linecap:round; stroke-linejoin:round;fill-rule:evenodd;"
d="M 8113.07,1775.88
8118.8,1776.73
8124.43,1778.13
8129.88,1780.09
8135.12,1782.56
8140.09,1785.54
8144.75,1789
8149.04,1792.89
8152.93,1797.18
8156.39,1801.84
8159.37,1806.81
8161.84,1812.05
8163.8,1817.5
8165.2,1823.12
8166.05,1828.86
8166.34,1834.65
8166.34,2523.62
8166.05,2529.41
8165.2,2535.14
8163.8,2540.77
8161.84,2546.22
8159.37,2551.46
8156.39,2556.43
8152.93,2561.09
8149.04,2565.38
8144.75,2569.27
8140.09,2572.72
8135.12,2575.7
8129.88,2578.18
8124.43,2580.13
8118.8,2581.54
8113.07,2582.39
8107.28,2582.68
7989.17,2582.68
7983.38,2582.39
7977.65,2581.54
7972.03,2580.13
7966.57,2578.18
7961.33,2575.7
7956.36,2572.72
7951.71,2569.27
7947.41,2565.38
7943.52,2561.09
7940.07,2556.43
7937.09,2551.46
7934.61,2546.22
7932.66,2540.77
7931.25,2535.14
7930.4,2529.41
7930.12,2523.62
7930.12,1834.65
7930.4,1828.86
7931.25,1823.12
7932.66,1817.5
7934.61,1812.05
7937.09,1806.81
7940.07,1801.84
7943.52,1797.18
7947.41,1792.89
7951.71,1789
7956.36,1785.54
7961.33,1782.56
7966.57,1780.09
7972.03,1778.13
7977.65,1776.73
7983.38,1775.88
7989.17,1775.59
8107.28,1775.59
Z" /> 
<path style="fill:#000000; fill-opacity:1.0; 
stroke:#000000; stroke-width:0; stroke-opacity:1; 
stroke-linecap:round; stroke-linejoin:round;fill-rule:evenodd;"
d="M 8613.07,1775.88
8618.8,1776.73
8624.43,1778.13
8629.88,1780.09
8635.12,1782.56
8640.09,1785.54
8644.75,1789
8649.04,1792.89
8652.93,1797.18
8656.39,1801.84
8659.37,1806.81
8661.84,1812.05
8663.8,1817.5
8665.2,1823.12
8666.05,1828.86
8666.34,1834.65
8666.34,2523.62
8666.05,2529.41
8665.2,2535.14
8663.8,2540.77
8661.84,2546.22
8659.37,2551.46
8656.39,2556.43
8652.93,2561.09
8649.04,2565.38
8644.75,2569.27
8640.09,2572.72
8635.12,2575.7
8629.88,2578.18
8624.43,2580.13
8618.8,2581.54
8613.07,2582.39
8607.28,2582.68
8489.17,2582.68
8483.38,2582.39
8477.65,2581.54
8472.03,2580.13
8466.57,2578.18
8461.33,2575.7
8456.36,2572.72
8451.71,2569.27
8447.41,2565.38
8443.52,2561.09
8440.07,2556.43
8437.09,2551.46
8434.61,2546.22
8432.66,2540.77
8431.25,2535.14
8430.4,2529.41
8430.12,2523.62
8430.12,1834.65
8430.4,1828.86
8431.25,1823.12
8432.66,1817.5
8434.61,1812.05
8437.09,1806.81
8440.07,1801.84
8443.52,1797.18
8447.41,1792.89
8451.71,1789
8456.36,1785.54
8461.33,1782.56
8466.57,1780.09
8472.03,1778.13
8477.65,1776.73
8483.38,1775.88
8489.17,1775.59
8607.28,1775.59
Z" /> 
<path style="fill:#000000; fill-opacity:1.0; 
stroke:#000000; stroke-width:0; stroke-opacity:1; 
stroke-linecap:round; stroke-linejoin:round;fill-rule:evenodd;"
d="M 9113.07,1775.88
9118.8,1776.73
9124.43,1778.13
9129.88,1780.09
9135.12,1782.56
9140.09,1785.54
9144.75,1789
9149.04,1792.89
9152.93,1797.18
9156.39,1801.84
9159.37,1806.81
9161.84,1812.05
9163.8,1817.5
9165.2,1823.12
9166.05,1828.86
9166.34,1834.65
9166.34,2523.62
9166.05,2529.41
9165.2,2535.14
9163.8,2540.77
9161.84,2546.22
9159.37,2551.46
9156.39,2556.43
9152.93,2561.09
9149.04,2565.38
9144.75,2569.27
9140.09,2572.72
9135.12,2575.7
9129.88,2578.18
9124.43,2580.13
9118.8,2581.54
9113.07,2582.39
9107.28,2582.68
8989.17,2582.68
8983.38,2582.39
8977.65,2581.54
8972.03,2580.13
8966.57,2578.18
8961.33,2575.7
8956.36,2572.72
8951.71,2569.27
8947.41,2565.38
8943.52,2561.09
8940.07,2556.43
8937.09,2551.46
8934.61,2546.22
8932.66,2540.77
8931.25,2535.14
8930.4,2529.41
8930.12,2523.62
8930.12,1834.65
8930.4,1828.86
8931.25,1823.12
8932.66,1817.5
8934.61,1812.05
8937.09,1806.81
8940.07,1801.84
8943.52,1797.18
8947.41,1792.89
8951.71,1789
8956.36,1785.54
8961.33,1782.56
8966.57,1780.09
8972.03,1778.13
8977.65,1776.73
8983.38,1775.88
8989.17,1775.59
9107.28,1775.59
Z" /> 
<path style="fill:#000000; fill-opacity:1.0; 
stroke:#000000; stroke-width:0; stroke-opacity:1; 
stroke-linecap:round; stroke-linejoin:round;fill-rule:evenodd;"
d="M 9613.07,1775.88
9618.8,1776.73
9624.43,1778.13
9629.88,1780.09
9635.12,1782.56
9640.09,1785.54
9644.75,1789
9649.04,1792.89
9652.93,1797.18
9656.39,1801.84
9659.37,1806.81
9661.84,1812.05
9663.8,1817.5
9665.2,1823.12
9666.05,1828.86
9666.34,1834.65
9666.34,2523.62
9666.05,2529.41
9665.2,2535.14
9663.8,2540.77
9661.84,2546.22
9659.37,2551.46
9656.39,2556.43
9652.93,2561.09
9649.04,2565.38
9644.75,2569.27
9640.09,2572.72
9635.12,2575.7
9629.88,2578.18
9624.43,2580.13
9618.8,2581.54
9613.07,2582.39
9607.28,2582.68
9489.17,2582.68
9483.38,2582.39
9477.65,2581.54
9472.03,2580.13
9466.57,2578.18
9461.33,2575.7
9456.36,2572.72
9451.71,2569.27
9447.41,2565.38
9443.52,2561.09
9440.07,2556.43
9437.09,2551.46
9434.61,2546.22
9432.66,2540.77
9431.25,2535.14
9430.4,2529.41
9430.12,2523.62
9430.12,1834.65
9430.4,1828.86
9431.25,1823.12
9432.66,1817.5
9434.61,1812.05
9437.09,1806.81
9440.07,1801.84
9443.52,1797.18
9447.41,1792.89
9451.71,1789
9456.36,1785.54
9461.33,1782.56
9466.57,1780.09
9472.03,1778.13
9477.65,1776.73
9483.38,1775.88
9489.17,1775.59
9607.28,1775.59
Z" /> 
<path style="fill:#000000; fill-opacity:1.0; 
stroke:#000000; stroke-width:0; stroke-opacity:1; 
stroke-linecap:round; stroke-linejoin:round;fill-rule:evenodd;"
d="M 10113.1,1775.88
10118.8,1776.73
10124.4,1778.13
10129.9,1780.09
10135.1,1782.56
10140.1,1785.54
10144.7,1789
10149,1792.89
10152.9,1797.18
10156.4,1801.84
10159.4,1806.81
10161.8,1812.05
10163.8,1817.5
10165.2,1823.12
10166.1,1828.86
10166.3,1834.65
10166.3,2523.62
10166.1,2529.41
10165.2,2535.14
10163.8,2540.77
10161.8,2546.22
10159.4,2551.46
10156.4,2556.43
10152.9,2561.09
10149,2565.38
10144.7,2569.27
10140.1,2572.72
10135.1,2575.7
10129.9,2578.18
10124.4,2580.13
10118.8,2581.54
10113.1,2582.39
10107.3,2582.68
9989.17,2582.68
9983.38,2582.39
9977.65,2581.54
9972.03,2580.13
9966.57,2578.18
9961.33,2575.7
9956.36,2572.72
9951.71,2569.27
9947.41,2565.38
9943.52,2561.09
9940.07,2556.43
9937.09,2551.46
9934.61,2546.22
9932.66,2540.77
9931.25,2535.14
9930.4,2529.41
9930.12,2523.62
9930.12,1834.65
9930.4,1828.86
9931.25,1823.12
9932.66,1817.5
9934.61,1812.05
9937.09,1806.81
9940.07,1801.84
9943.52,1797.18
9947.41,1792.89
9951.71,1789
9956.36,1785.54
9961.33,1782.56
9966.57,1780.09
9972.03,1778.13
9977.65,1776.73
9983.38,1775.88
9989.17,1775.59
10107.3,1775.59
Z" /> 
<path style="fill:#000000; fill-opacity:1.0; 
stroke:#000000; stroke-width:0; stroke-opacity:1; 
stroke-linecap:round; stroke-linejoin:round;fill-rule:evenodd;"
d="M 10613.1,1775.88
10618.8,1776.73
10624.4,1778.13
10629.9,1780.09
10635.1,1782.56
10640.1,1785.54
10644.7,1789
10649,1792.89
10652.9,1797.18
10656.4,1801.84
10659.4,1806.81
10661.8,1812.05
10663.8,1817.5
10665.2,1823.12
10666.1,1828.86
10666.3,1834.65
10666.3,2523.62
10666.1,2529.41
10665.2,2535.14
10663.8,2540.77
10661.8,2546.22
10659.4,2551.46
10656.4,2556.43
10652.9,2561.09
10649,2565.38
10644.7,2569.27
10640.1,2572.72
10635.1,2575.7
10629.9,2578.18
10624.4,2580.13
10618.8,2581.54
10613.1,2582.39
10607.3,2582.68
10489.2,2582.68
10483.4,2582.39
10477.7,2581.54
10472,2580.13
10466.6,2578.18
10461.3,2575.7
10456.4,2572.72
10451.7,2569.27
10447.4,2565.38
10443.5,2561.09
10440.1,2556.43
10437.1,2551.46
10434.6,2546.22
10432.7,2540.77
10431.3,2535.14
10430.4,2529.41
10430.1,2523.62
10430.1,1834.65
10430.4,1828.86
10431.3,1823.12
10432.7,1817.5
10434.6,1812.05
10437.1,1806.81
10440.1,1801.84
10443.5,1797.18
10447.4,1792.89
10451.7,1789
10456.4,1785.54
10461.3,1782.56
10466.6,1780.09
10472,1778.13
10477.7,1776.73
10483.4,1775.88
10489.2,1775.59
10607.3,1775.59
Z" /> 
<path style="fill:#000000; fill-opacity:1.0; 
stroke:#000000; stroke-width:0; stroke-opacity:1; 
stroke-linecap:round; stroke-linejoin:round;fill-rule:evenodd;"
d="M 11113.1,1775.88
11118.8,1776.73
11124.4,1778.13
11129.9,1780.09
11135.1,1782.56
11140.1,1785.54
11144.7,1789
11149,1792.89
11152.9,1797.18
11156.4,1801.84
11159.4,1806.81
11161.8,1812.05
11163.8,1817.5
11165.2,1823.12
11166.1,1828.86
11166.3,1834.65
11166.3,2523.62
11166.1,2529.41
11165.2,2535.14
11163.8,2540.77
11161.8,2546.22
11159.4,2551.46
11156.4,2556.43
11152.9,2561.09
11149,2565.38
11144.7,2569.27
11140.1,2572.72
11135.1,2575.7
11129.9,2578.18
11124.4,2580.13
11118.8,2581.54
11113.1,2582.39
11107.3,2582.68
10989.2,2582.68
10983.4,2582.39
10977.7,2581.54
10972,2580.13
10966.6,2578.18
10961.3,2575.7
10956.4,2572.72
10951.7,2569.27
10947.4,2565.38
10943.5,2561.09
10940.1,2556.43
10937.1,2551.46
10934.6,2546.22
10932.7,2540.77
10931.3,2535.14
10930.4,2529.41
10930.1,2523.62
10930.1,1834.65
10930.4,1828.86
10931.3,1823.12
10932.7,1817.5
10934.6,1812.05
10937.1,1806.81
10940.1,1801.84
10943.5,1797.18
10947.4,1792.89
10951.7,1789
10956.4,1785.54
10961.3,1782.56
10966.6,1780.09
10972,1778.13
10977.7,1776.73
10983.4,1775.88
10989.2,1775.59
11107.3,1775.59
Z" /> 
<path style="fill:#000000; fill-opacity:1.0; 
stroke:#000000; stroke-width:0; stroke-opacity:1; 
stroke-linecap:round; stroke-linejoin:round;fill-rule:evenodd;"
d="M 11613.1,1775.88
11618.8,1776.73
11624.4,1778.13
11629.9,1780.09
11635.1,1782.56
11640.1,1785.54
11644.7,1789
11649,1792.89
11652.9,1797.18
11656.4,1801.84
11659.4,1806.81
11661.8,1812.05
11663.8,1817.5
11665.2,1823.12
11666.1,1828.86
11666.3,1834.65
11666.3,2523.62
11666.1,2529.41
11665.2,2535.14
11663.8,2540.77
11661.8,2546.22
11659.4,2551.46
11656.4,2556.43
11652.9,2561.09
11649,2565.38
11644.7,2569.27
11640.1,2572.72
11635.1,2575.7
11629.9,2578.18
11624.4,2580.13
11618.8,2581.54
11613.1,2582.39
11607.3,2582.68
11489.2,2582.68
11483.4,2582.39
11477.7,2581.54
11472,2580.13
11466.6,2578.18
11461.3,2575.7
11456.4,2572.72
11451.7,2569.27
11447.4,2565.38
11443.5,2561.09
11440.1,2556.43
11437.1,2551.46
11434.6,2546.22
11432.7,2540.77
11431.3,2535.14
11430.4,2529.41
11430.1,2523.62
11430.1,1834.65
11430.4,1828.86
11431.3,1823.12
11432.7,1817.5
11434.6,1812.05
11437.1,1806.81
11440.1,1801.84
11443.5,1797.18
11447.4,1792.89
11451.7,1789
11456.4,1785.54
11461.3,1782.56
11466.6,1780.09
11472,1778.13
11477.7,1776.73
11483.4,1775.88
11489.2,1775.59
11607.3,1775.59
Z" /> 
<path style="fill:#000000; fill-opacity:1.0; 
stroke:#000000; stroke-width:0; stroke-opacity:1; 
stroke-linecap:round; stroke-linejoin:round;fill-rule:evenodd;"
d="M 12113.1,1775.88
12118.8,1776.73
12124.4,1778.13
12129.9,1780.09
12135.1,1782.56
12140.1,1785.54
12144.7,1789
12149,1792.89
12152.9,1797.18
12156.4,1801.84
12159.4,1806.81
12161.8,1812.05
12163.8,1817.5
12165.2,1823.12
12166.1,1828.86
12166.3,1834.65
12166.3,2523.62
12166.1,2529.41
12165.2,2535.14
12163.8,2540.77
12161.8,2546.22
12159.4,2551.46
12156.4,2556.43
12152.9,2561.09
12149,2565.38
12144.7,2569.27
12140.1,2572.72
12135.1,2575.7
12129.9,2578.18
12124.4,2580.13
12118.8,2581.54
12113.1,2582.39
12107.3,2582.68
11989.2,2582.68
11983.4,2582.39
11977.7,2581.54
11972,2580.13
11966.6,2578.18
11961.3,2575.7
11956.4,2572.72
11951.7,2569.27
11947.4,2565.38
11943.5,2561.09
11940.1,2556.43
11937.1,2551.46
11934.6,2546.22
11932.7,2540.77
11931.3,2535.14
11930.4,2529.41
11930.1,2523.62
11930.1,1834.65
11930.4,1828.86
11931.3,1823.12
11932.7,1817.5
11934.6,1812.05
11937.1,1806.81
11940.1,1801.84
11943.5,1797.18
11947.4,1792.89
11951.7,1789
11956.4,1785.54
11961.3,1782.56
11966.6,1780.09
11972,1778.13
11977.7,1776.73
11983.4,1775.88
11989.2,1775.59
12107.3,1775.59
Z" /> 
<path style="fill:#000000; fill-opacity:1.0; 
stroke:#000000; stroke-width:0; stroke-opacity:1; 
stroke-linecap:round; stroke-linejoin:round;fill-rule:evenodd;"
d="M 12613.1,1775.88
12618.8,1776.73
12624.4,1778.13
12629.9,1780.09
12635.1,1782.56
12640.1,1785.54
12644.7,1789
12649,1792.89
12652.9,1797.18
12656.4,1801.84
12659.4,1806.81
12661.8,1812.05
12663.8,1817.5
12665.2,1823.12
12666.1,1828.86
12666.3,1834.65
12666.3,2523.62
12666.1,2529.41
12665.2,2535.14
12663.8,2540.77
12661.8,2546.22
12659.4,2551.46
12656.4,2556.43
12652.9,2561.09
12649,2565.38
12644.7,2569.27
12640.1,2572.72
12635.1,2575.7
12629.9,2578.18
12624.4,2580.13
12618.8,2581.54
12613.1,2582.39
12607.3,2582.68
12489.2,2582.68
12483.4,2582.39
12477.7,2581.54
12472,2580.13
12466.6,2578.18
12461.3,2575.7
12456.4,2572.72
12451.7,2569.27
12447.4,2565.38
12443.5,2561.09
12440.1,2556.43
12437.1,2551.46
12434.6,2546.22
12432.7,2540.77
12431.3,2535.14
12430.4,2529.41
12430.1,2523.62
12430.1,1834.65
12430.4,1828.86
12431.3,1823.12
12432.7,1817.5
12434.6,1812.05
12437.1,1806.81
12440.1,1801.84
12443.5,1797.18
12447.4,1792.89
12451.7,1789
12456.4,1785.54
12461.3,1782.56
12466.6,1780.09
12472,1778.13
12477.7,1776.73
12483.4,1775.88
12489.2,1775.59
12607.3,1775.59
Z" /> 
<path style="fill:#000000; fill-opacity:1.0; 
stroke:#000000; stroke-width:0; stroke-opacity:1; 
stroke-linecap:round; stroke-linejoin:round;fill-rule:evenodd;"
d="M 12613.1,5437.29
12618.8,5438.14
12624.4,5439.55
12629.9,5441.5
12635.1,5443.98
12640.1,5446.96
12644.7,5450.41
12649,5454.31
12652.9,5458.6
12656.4,5463.25
12659.4,5468.22
12661.8,5473.46
12663.8,5478.92
12665.2,5484.54
12666.1,5490.27
12666.3,5496.06
12666.3,6185.04
12666.1,6190.83
12665.2,6196.56
12663.8,6202.18
12661.8,6207.64
12659.4,6212.88
12656.4,6217.85
12652.9,6222.5
12649,6226.8
12644.7,6230.69
12640.1,6234.14
12635.1,6237.12
12629.9,6239.6
12624.4,6241.55
12618.8,6242.96
12613.1,6243.81
12607.3,6244.09
12489.2,6244.09
12483.4,6243.81
12477.7,6242.96
12472,6241.55
12466.6,6239.6
12461.3,6237.12
12456.4,6234.14
12451.7,6230.69
12447.4,6226.8
12443.5,6222.5
12440.1,6217.85
12437.1,6212.88
12434.6,6207.64
12432.7,6202.18
12431.3,6196.56
12430.4,6190.83
12430.1,6185.04
12430.1,5496.06
12430.4,5490.27
12431.3,5484.54
12432.7,5478.92
12434.6,5473.46
12437.1,5468.22
12440.1,5463.25
12443.5,5458.6
12447.4,5454.31
12451.7,5450.41
12456.4,5446.96
12461.3,5443.98
12466.6,5441.5
12472,5439.55
12477.7,5438.14
12483.4,5437.29
12489.2,5437.01
12607.3,5437.01
Z" /> 
<path style="fill:#000000; fill-opacity:1.0; 
stroke:#000000; stroke-width:0; stroke-opacity:1; 
stroke-linecap:round; stroke-linejoin:round;fill-rule:evenodd;"
d="M 12113.1,5437.29
12118.8,5438.14
12124.4,5439.55
12129.9,5441.5
12135.1,5443.98
12140.1,5446.96
12144.7,5450.41
12149,5454.31
12152.9,5458.6
12156.4,5463.25
12159.4,5468.22
12161.8,5473.46
12163.8,5478.92
12165.2,5484.54
12166.1,5490.27
12166.3,5496.06
12166.3,6185.04
12166.1,6190.83
12165.2,6196.56
12163.8,6202.18
12161.8,6207.64
12159.4,6212.88
12156.4,6217.85
12152.9,6222.5
12149,6226.8
12144.7,6230.69
12140.1,6234.14
12135.1,6237.12
12129.9,6239.6
12124.4,6241.55
12118.8,6242.96
12113.1,6243.81
12107.3,6244.09
11989.2,6244.09
11983.4,6243.81
11977.7,6242.96
11972,6241.55
11966.6,6239.6
11961.3,6237.12
11956.4,6234.14
11951.7,6230.69
11947.4,6226.8
11943.5,6222.5
11940.1,6217.85
11937.1,6212.88
11934.6,6207.64
11932.7,6202.18
11931.3,6196.56
11930.4,6190.83
11930.1,6185.04
11930.1,5496.06
11930.4,5490.27
11931.3,5484.54
11932.7,5478.92
11934.6,5473.46
11937.1,5468.22
11940.1,5463.25
11943.5,5458.6
11947.4,5454.31
11951.7,5450.41
11956.4,5446.96
11961.3,5443.98
11966.6,5441.5
11972,5439.55
11977.7,5438.14
11983.4,5437.29
11989.2,5437.01
12107.3,5437.01
Z" /> 
<path style="fill:#000000; fill-opacity:1.0; 
stroke:#000000; stroke-width:0; stroke-opacity:1; 
stroke-linecap:round; stroke-linejoin:round;fill-rule:evenodd;"
d="M 11613.1,5437.29
11618.8,5438.14
11624.4,5439.55
11629.9,5441.5
11635.1,5443.98
11640.1,5446.96
11644.7,5450.41
11649,5454.31
11652.9,5458.6
11656.4,5463.25
11659.4,5468.22
11661.8,5473.46
11663.8,5478.92
11665.2,5484.54
11666.1,5490.27
11666.3,5496.06
11666.3,6185.04
11666.1,6190.83
11665.2,6196.56
11663.8,6202.18
11661.8,6207.64
11659.4,6212.88
11656.4,6217.85
11652.9,6222.5
11649,6226.8
11644.7,6230.69
11640.1,6234.14
11635.1,6237.12
11629.9,6239.6
11624.4,6241.55
11618.8,6242.96
11613.1,6243.81
11607.3,6244.09
11489.2,6244.09
11483.4,6243.81
11477.7,6242.96
11472,6241.55
11466.6,6239.6
11461.3,6237.12
11456.4,6234.14
11451.7,6230.69
11447.4,6226.8
11443.5,6222.5
11440.1,6217.85
11437.1,6212.88
11434.6,6207.64
11432.7,6202.18
11431.3,6196.56
11430.4,6190.83
11430.1,6185.04
11430.1,5496.06
11430.4,5490.27
11431.3,5484.54
11432.7,5478.92
11434.6,5473.46
11437.1,5468.22
11440.1,5463.25
11443.5,5458.6
11447.4,5454.31
11451.7,5450.41
11456.4,5446.96
11461.3,5443.98
11466.6,5441.5
11472,5439.55
11477.7,5438.14
11483.4,5437.29
11489.2,5437.01
11607.3,5437.01
Z" /> 
<path style="fill:#000000; fill-opacity:1.0; 
stroke:#000000; stroke-width:0; stroke-opacity:1; 
stroke-linecap:round; stroke-linejoin:round;fill-rule:evenodd;"
d="M 11113.1,5437.29
11118.8,5438.14
11124.4,5439.55
11129.9,5441.5
11135.1,5443.98
11140.1,5446.96
11144.7,5450.41
11149,5454.31
11152.9,5458.6
11156.4,5463.25
11159.4,5468.22
11161.8,5473.46
11163.8,5478.92
11165.2,5484.54
11166.1,5490.27
11166.3,5496.06
11166.3,6185.04
11166.1,6190.83
11165.2,6196.56
11163.8,6202.18
11161.8,6207.64
11159.4,6212.88
11156.4,6217.85
11152.9,6222.5
11149,6226.8
11144.7,6230.69
11140.1,6234.14
11135.1,6237.12
11129.9,6239.6
11124.4,6241.55
11118.8,6242.96
11113.1,6243.81
11107.3,6244.09
10989.2,6244.09
10983.4,6243.81
10977.7,6242.96
10972,6241.55
10966.6,6239.6
10961.3,6237.12
10956.4,6234.14
10951.7,6230.69
10947.4,6226.8
10943.5,6222.5
10940.1,6217.85
10937.1,6212.88
10934.6,6207.64
10932.7,6202.18
10931.3,6196.56
10930.4,6190.83
10930.1,6185.04
10930.1,5496.06
10930.4,5490.27
10931.3,5484.54
10932.7,5478.92
10934.6,5473.46
10937.1,5468.22
10940.1,5463.25
10943.5,5458.6
10947.4,5454.31
10951.7,5450.41
10956.4,5446.96
10961.3,5443.98
10966.6,5441.5
10972,5439.55
10977.7,5438.14
10983.4,5437.29
10989.2,5437.01
11107.3,5437.01
Z" /> 
<path style="fill:#000000; fill-opacity:1.0; 
stroke:#000000; stroke-width:0; stroke-opacity:1; 
stroke-linecap:round; stroke-linejoin:round;fill-rule:evenodd;"
d="M 10613.1,5437.29
10618.8,5438.14
10624.4,5439.55
10629.9,5441.5
10635.1,5443.98
10640.1,5446.96
10644.7,5450.41
10649,5454.31
10652.9,5458.6
10656.4,5463.25
10659.4,5468.22
10661.8,5473.46
10663.8,5478.92
10665.2,5484.54
10666.1,5490.27
10666.3,5496.06
10666.3,6185.04
10666.1,6190.83
10665.2,6196.56
10663.8,6202.18
10661.8,6207.64
10659.4,6212.88
10656.4,6217.85
10652.9,6222.5
10649,6226.8
10644.7,6230.69
10640.1,6234.14
10635.1,6237.12
10629.9,6239.6
10624.4,6241.55
10618.8,6242.96
10613.1,6243.81
10607.3,6244.09
10489.2,6244.09
10483.4,6243.81
10477.7,6242.96
10472,6241.55
10466.6,6239.6
10461.3,6237.12
10456.4,6234.14
10451.7,6230.69
10447.4,6226.8
10443.5,6222.5
10440.1,6217.85
10437.1,6212.88
10434.6,6207.64
10432.7,6202.18
10431.3,6196.56
10430.4,6190.83
10430.1,6185.04
10430.1,5496.06
10430.4,5490.27
10431.3,5484.54
10432.7,5478.92
10434.6,5473.46
10437.1,5468.22
10440.1,5463.25
10443.5,5458.6
10447.4,5454.31
10451.7,5450.41
10456.4,5446.96
10461.3,5443.98
10466.6,5441.5
10472,5439.55
10477.7,5438.14
10483.4,5437.29
10489.2,5437.01
10607.3,5437.01
Z" /> 
<path style="fill:#000000; fill-opacity:1.0; 
stroke:#000000; stroke-width:0; stroke-opacity:1; 
stroke-linecap:round; stroke-linejoin:round;fill-rule:evenodd;"
d="M 10113.1,5437.29
10118.8,5438.14
10124.4,5439.55
10129.9,5441.5
10135.1,5443.98
10140.1,5446.96
10144.7,5450.41
10149,5454.31
10152.9,5458.6
10156.4,5463.25
10159.4,5468.22
10161.8,5473.46
10163.8,5478.92
10165.2,5484.54
10166.1,5490.27
10166.3,5496.06
10166.3,6185.04
10166.1,6190.83
10165.2,6196.56
10163.8,6202.18
10161.8,6207.64
10159.4,6212.88
10156.4,6217.85
10152.9,6222.5
10149,6226.8
10144.7,6230.69
10140.1,6234.14
10135.1,6237.12
10129.9,6239.6
10124.4,6241.55
10118.8,6242.96
10113.1,6243.81
10107.3,6244.09
9989.17,6244.09
9983.38,6243.81
9977.65,6242.96
9972.03,6241.55
9966.57,6239.6
9961.33,6237.12
9956.36,6234.14
9951.71,6230.69
9947.41,6226.8
9943.52,6222.5
9940.07,6217.85
9937.09,6212.88
9934.61,6207.64
9932.66,6202.18
9931.25,6196.56
9930.4,6190.83
9930.12,6185.04
9930.12,5496.06
9930.4,5490.27
9931.25,5484.54
9932.66,5478.92
9934.61,5473.46
9937.09,5468.22
9940.07,5463.25
9943.52,5458.6
9947.41,5454.31
9951.71,5450.41
9956.36,5446.96
9961.33,5443.98
9966.57,5441.5
9972.03,5439.55
9977.65,5438.14
9983.38,5437.29
9989.17,5437.01
10107.3,5437.01
Z" /> 
<path style="fill:#000000; fill-opacity:1.0; 
stroke:#000000; stroke-width:0; stroke-opacity:1; 
stroke-linecap:round; stroke-linejoin:round;fill-rule:evenodd;"
d="M 9613.07,5437.29
9618.8,5438.14
9624.43,5439.55
9629.88,5441.5
9635.12,5443.98
9640.09,5446.96
9644.75,5450.41
9649.04,5454.31
9652.93,5458.6
9656.39,5463.25
9659.37,5468.22
9661.84,5473.46
9663.8,5478.92
9665.2,5484.54
9666.05,5490.27
9666.34,5496.06
9666.34,6185.04
9666.05,6190.83
9665.2,6196.56
9663.8,6202.18
9661.84,6207.64
9659.37,6212.88
9656.39,6217.85
9652.93,6222.5
9649.04,6226.8
9644.75,6230.69
9640.09,6234.14
9635.12,6237.12
9629.88,6239.6
9624.43,6241.55
9618.8,6242.96
9613.07,6243.81
9607.28,6244.09
9489.17,6244.09
9483.38,6243.81
9477.65,6242.96
9472.03,6241.55
9466.57,6239.6
9461.33,6237.12
9456.36,6234.14
9451.71,6230.69
9447.41,6226.8
9443.52,6222.5
9440.07,6217.85
9437.09,6212.88
9434.61,6207.64
9432.66,6202.18
9431.25,6196.56
9430.4,6190.83
9430.12,6185.04
9430.12,5496.06
9430.4,5490.27
9431.25,5484.54
9432.66,5478.92
9434.61,5473.46
9437.09,5468.22
9440.07,5463.25
9443.52,5458.6
9447.41,5454.31
9451.71,5450.41
9456.36,5446.96
9461.33,5443.98
9466.57,5441.5
9472.03,5439.55
9477.65,5438.14
9483.38,5437.29
9489.17,5437.01
9607.28,5437.01
Z" /> 
<path style="fill:#000000; fill-opacity:1.0; 
stroke:#000000; stroke-width:0; stroke-opacity:1; 
stroke-linecap:round; stroke-linejoin:round;fill-rule:evenodd;"
d="M 9113.07,5437.29
9118.8,5438.14
9124.43,5439.55
9129.88,5441.5
9135.12,5443.98
9140.09,5446.96
9144.75,5450.41
9149.04,5454.31
9152.93,5458.6
9156.39,5463.25
9159.37,5468.22
9161.84,5473.46
9163.8,5478.92
9165.2,5484.54
9166.05,5490.27
9166.34,5496.06
9166.34,6185.04
9166.05,6190.83
9165.2,6196.56
9163.8,6202.18
9161.84,6207.64
9159.37,6212.88
9156.39,6217.85
9152.93,6222.5
9149.04,6226.8
9144.75,6230.69
9140.09,6234.14
9135.12,6237.12
9129.88,6239.6
9124.43,6241.55
9118.8,6242.96
9113.07,6243.81
9107.28,6244.09
8989.17,6244.09
8983.38,6243.81
8977.65,6242.96
8972.03,6241.55
8966.57,6239.6
8961.33,6237.12
8956.36,6234.14
8951.71,6230.69
8947.41,6226.8
8943.52,6222.5
8940.07,6217.85
8937.09,6212.88
8934.61,6207.64
8932.66,6202.18
8931.25,6196.56
8930.4,6190.83
8930.12,6185.04
8930.12,5496.06
8930.4,5490.27
8931.25,5484.54
8932.66,5478.92
8934.61,5473.46
8937.09,5468.22
8940.07,5463.25
8943.52,5458.6
8947.41,5454.31
8951.71,5450.41
8956.36,5446.96
8961.33,5443.98
8966.57,5441.5
8972.03,5439.55
8977.65,5438.14
8983.38,5437.29
8989.17,5437.01
9107.28,5437.01
Z" /> 
<path style="fill:#000000; fill-opacity:1.0; 
stroke:#000000; stroke-width:0; stroke-opacity:1; 
stroke-linecap:round; stroke-linejoin:round;fill-rule:evenodd;"
d="M 8613.07,5437.29
8618.8,5438.14
8624.43,5439.55
8629.88,5441.5
8635.12,5443.98
8640.09,5446.96
8644.75,5450.41
8649.04,5454.31
8652.93,5458.6
8656.39,5463.25
8659.37,5468.22
8661.84,5473.46
8663.8,5478.92
8665.2,5484.54
8666.05,5490.27
8666.34,5496.06
8666.34,6185.04
8666.05,6190.83
8665.2,6196.56
8663.8,6202.18
8661.84,6207.64
8659.37,6212.88
8656.39,6217.85
8652.93,6222.5
8649.04,6226.8
8644.75,6230.69
8640.09,6234.14
8635.12,6237.12
8629.88,6239.6
8624.43,6241.55
8618.8,6242.96
8613.07,6243.81
8607.28,6244.09
8489.17,6244.09
8483.38,6243.81
8477.65,6242.96
8472.03,6241.55
8466.57,6239.6
8461.33,6237.12
8456.36,6234.14
8451.71,6230.69
8447.41,6226.8
8443.52,6222.5
8440.07,6217.85
8437.09,6212.88
8434.61,6207.64
8432.66,6202.18
8431.25,6196.56
8430.4,6190.83
8430.12,6185.04
8430.12,5496.06
8430.4,5490.27
8431.25,5484.54
8432.66,5478.92
8434.61,5473.46
8437.09,5468.22
8440.07,5463.25
8443.52,5458.6
8447.41,5454.31
8451.71,5450.41
8456.36,5446.96
8461.33,5443.98
8466.57,5441.5
8472.03,5439.55
8477.65,5438.14
8483.38,5437.29
8489.17,5437.01
8607.28,5437.01
Z" /> 
<path style="fill:#000000; fill-opacity:1.0; 
stroke:#000000; stroke-width:0; stroke-opacity:1; 
stroke-linecap:round; stroke-linejoin:round;fill-rule:evenodd;"
d="M 8113.07,5437.29
8118.8,5438.14
8124.43,5439.55
8129.88,5441.5
8135.12,5443.98
8140.09,5446.96
8144.75,5450.41
8149.04,5454.31
8152.93,5458.6
8156.39,5463.25
8159.37,5468.22
8161.84,5473.46
8163.8,5478.92
8165.2,5484.54
8166.05,5490.27
8166.34,5496.06
8166.34,6185.04
8166.05,6190.83
8165.2,6196.56
8163.8,6202.18
8161.84,6207.64
8159.37,6212.88
8156.39,6217.85
8152.93,6222.5
8149.04,6226.8
8144.75,6230.69
8140.09,6234.14
8135.12,6237.12
8129.88,6239.6
8124.43,6241.55
8118.8,6242.96
8113.07,6243.81
8107.28,6244.09
7989.17,6244.09
7983.38,6243.81
7977.65,6242.96
7972.03,6241.55
7966.57,6239.6
7961.33,6237.12
7956.36,6234.14
7951.71,6230.69
7947.41,6226.8
7943.52,6222.5
7940.07,6217.85
7937.09,6212.88
7934.61,6207.64
7932.66,6202.18
7931.25,6196.56
7930.4,6190.83
7930.12,6185.04
7930.12,5496.06
7930.4,5490.27
7931.25,5484.54
7932.66,5478.92
7934.61,5473.46
7937.09,5468.22
7940.07,5463.25
7943.52,5458.6
7947.41,5454.31
7951.71,5450.41
7956.36,5446.96
7961.33,5443.98
7966.57,5441.5
7972.03,5439.55
7977.65,5438.14
7983.38,5437.29
7989.17,5437.01
8107.28,5437.01
Z" /> 
</g>
<g >
</g>
<g style="fill:#000000; fill-opacity:1.0; 
stroke:#000000; stroke-width:0; stroke-opacity:1; 
stroke-linecap:round; stroke-linejoin:round;">
<path style="fill:#000000; fill-opacity:1.0; 
stroke:#000000; stroke-width:0; stroke-opacity:1; 
stroke-linecap:round; stroke-linejoin:round;fill-rule:evenodd;"
d="M 6402.23,3523.34
5694.23,3523.34
5694.23,2894.34
6402.23,2894.34
Z" /> 
<path style="fill:#000000; fill-opacity:1.0; 
stroke:#000000; stroke-width:0; stroke-opacity:1; 
stroke-linecap:round; stroke-linejoin:round;fill-rule:evenodd;"
d="M 6402.23,4625.34
5694.23,4625.34
5694.23,3996.34
6402.23,3996.34
Z" /> 
</g>
<g >
</g>
<g >
</g>
<g style="fill:#000000; fill-opacity:1.0; 
stroke:#000000; stroke-width:0; stroke-opacity:1; 
stroke-linecap:round; stroke-linejoin:round;">
</g>
<g style="fill:#000000; fill-opacity:1.0; 
stroke:#000000; stroke-width:196.85; stroke-opacity:1; 
stroke-linecap:round; stroke-linejoin:round;">
</g>
<g style="fill:#000000; fill-opacity:0.0; 
stroke:#000000; stroke-width:196.85; stroke-opacity:1; 
stroke-linecap:round; stroke-linejoin:round;">
<path d="M8048 2179
L8048 3259
" />
<path d="M6099 3259
L6048 3208
" />
<path d="M8048 3259
L6099 3259
" />
<path d="M5869 4131
L6048 4310
" />
<path d="M6099 4259
L6048 4310
" />
<path d="M7798 4259
L6099 4259
" />
<path d="M8525 2156
L8548 2179
" />
<path d="M6048 3208
L4849 3208
" />
<path d="M4849 3208
L4798 3259
" />
<path d="M4548 4009
L3548 4009
" />
<path d="M4798 3759
L4548 4009
" />
<path d="M4798 3259
L4798 3759
" />
<path d="M8048 3259
L12798 3259
" />
<path d="M14548 1509
L15048 1509
" />
<path d="M12798 3259
L14548 1509
" />
<path d="M6048 4310
L5997 4310
" />
<path d="M5298 5009
L3548 5009
" />
<path d="M5997 4310
L5298 5009
" />
<path d="M8048 4509
L7798 4259
" />
<path d="M8048 5840
L8048 4509
" />
<path d="M8048 4509
L8548 4009
" />
<path d="M8548 4009
L13298 4009
" />
<path d="M13798 3509
L15048 3509
" />
<path d="M13298 4009
L13798 3509
" />
<path d="M10048 1532
L10048 2179
" />
<path d="M9775 1259
L10048 1532
" />
<path d="M5298 1259
L9775 1259
" />
<path d="M3548 3009
L5298 1259
" />
<path d="M14048 5509
L15048 5509
" />
<path d="M12048 5840
L12048 6759
" />
<path d="M12048 6759
L12298 7009
" />
<path d="M12298 7009
L13298 7009
" />
<path d="M13298 7009
L13798 6509
" />
<path d="M13798 5759
L14048 5509
" />
<path d="M13798 6509
L13798 5759
" />
<path d="M11548 5840
L11548 5009
" />
<path d="M11548 5009
L12048 4509
" />
<path d="M12048 4509
L15048 4509
" />
</g>
<g >
</g>
</g>
<g style="fill:#FFFFFF; fill-opacity:0.0; 
stroke:#FFFFFF; stroke-width:196.85; stroke-opacity:1; 
stroke-linecap:round; stroke-linejoin:round;">
</g>
<g style="fill:#000000; fill-opacity:0.0; 
stroke:#000000; stroke-width:196.85; stroke-opacity:1; 
stroke-linecap:round; stroke-linejoin:round;">
</g> 
</svg>
