<?xml version="1.0" encoding="UTF-8" standalone="no"?>
<svg
   xmlns:dc="http://purl.org/dc/elements/1.1/"
   xmlns:cc="http://creativecommons.org/ns#"
   xmlns:rdf="http://www.w3.org/1999/02/22-rdf-syntax-ns#"
   xmlns:svg="http://www.w3.org/2000/svg"
   xmlns="http://www.w3.org/2000/svg"
   xmlns:sodipodi="http://sodipodi.sourceforge.net/DTD/sodipodi-0.dtd"
   xmlns:inkscape="http://www.inkscape.org/namespaces/inkscape"
   version="1.1"
   width="5.334000cm"
   height="2.034540cm"
   viewBox="0 0 21000 8010"
   id="svg276"
   sodipodi:docname="hello.t1616.echo.thruhole-brd.svg"
   inkscape:version="1.0.1 (3bc2e813f5, 2020-09-07)">
  <metadata
     id="metadata282">
    <rdf:RDF>
      <cc:Work
         rdf:about="">
        <dc:format>image/svg+xml</dc:format>
        <dc:type
           rdf:resource="http://purl.org/dc/dcmitype/StillImage" />
      </cc:Work>
    </rdf:RDF>
  </metadata>
  <defs
     id="defs280" />
  <sodipodi:namedview
     pagecolor="#ffffff"
     bordercolor="#666666"
     borderopacity="1"
     objecttolerance="10"
     gridtolerance="10"
     guidetolerance="10"
     inkscape:pageopacity="0"
     inkscape:pageshadow="2"
     inkscape:window-width="1727"
     inkscape:window-height="873"
     id="namedview278"
     showgrid="false"
     inkscape:zoom="5.1686507"
     inkscape:cx="100.8"
     inkscape:cy="38.447999"
     inkscape:window-x="0"
     inkscape:window-y="0"
     inkscape:window-maximized="0"
     inkscape:current-layer="svg276" />
  <title
     id="title2">SVG Picture created as hello.t1616.echo.thruhole-brd.svg date 2021/03/03 20:22:05 </title>
  <desc
     id="desc4">Picture generated by PCBNEW </desc>
  <g
     style="fill:#000000; fill-opacity:1.0;  stroke:#000000; stroke-width:39.3701; stroke-opacity:1;  stroke-linecap:round; stroke-linejoin:round;"
     id="g274">
    <path
       style="fill:#000000; fill-opacity:1.0;  stroke:#000000; stroke-width:39.3701; stroke-opacity:1;  stroke-linecap:round; stroke-linejoin:round;fill-rule:evenodd;"
       d="M 17871.2,7759.84 2371.2,7759.84 2371.2,259.843 17871.2,259.843 Z"
       id="path262" />
    <g
       id="g264" />
    <g
       id="g266" />
    <g
       id="g268" />
    <g
       id="g270" />
    <g
       id="g272" />
  </g>
  <g
     style="fill:#000000; fill-opacity:1;stroke:#000000; stroke-opacity:1; stroke-linecap:round; stroke-linejoin:round;"
     transform="translate(0 0) scale(1 1)"
     id="g6" />
  <g
     style="fill:#000000; fill-opacity:0.0;  stroke:#000000; stroke-width:-0.000393701; stroke-opacity:1;  stroke-linecap:round; stroke-linejoin:round;"
     id="g8" />
  <g
     style="fill:#000000; fill-opacity:0.0;  stroke:#000000; stroke-width:118.11; stroke-opacity:1;  stroke-linecap:round; stroke-linejoin:round;"
     id="g26">
    <text
       x="13871.2"
       y="1305.12"
       textLength="2591.63"
       font-size="1049.87"
       lengthAdjust="spacingAndGlyphs"
       text-anchor="middle"
       opacity="0"
       id="text10">GND</text>
    <path
       d="M13271 714 L13196 686 L13083 686 L12971 714 L12896 770 L12858 827 L12821 939 L12821 1023 L12858 1136 L12896 1192 L12971 1248 L13083 1276 L13158 1276 L13271 1248 L13308 1220 L13308 1023 L13158 1023 "
       id="path12" />
    <path
       d="M13646 1276 L13646 686 L14096 1276 L14096 686 "
       id="path14" />
    <path
       d="M14471 1276 L14471 686 L14658 686 L14771 714 L14846 770 L14883 827 L14921 939 L14921 1023 L14883 1136 L14846 1192 L14771 1248 L14658 1276 L14471 1276 "
       id="path16" />
    <text
       x="3621.2"
       y="7055.12"
       textLength="2403.26"
       font-size="1049.87"
       lengthAdjust="spacingAndGlyphs"
       text-anchor="middle"
       opacity="0"
       id="text18">VCC</text>
    <path
       d="M2571 6436 L2833 7026 L3096 6436 "
       id="path20" />
    <path
       d="M3808 6970 L3771 6998 L3658 7026 L3583 7026 L3471 6998 L3396 6942 L3358 6886 L3321 6773 L3321 6689 L3358 6577 L3396 6520 L3471 6464 L3583 6436 L3658 6436 L3771 6464 L3808 6492 "
       id="path22" />
    <path
       d="M4596 6970 L4558 6998 L4446 7026 L4371 7026 L4258 6998 L4183 6942 L4146 6886 L4108 6773 L4108 6689 L4146 6577 L4183 6520 L4258 6464 L4371 6436 L4446 6436 L4558 6464 L4596 6492 "
       id="path24" />
  </g>
  <g
     style="fill:#000000; fill-opacity:0.0;  stroke:#000000; stroke-width:147.638; stroke-opacity:1;  stroke-linecap:round; stroke-linejoin:round;"
     id="g204">
    <text
       x="3871.2"
       y="1555.12"
       textLength="2928.2"
       font-size="1049.87"
       lengthAdjust="spacingAndGlyphs"
       text-anchor="middle"
       opacity="0"
       id="text28">UPDI</text>
    <path
       d="M2671 936 L2671 1414 L2708 1470 L2746 1498 L2821 1526 L2971 1526 L3046 1498 L3083 1470 L3121 1414 L3121 936 "
       id="path30" />
    <path
       d="M3496 1526 L3496 936 L3796 936 L3871 964 L3908 992 L3946 1048 L3946 1133 L3908 1189 L3871 1217 L3796 1245 L3496 1245 "
       id="path32" />
    <path
       d="M4283 1526 L4283 936 L4471 936 L4583 964 L4658 1020 L4696 1077 L4733 1189 L4733 1273 L4696 1386 L4658 1442 L4583 1498 L4471 1526 L4283 1526 "
       id="path34" />
    <path
       d="M5071 1526 L5071 936 "
       id="path36" />
    <g
       id="g38" />
    <g
       style="fill:#000000; fill-opacity:1.0;  stroke:#000000; stroke-width:0; stroke-opacity:1;  stroke-linecap:round; stroke-linejoin:round;"
       id="g52">
      <circle
         cx="15871.2"
         cy="6509.84"
         r="334.646"
         id="circle40" />
      <circle
         cx="15871.2"
         cy="5509.84"
         r="334.646"
         id="circle42" />
      <circle
         cx="15871.2"
         cy="4509.84"
         r="334.646"
         id="circle44" />
      <circle
         cx="15871.2"
         cy="3509.84"
         r="334.646"
         id="circle46" />
      <circle
         cx="15871.2"
         cy="2509.84"
         r="334.646"
         id="circle48" />
      <path
         style="fill:#000000; fill-opacity:1.0;  stroke:#000000; stroke-width:0; stroke-opacity:1;  stroke-linecap:round; stroke-linejoin:round;fill-rule:evenodd;"
         d="M 15536.6,1844.49 15536.6,1175.2 16205.8,1175.2 16205.8,1844.49 Z"
         id="path50" />
    </g>
    <g
       id="g54" />
    <g
       style="fill:#000000; fill-opacity:1.0;  stroke:#000000; stroke-width:0; stroke-opacity:1;  stroke-linecap:round; stroke-linejoin:round;"
       id="g62">
      <circle
         cx="4371.2"
         cy="3009.84"
         r="334.646"
         id="circle56" />
      <circle
         cx="4371.2"
         cy="4009.84"
         r="334.646"
         id="circle58" />
      <path
         style="fill:#000000; fill-opacity:1.0;  stroke:#000000; stroke-width:0; stroke-opacity:1;  stroke-linecap:round; stroke-linejoin:round;fill-rule:evenodd;"
         d="M 4705.85,4675.2 4705.85,5344.49 4036.56,5344.49 4036.56,4675.2 Z"
         id="path60" />
    </g>
    <g
       id="g64" />
    <g
       style="fill:#000000; fill-opacity:1.0;  stroke:#000000; stroke-width:0; stroke-opacity:1;  stroke-linecap:round; stroke-linejoin:round;"
       id="g106">
      <path
         style="fill:#000000; fill-opacity:1.0;  stroke:#000000; stroke-width:0; stroke-opacity:1;  stroke-linecap:round; stroke-linejoin:round;fill-rule:evenodd;"
         d="M 8936.05,1775.88 8941.78,1776.73 8947.4,1778.13 8952.86,1780.09 8958.1,1782.56 8963.07,1785.54 8967.72,1789 8972.02,1792.89 8975.91,1797.18 8979.36,1801.84 8982.34,1806.81 8984.82,1812.05 8986.77,1817.5 8988.18,1823.12 8989.03,1828.86 8989.31,1834.65 8989.31,2523.62 8989.03,2529.41 8988.18,2535.14 8986.77,2540.77 8984.82,2546.22 8982.34,2551.46 8979.36,2556.43 8975.91,2561.09 8972.02,2565.38 8967.72,2569.27 8963.07,2572.72 8958.1,2575.7 8952.86,2578.18 8947.4,2580.13 8941.78,2581.54 8936.05,2582.39 8930.26,2582.68 8812.15,2582.68 8806.36,2582.39 8800.63,2581.54 8795.01,2580.13 8789.55,2578.18 8784.31,2575.7 8779.34,2572.72 8774.68,2569.27 8770.39,2565.38 8766.5,2561.09 8763.05,2556.43 8760.07,2551.46 8757.59,2546.22 8755.64,2540.77 8754.23,2535.14 8753.38,2529.41 8753.09,2523.62 8753.09,1834.65 8753.38,1828.86 8754.23,1823.12 8755.64,1817.5 8757.59,1812.05 8760.07,1806.81 8763.05,1801.84 8766.5,1797.18 8770.39,1792.89 8774.68,1789 8779.34,1785.54 8784.31,1782.56 8789.55,1780.09 8795.01,1778.13 8800.63,1776.73 8806.36,1775.88 8812.15,1775.59 8930.26,1775.59 Z"
         id="path66" />
      <path
         style="fill:#000000; fill-opacity:1.0;  stroke:#000000; stroke-width:0; stroke-opacity:1;  stroke-linecap:round; stroke-linejoin:round;fill-rule:evenodd;"
         d="M 9436.05,1775.88 9441.78,1776.73 9447.4,1778.13 9452.86,1780.09 9458.1,1782.56 9463.07,1785.54 9467.72,1789 9472.02,1792.89 9475.91,1797.18 9479.36,1801.84 9482.34,1806.81 9484.82,1812.05 9486.77,1817.5 9488.18,1823.12 9489.03,1828.86 9489.31,1834.65 9489.31,2523.62 9489.03,2529.41 9488.18,2535.14 9486.77,2540.77 9484.82,2546.22 9482.34,2551.46 9479.36,2556.43 9475.91,2561.09 9472.02,2565.38 9467.72,2569.27 9463.07,2572.72 9458.1,2575.7 9452.86,2578.18 9447.4,2580.13 9441.78,2581.54 9436.05,2582.39 9430.26,2582.68 9312.15,2582.68 9306.36,2582.39 9300.63,2581.54 9295.01,2580.13 9289.55,2578.18 9284.31,2575.7 9279.34,2572.72 9274.68,2569.27 9270.39,2565.38 9266.5,2561.09 9263.05,2556.43 9260.07,2551.46 9257.59,2546.22 9255.64,2540.77 9254.23,2535.14 9253.38,2529.41 9253.09,2523.62 9253.09,1834.65 9253.38,1828.86 9254.23,1823.12 9255.64,1817.5 9257.59,1812.05 9260.07,1806.81 9263.05,1801.84 9266.5,1797.18 9270.39,1792.89 9274.68,1789 9279.34,1785.54 9284.31,1782.56 9289.55,1780.09 9295.01,1778.13 9300.63,1776.73 9306.36,1775.88 9312.15,1775.59 9430.26,1775.59 Z"
         id="path68" />
      <path
         style="fill:#000000; fill-opacity:1.0;  stroke:#000000; stroke-width:0; stroke-opacity:1;  stroke-linecap:round; stroke-linejoin:round;fill-rule:evenodd;"
         d="M 9936.05,1775.88 9941.78,1776.73 9947.4,1778.13 9952.86,1780.09 9958.1,1782.56 9963.07,1785.54 9967.72,1789 9972.02,1792.89 9975.91,1797.18 9979.36,1801.84 9982.34,1806.81 9984.82,1812.05 9986.77,1817.5 9988.18,1823.12 9989.03,1828.86 9989.31,1834.65 9989.31,2523.62 9989.03,2529.41 9988.18,2535.14 9986.77,2540.77 9984.82,2546.22 9982.34,2551.46 9979.36,2556.43 9975.91,2561.09 9972.02,2565.38 9967.72,2569.27 9963.07,2572.72 9958.1,2575.7 9952.86,2578.18 9947.4,2580.13 9941.78,2581.54 9936.05,2582.39 9930.26,2582.68 9812.15,2582.68 9806.36,2582.39 9800.63,2581.54 9795.01,2580.13 9789.55,2578.18 9784.31,2575.7 9779.34,2572.72 9774.68,2569.27 9770.39,2565.38 9766.5,2561.09 9763.05,2556.43 9760.07,2551.46 9757.59,2546.22 9755.64,2540.77 9754.23,2535.14 9753.38,2529.41 9753.09,2523.62 9753.09,1834.65 9753.38,1828.86 9754.23,1823.12 9755.64,1817.5 9757.59,1812.05 9760.07,1806.81 9763.05,1801.84 9766.5,1797.18 9770.39,1792.89 9774.68,1789 9779.34,1785.54 9784.31,1782.56 9789.55,1780.09 9795.01,1778.13 9800.63,1776.73 9806.36,1775.88 9812.15,1775.59 9930.26,1775.59 Z"
         id="path70" />
      <path
         style="fill:#000000; fill-opacity:1.0;  stroke:#000000; stroke-width:0; stroke-opacity:1;  stroke-linecap:round; stroke-linejoin:round;fill-rule:evenodd;"
         d="M 10436,1775.88 10441.8,1776.73 10447.4,1778.13 10452.9,1780.09 10458.1,1782.56 10463.1,1785.54 10467.7,1789 10472,1792.89 10475.9,1797.18 10479.4,1801.84 10482.3,1806.81 10484.8,1812.05 10486.8,1817.5 10488.2,1823.12 10489,1828.86 10489.3,1834.65 10489.3,2523.62 10489,2529.41 10488.2,2535.14 10486.8,2540.77 10484.8,2546.22 10482.3,2551.46 10479.4,2556.43 10475.9,2561.09 10472,2565.38 10467.7,2569.27 10463.1,2572.72 10458.1,2575.7 10452.9,2578.18 10447.4,2580.13 10441.8,2581.54 10436,2582.39 10430.3,2582.68 10312.1,2582.68 10306.4,2582.39 10300.6,2581.54 10295,2580.13 10289.5,2578.18 10284.3,2575.7 10279.3,2572.72 10274.7,2569.27 10270.4,2565.38 10266.5,2561.09 10263,2556.43 10260.1,2551.46 10257.6,2546.22 10255.6,2540.77 10254.2,2535.14 10253.4,2529.41 10253.1,2523.62 10253.1,1834.65 10253.4,1828.86 10254.2,1823.12 10255.6,1817.5 10257.6,1812.05 10260.1,1806.81 10263,1801.84 10266.5,1797.18 10270.4,1792.89 10274.7,1789 10279.3,1785.54 10284.3,1782.56 10289.5,1780.09 10295,1778.13 10300.6,1776.73 10306.4,1775.88 10312.1,1775.59 10430.3,1775.59 Z"
         id="path72" />
      <path
         style="fill:#000000; fill-opacity:1.0;  stroke:#000000; stroke-width:0; stroke-opacity:1;  stroke-linecap:round; stroke-linejoin:round;fill-rule:evenodd;"
         d="M 10936,1775.88 10941.8,1776.73 10947.4,1778.13 10952.9,1780.09 10958.1,1782.56 10963.1,1785.54 10967.7,1789 10972,1792.89 10975.9,1797.18 10979.4,1801.84 10982.3,1806.81 10984.8,1812.05 10986.8,1817.5 10988.2,1823.12 10989,1828.86 10989.3,1834.65 10989.3,2523.62 10989,2529.41 10988.2,2535.14 10986.8,2540.77 10984.8,2546.22 10982.3,2551.46 10979.4,2556.43 10975.9,2561.09 10972,2565.38 10967.7,2569.27 10963.1,2572.72 10958.1,2575.7 10952.9,2578.18 10947.4,2580.13 10941.8,2581.54 10936,2582.39 10930.3,2582.68 10812.1,2582.68 10806.4,2582.39 10800.6,2581.54 10795,2580.13 10789.5,2578.18 10784.3,2575.7 10779.3,2572.72 10774.7,2569.27 10770.4,2565.38 10766.5,2561.09 10763,2556.43 10760.1,2551.46 10757.6,2546.22 10755.6,2540.77 10754.2,2535.14 10753.4,2529.41 10753.1,2523.62 10753.1,1834.65 10753.4,1828.86 10754.2,1823.12 10755.6,1817.5 10757.6,1812.05 10760.1,1806.81 10763,1801.84 10766.5,1797.18 10770.4,1792.89 10774.7,1789 10779.3,1785.54 10784.3,1782.56 10789.5,1780.09 10795,1778.13 10800.6,1776.73 10806.4,1775.88 10812.1,1775.59 10930.3,1775.59 Z"
         id="path74" />
      <path
         style="fill:#000000; fill-opacity:1.0;  stroke:#000000; stroke-width:0; stroke-opacity:1;  stroke-linecap:round; stroke-linejoin:round;fill-rule:evenodd;"
         d="M 11436,1775.88 11441.8,1776.73 11447.4,1778.13 11452.9,1780.09 11458.1,1782.56 11463.1,1785.54 11467.7,1789 11472,1792.89 11475.9,1797.18 11479.4,1801.84 11482.3,1806.81 11484.8,1812.05 11486.8,1817.5 11488.2,1823.12 11489,1828.86 11489.3,1834.65 11489.3,2523.62 11489,2529.41 11488.2,2535.14 11486.8,2540.77 11484.8,2546.22 11482.3,2551.46 11479.4,2556.43 11475.9,2561.09 11472,2565.38 11467.7,2569.27 11463.1,2572.72 11458.1,2575.7 11452.9,2578.18 11447.4,2580.13 11441.8,2581.54 11436,2582.39 11430.3,2582.68 11312.1,2582.68 11306.4,2582.39 11300.6,2581.54 11295,2580.13 11289.5,2578.18 11284.3,2575.7 11279.3,2572.72 11274.7,2569.27 11270.4,2565.38 11266.5,2561.09 11263,2556.43 11260.1,2551.46 11257.6,2546.22 11255.6,2540.77 11254.2,2535.14 11253.4,2529.41 11253.1,2523.62 11253.1,1834.65 11253.4,1828.86 11254.2,1823.12 11255.6,1817.5 11257.6,1812.05 11260.1,1806.81 11263,1801.84 11266.5,1797.18 11270.4,1792.89 11274.7,1789 11279.3,1785.54 11284.3,1782.56 11289.5,1780.09 11295,1778.13 11300.6,1776.73 11306.4,1775.88 11312.1,1775.59 11430.3,1775.59 Z"
         id="path76" />
      <path
         style="fill:#000000; fill-opacity:1.0;  stroke:#000000; stroke-width:0; stroke-opacity:1;  stroke-linecap:round; stroke-linejoin:round;fill-rule:evenodd;"
         d="M 11936,1775.88 11941.8,1776.73 11947.4,1778.13 11952.9,1780.09 11958.1,1782.56 11963.1,1785.54 11967.7,1789 11972,1792.89 11975.9,1797.18 11979.4,1801.84 11982.3,1806.81 11984.8,1812.05 11986.8,1817.5 11988.2,1823.12 11989,1828.86 11989.3,1834.65 11989.3,2523.62 11989,2529.41 11988.2,2535.14 11986.8,2540.77 11984.8,2546.22 11982.3,2551.46 11979.4,2556.43 11975.9,2561.09 11972,2565.38 11967.7,2569.27 11963.1,2572.72 11958.1,2575.7 11952.9,2578.18 11947.4,2580.13 11941.8,2581.54 11936,2582.39 11930.3,2582.68 11812.1,2582.68 11806.4,2582.39 11800.6,2581.54 11795,2580.13 11789.5,2578.18 11784.3,2575.7 11779.3,2572.72 11774.7,2569.27 11770.4,2565.38 11766.5,2561.09 11763,2556.43 11760.1,2551.46 11757.6,2546.22 11755.6,2540.77 11754.2,2535.14 11753.4,2529.41 11753.1,2523.62 11753.1,1834.65 11753.4,1828.86 11754.2,1823.12 11755.6,1817.5 11757.6,1812.05 11760.1,1806.81 11763,1801.84 11766.5,1797.18 11770.4,1792.89 11774.7,1789 11779.3,1785.54 11784.3,1782.56 11789.5,1780.09 11795,1778.13 11800.6,1776.73 11806.4,1775.88 11812.1,1775.59 11930.3,1775.59 Z"
         id="path78" />
      <path
         style="fill:#000000; fill-opacity:1.0;  stroke:#000000; stroke-width:0; stroke-opacity:1;  stroke-linecap:round; stroke-linejoin:round;fill-rule:evenodd;"
         d="M 12436,1775.88 12441.8,1776.73 12447.4,1778.13 12452.9,1780.09 12458.1,1782.56 12463.1,1785.54 12467.7,1789 12472,1792.89 12475.9,1797.18 12479.4,1801.84 12482.3,1806.81 12484.8,1812.05 12486.8,1817.5 12488.2,1823.12 12489,1828.86 12489.3,1834.65 12489.3,2523.62 12489,2529.41 12488.2,2535.14 12486.8,2540.77 12484.8,2546.22 12482.3,2551.46 12479.4,2556.43 12475.9,2561.09 12472,2565.38 12467.7,2569.27 12463.1,2572.72 12458.1,2575.7 12452.9,2578.18 12447.4,2580.13 12441.8,2581.54 12436,2582.39 12430.3,2582.68 12312.1,2582.68 12306.4,2582.39 12300.6,2581.54 12295,2580.13 12289.5,2578.18 12284.3,2575.7 12279.3,2572.72 12274.7,2569.27 12270.4,2565.38 12266.5,2561.09 12263,2556.43 12260.1,2551.46 12257.6,2546.22 12255.6,2540.77 12254.2,2535.14 12253.4,2529.41 12253.1,2523.62 12253.1,1834.65 12253.4,1828.86 12254.2,1823.12 12255.6,1817.5 12257.6,1812.05 12260.1,1806.81 12263,1801.84 12266.5,1797.18 12270.4,1792.89 12274.7,1789 12279.3,1785.54 12284.3,1782.56 12289.5,1780.09 12295,1778.13 12300.6,1776.73 12306.4,1775.88 12312.1,1775.59 12430.3,1775.59 Z"
         id="path80" />
      <path
         style="fill:#000000; fill-opacity:1.0;  stroke:#000000; stroke-width:0; stroke-opacity:1;  stroke-linecap:round; stroke-linejoin:round;fill-rule:evenodd;"
         d="M 12936,1775.88 12941.8,1776.73 12947.4,1778.13 12952.9,1780.09 12958.1,1782.56 12963.1,1785.54 12967.7,1789 12972,1792.89 12975.9,1797.18 12979.4,1801.84 12982.3,1806.81 12984.8,1812.05 12986.8,1817.5 12988.2,1823.12 12989,1828.86 12989.3,1834.65 12989.3,2523.62 12989,2529.41 12988.2,2535.14 12986.8,2540.77 12984.8,2546.22 12982.3,2551.46 12979.4,2556.43 12975.9,2561.09 12972,2565.38 12967.7,2569.27 12963.1,2572.72 12958.1,2575.7 12952.9,2578.18 12947.4,2580.13 12941.8,2581.54 12936,2582.39 12930.3,2582.68 12812.1,2582.68 12806.4,2582.39 12800.6,2581.54 12795,2580.13 12789.5,2578.18 12784.3,2575.7 12779.3,2572.72 12774.7,2569.27 12770.4,2565.38 12766.5,2561.09 12763,2556.43 12760.1,2551.46 12757.6,2546.22 12755.6,2540.77 12754.2,2535.14 12753.4,2529.41 12753.1,2523.62 12753.1,1834.65 12753.4,1828.86 12754.2,1823.12 12755.6,1817.5 12757.6,1812.05 12760.1,1806.81 12763,1801.84 12766.5,1797.18 12770.4,1792.89 12774.7,1789 12779.3,1785.54 12784.3,1782.56 12789.5,1780.09 12795,1778.13 12800.6,1776.73 12806.4,1775.88 12812.1,1775.59 12930.3,1775.59 Z"
         id="path82" />
      <path
         style="fill:#000000; fill-opacity:1.0;  stroke:#000000; stroke-width:0; stroke-opacity:1;  stroke-linecap:round; stroke-linejoin:round;fill-rule:evenodd;"
         d="M 13436,1775.88 13441.8,1776.73 13447.4,1778.13 13452.9,1780.09 13458.1,1782.56 13463.1,1785.54 13467.7,1789 13472,1792.89 13475.9,1797.18 13479.4,1801.84 13482.3,1806.81 13484.8,1812.05 13486.8,1817.5 13488.2,1823.12 13489,1828.86 13489.3,1834.65 13489.3,2523.62 13489,2529.41 13488.2,2535.14 13486.8,2540.77 13484.8,2546.22 13482.3,2551.46 13479.4,2556.43 13475.9,2561.09 13472,2565.38 13467.7,2569.27 13463.1,2572.72 13458.1,2575.7 13452.9,2578.18 13447.4,2580.13 13441.8,2581.54 13436,2582.39 13430.3,2582.68 13312.1,2582.68 13306.4,2582.39 13300.6,2581.54 13295,2580.13 13289.5,2578.18 13284.3,2575.7 13279.3,2572.72 13274.7,2569.27 13270.4,2565.38 13266.5,2561.09 13263,2556.43 13260.1,2551.46 13257.6,2546.22 13255.6,2540.77 13254.2,2535.14 13253.4,2529.41 13253.1,2523.62 13253.1,1834.65 13253.4,1828.86 13254.2,1823.12 13255.6,1817.5 13257.6,1812.05 13260.1,1806.81 13263,1801.84 13266.5,1797.18 13270.4,1792.89 13274.7,1789 13279.3,1785.54 13284.3,1782.56 13289.5,1780.09 13295,1778.13 13300.6,1776.73 13306.4,1775.88 13312.1,1775.59 13430.3,1775.59 Z"
         id="path84" />
      <path
         style="fill:#000000; fill-opacity:1.0;  stroke:#000000; stroke-width:0; stroke-opacity:1;  stroke-linecap:round; stroke-linejoin:round;fill-rule:evenodd;"
         d="M 13436,5437.29 13441.8,5438.14 13447.4,5439.55 13452.9,5441.5 13458.1,5443.98 13463.1,5446.96 13467.7,5450.41 13472,5454.31 13475.9,5458.6 13479.4,5463.25 13482.3,5468.22 13484.8,5473.46 13486.8,5478.92 13488.2,5484.54 13489,5490.27 13489.3,5496.06 13489.3,6185.04 13489,6190.83 13488.2,6196.56 13486.8,6202.18 13484.8,6207.64 13482.3,6212.88 13479.4,6217.85 13475.9,6222.5 13472,6226.8 13467.7,6230.69 13463.1,6234.14 13458.1,6237.12 13452.9,6239.6 13447.4,6241.55 13441.8,6242.96 13436,6243.81 13430.3,6244.09 13312.1,6244.09 13306.4,6243.81 13300.6,6242.96 13295,6241.55 13289.5,6239.6 13284.3,6237.12 13279.3,6234.14 13274.7,6230.69 13270.4,6226.8 13266.5,6222.5 13263,6217.85 13260.1,6212.88 13257.6,6207.64 13255.6,6202.18 13254.2,6196.56 13253.4,6190.83 13253.1,6185.04 13253.1,5496.06 13253.4,5490.27 13254.2,5484.54 13255.6,5478.92 13257.6,5473.46 13260.1,5468.22 13263,5463.25 13266.5,5458.6 13270.4,5454.31 13274.7,5450.41 13279.3,5446.96 13284.3,5443.98 13289.5,5441.5 13295,5439.55 13300.6,5438.14 13306.4,5437.29 13312.1,5437.01 13430.3,5437.01 Z"
         id="path86" />
      <path
         style="fill:#000000; fill-opacity:1.0;  stroke:#000000; stroke-width:0; stroke-opacity:1;  stroke-linecap:round; stroke-linejoin:round;fill-rule:evenodd;"
         d="M 12936,5437.29 12941.8,5438.14 12947.4,5439.55 12952.9,5441.5 12958.1,5443.98 12963.1,5446.96 12967.7,5450.41 12972,5454.31 12975.9,5458.6 12979.4,5463.25 12982.3,5468.22 12984.8,5473.46 12986.8,5478.92 12988.2,5484.54 12989,5490.27 12989.3,5496.06 12989.3,6185.04 12989,6190.83 12988.2,6196.56 12986.8,6202.18 12984.8,6207.64 12982.3,6212.88 12979.4,6217.85 12975.9,6222.5 12972,6226.8 12967.7,6230.69 12963.1,6234.14 12958.1,6237.12 12952.9,6239.6 12947.4,6241.55 12941.8,6242.96 12936,6243.81 12930.3,6244.09 12812.1,6244.09 12806.4,6243.81 12800.6,6242.96 12795,6241.55 12789.5,6239.6 12784.3,6237.12 12779.3,6234.14 12774.7,6230.69 12770.4,6226.8 12766.5,6222.5 12763,6217.85 12760.1,6212.88 12757.6,6207.64 12755.6,6202.18 12754.2,6196.56 12753.4,6190.83 12753.1,6185.04 12753.1,5496.06 12753.4,5490.27 12754.2,5484.54 12755.6,5478.92 12757.6,5473.46 12760.1,5468.22 12763,5463.25 12766.5,5458.6 12770.4,5454.31 12774.7,5450.41 12779.3,5446.96 12784.3,5443.98 12789.5,5441.5 12795,5439.55 12800.6,5438.14 12806.4,5437.29 12812.1,5437.01 12930.3,5437.01 Z"
         id="path88" />
      <path
         style="fill:#000000; fill-opacity:1.0;  stroke:#000000; stroke-width:0; stroke-opacity:1;  stroke-linecap:round; stroke-linejoin:round;fill-rule:evenodd;"
         d="M 12436,5437.29 12441.8,5438.14 12447.4,5439.55 12452.9,5441.5 12458.1,5443.98 12463.1,5446.96 12467.7,5450.41 12472,5454.31 12475.9,5458.6 12479.4,5463.25 12482.3,5468.22 12484.8,5473.46 12486.8,5478.92 12488.2,5484.54 12489,5490.27 12489.3,5496.06 12489.3,6185.04 12489,6190.83 12488.2,6196.56 12486.8,6202.18 12484.8,6207.64 12482.3,6212.88 12479.4,6217.85 12475.9,6222.5 12472,6226.8 12467.7,6230.69 12463.1,6234.14 12458.1,6237.12 12452.9,6239.6 12447.4,6241.55 12441.8,6242.96 12436,6243.81 12430.3,6244.09 12312.1,6244.09 12306.4,6243.81 12300.6,6242.96 12295,6241.55 12289.5,6239.6 12284.3,6237.12 12279.3,6234.14 12274.7,6230.69 12270.4,6226.8 12266.5,6222.5 12263,6217.85 12260.1,6212.88 12257.6,6207.64 12255.6,6202.18 12254.2,6196.56 12253.4,6190.83 12253.1,6185.04 12253.1,5496.06 12253.4,5490.27 12254.2,5484.54 12255.6,5478.92 12257.6,5473.46 12260.1,5468.22 12263,5463.25 12266.5,5458.6 12270.4,5454.31 12274.7,5450.41 12279.3,5446.96 12284.3,5443.98 12289.5,5441.5 12295,5439.55 12300.6,5438.14 12306.4,5437.29 12312.1,5437.01 12430.3,5437.01 Z"
         id="path90" />
      <path
         style="fill:#000000; fill-opacity:1.0;  stroke:#000000; stroke-width:0; stroke-opacity:1;  stroke-linecap:round; stroke-linejoin:round;fill-rule:evenodd;"
         d="M 11936,5437.29 11941.8,5438.14 11947.4,5439.55 11952.9,5441.5 11958.1,5443.98 11963.1,5446.96 11967.7,5450.41 11972,5454.31 11975.9,5458.6 11979.4,5463.25 11982.3,5468.22 11984.8,5473.46 11986.8,5478.92 11988.2,5484.54 11989,5490.27 11989.3,5496.06 11989.3,6185.04 11989,6190.83 11988.2,6196.56 11986.8,6202.18 11984.8,6207.64 11982.3,6212.88 11979.4,6217.85 11975.9,6222.5 11972,6226.8 11967.7,6230.69 11963.1,6234.14 11958.1,6237.12 11952.9,6239.6 11947.4,6241.55 11941.8,6242.96 11936,6243.81 11930.3,6244.09 11812.1,6244.09 11806.4,6243.81 11800.6,6242.96 11795,6241.55 11789.5,6239.6 11784.3,6237.12 11779.3,6234.14 11774.7,6230.69 11770.4,6226.8 11766.5,6222.5 11763,6217.85 11760.1,6212.88 11757.6,6207.64 11755.6,6202.18 11754.2,6196.56 11753.4,6190.83 11753.1,6185.04 11753.1,5496.06 11753.4,5490.27 11754.2,5484.54 11755.6,5478.92 11757.6,5473.46 11760.1,5468.22 11763,5463.25 11766.5,5458.6 11770.4,5454.31 11774.7,5450.41 11779.3,5446.96 11784.3,5443.98 11789.5,5441.5 11795,5439.55 11800.6,5438.14 11806.4,5437.29 11812.1,5437.01 11930.3,5437.01 Z"
         id="path92" />
      <path
         style="fill:#000000; fill-opacity:1.0;  stroke:#000000; stroke-width:0; stroke-opacity:1;  stroke-linecap:round; stroke-linejoin:round;fill-rule:evenodd;"
         d="M 11436,5437.29 11441.8,5438.14 11447.4,5439.55 11452.9,5441.5 11458.1,5443.98 11463.1,5446.96 11467.7,5450.41 11472,5454.31 11475.9,5458.6 11479.4,5463.25 11482.3,5468.22 11484.8,5473.46 11486.8,5478.92 11488.2,5484.54 11489,5490.27 11489.3,5496.06 11489.3,6185.04 11489,6190.83 11488.2,6196.56 11486.8,6202.18 11484.8,6207.64 11482.3,6212.88 11479.4,6217.85 11475.9,6222.5 11472,6226.8 11467.7,6230.69 11463.1,6234.14 11458.1,6237.12 11452.9,6239.6 11447.4,6241.55 11441.8,6242.96 11436,6243.81 11430.3,6244.09 11312.1,6244.09 11306.4,6243.81 11300.6,6242.96 11295,6241.55 11289.5,6239.6 11284.3,6237.12 11279.3,6234.14 11274.7,6230.69 11270.4,6226.8 11266.5,6222.5 11263,6217.85 11260.1,6212.88 11257.6,6207.64 11255.6,6202.18 11254.2,6196.56 11253.4,6190.83 11253.1,6185.04 11253.1,5496.06 11253.4,5490.27 11254.2,5484.54 11255.6,5478.92 11257.6,5473.46 11260.1,5468.22 11263,5463.25 11266.5,5458.6 11270.4,5454.31 11274.7,5450.41 11279.3,5446.96 11284.3,5443.98 11289.5,5441.5 11295,5439.55 11300.6,5438.14 11306.4,5437.29 11312.1,5437.01 11430.3,5437.01 Z"
         id="path94" />
      <path
         style="fill:#000000; fill-opacity:1.0;  stroke:#000000; stroke-width:0; stroke-opacity:1;  stroke-linecap:round; stroke-linejoin:round;fill-rule:evenodd;"
         d="M 10936,5437.29 10941.8,5438.14 10947.4,5439.55 10952.9,5441.5 10958.1,5443.98 10963.1,5446.96 10967.7,5450.41 10972,5454.31 10975.9,5458.6 10979.4,5463.25 10982.3,5468.22 10984.8,5473.46 10986.8,5478.92 10988.2,5484.54 10989,5490.27 10989.3,5496.06 10989.3,6185.04 10989,6190.83 10988.2,6196.56 10986.8,6202.18 10984.8,6207.64 10982.3,6212.88 10979.4,6217.85 10975.9,6222.5 10972,6226.8 10967.7,6230.69 10963.1,6234.14 10958.1,6237.12 10952.9,6239.6 10947.4,6241.55 10941.8,6242.96 10936,6243.81 10930.3,6244.09 10812.1,6244.09 10806.4,6243.81 10800.6,6242.96 10795,6241.55 10789.5,6239.6 10784.3,6237.12 10779.3,6234.14 10774.7,6230.69 10770.4,6226.8 10766.5,6222.5 10763,6217.85 10760.1,6212.88 10757.6,6207.64 10755.6,6202.18 10754.2,6196.56 10753.4,6190.83 10753.1,6185.04 10753.1,5496.06 10753.4,5490.27 10754.2,5484.54 10755.6,5478.92 10757.6,5473.46 10760.1,5468.22 10763,5463.25 10766.5,5458.6 10770.4,5454.31 10774.7,5450.41 10779.3,5446.96 10784.3,5443.98 10789.5,5441.5 10795,5439.55 10800.6,5438.14 10806.4,5437.29 10812.1,5437.01 10930.3,5437.01 Z"
         id="path96" />
      <path
         style="fill:#000000; fill-opacity:1.0;  stroke:#000000; stroke-width:0; stroke-opacity:1;  stroke-linecap:round; stroke-linejoin:round;fill-rule:evenodd;"
         d="M 10436,5437.29 10441.8,5438.14 10447.4,5439.55 10452.9,5441.5 10458.1,5443.98 10463.1,5446.96 10467.7,5450.41 10472,5454.31 10475.9,5458.6 10479.4,5463.25 10482.3,5468.22 10484.8,5473.46 10486.8,5478.92 10488.2,5484.54 10489,5490.27 10489.3,5496.06 10489.3,6185.04 10489,6190.83 10488.2,6196.56 10486.8,6202.18 10484.8,6207.64 10482.3,6212.88 10479.4,6217.85 10475.9,6222.5 10472,6226.8 10467.7,6230.69 10463.1,6234.14 10458.1,6237.12 10452.9,6239.6 10447.4,6241.55 10441.8,6242.96 10436,6243.81 10430.3,6244.09 10312.1,6244.09 10306.4,6243.81 10300.6,6242.96 10295,6241.55 10289.5,6239.6 10284.3,6237.12 10279.3,6234.14 10274.7,6230.69 10270.4,6226.8 10266.5,6222.5 10263,6217.85 10260.1,6212.88 10257.6,6207.64 10255.6,6202.18 10254.2,6196.56 10253.4,6190.83 10253.1,6185.04 10253.1,5496.06 10253.4,5490.27 10254.2,5484.54 10255.6,5478.92 10257.6,5473.46 10260.1,5468.22 10263,5463.25 10266.5,5458.6 10270.4,5454.31 10274.7,5450.41 10279.3,5446.96 10284.3,5443.98 10289.5,5441.5 10295,5439.55 10300.6,5438.14 10306.4,5437.29 10312.1,5437.01 10430.3,5437.01 Z"
         id="path98" />
      <path
         style="fill:#000000; fill-opacity:1.0;  stroke:#000000; stroke-width:0; stroke-opacity:1;  stroke-linecap:round; stroke-linejoin:round;fill-rule:evenodd;"
         d="M 9936.05,5437.29 9941.78,5438.14 9947.4,5439.55 9952.86,5441.5 9958.1,5443.98 9963.07,5446.96 9967.72,5450.41 9972.02,5454.31 9975.91,5458.6 9979.36,5463.25 9982.34,5468.22 9984.82,5473.46 9986.77,5478.92 9988.18,5484.54 9989.03,5490.27 9989.31,5496.06 9989.31,6185.04 9989.03,6190.83 9988.18,6196.56 9986.77,6202.18 9984.82,6207.64 9982.34,6212.88 9979.36,6217.85 9975.91,6222.5 9972.02,6226.8 9967.72,6230.69 9963.07,6234.14 9958.1,6237.12 9952.86,6239.6 9947.4,6241.55 9941.78,6242.96 9936.05,6243.81 9930.26,6244.09 9812.15,6244.09 9806.36,6243.81 9800.63,6242.96 9795.01,6241.55 9789.55,6239.6 9784.31,6237.12 9779.34,6234.14 9774.68,6230.69 9770.39,6226.8 9766.5,6222.5 9763.05,6217.85 9760.07,6212.88 9757.59,6207.64 9755.64,6202.18 9754.23,6196.56 9753.38,6190.83 9753.09,6185.04 9753.09,5496.06 9753.38,5490.27 9754.23,5484.54 9755.64,5478.92 9757.59,5473.46 9760.07,5468.22 9763.05,5463.25 9766.5,5458.6 9770.39,5454.31 9774.68,5450.41 9779.34,5446.96 9784.31,5443.98 9789.55,5441.5 9795.01,5439.55 9800.63,5438.14 9806.36,5437.29 9812.15,5437.01 9930.26,5437.01 Z"
         id="path100" />
      <path
         style="fill:#000000; fill-opacity:1.0;  stroke:#000000; stroke-width:0; stroke-opacity:1;  stroke-linecap:round; stroke-linejoin:round;fill-rule:evenodd;"
         d="M 9436.05,5437.29 9441.78,5438.14 9447.4,5439.55 9452.86,5441.5 9458.1,5443.98 9463.07,5446.96 9467.72,5450.41 9472.02,5454.31 9475.91,5458.6 9479.36,5463.25 9482.34,5468.22 9484.82,5473.46 9486.77,5478.92 9488.18,5484.54 9489.03,5490.27 9489.31,5496.06 9489.31,6185.04 9489.03,6190.83 9488.18,6196.56 9486.77,6202.18 9484.82,6207.64 9482.34,6212.88 9479.36,6217.85 9475.91,6222.5 9472.02,6226.8 9467.72,6230.69 9463.07,6234.14 9458.1,6237.12 9452.86,6239.6 9447.4,6241.55 9441.78,6242.96 9436.05,6243.81 9430.26,6244.09 9312.15,6244.09 9306.36,6243.81 9300.63,6242.96 9295.01,6241.55 9289.55,6239.6 9284.31,6237.12 9279.34,6234.14 9274.68,6230.69 9270.39,6226.8 9266.5,6222.5 9263.05,6217.85 9260.07,6212.88 9257.59,6207.64 9255.64,6202.18 9254.23,6196.56 9253.38,6190.83 9253.09,6185.04 9253.09,5496.06 9253.38,5490.27 9254.23,5484.54 9255.64,5478.92 9257.59,5473.46 9260.07,5468.22 9263.05,5463.25 9266.5,5458.6 9270.39,5454.31 9274.68,5450.41 9279.34,5446.96 9284.31,5443.98 9289.55,5441.5 9295.01,5439.55 9300.63,5438.14 9306.36,5437.29 9312.15,5437.01 9430.26,5437.01 Z"
         id="path102" />
      <path
         style="fill:#000000; fill-opacity:1.0;  stroke:#000000; stroke-width:0; stroke-opacity:1;  stroke-linecap:round; stroke-linejoin:round;fill-rule:evenodd;"
         d="M 8936.05,5437.29 8941.78,5438.14 8947.4,5439.55 8952.86,5441.5 8958.1,5443.98 8963.07,5446.96 8967.72,5450.41 8972.02,5454.31 8975.91,5458.6 8979.36,5463.25 8982.34,5468.22 8984.82,5473.46 8986.77,5478.92 8988.18,5484.54 8989.03,5490.27 8989.31,5496.06 8989.31,6185.04 8989.03,6190.83 8988.18,6196.56 8986.77,6202.18 8984.82,6207.64 8982.34,6212.88 8979.36,6217.85 8975.91,6222.5 8972.02,6226.8 8967.72,6230.69 8963.07,6234.14 8958.1,6237.12 8952.86,6239.6 8947.4,6241.55 8941.78,6242.96 8936.05,6243.81 8930.26,6244.09 8812.15,6244.09 8806.36,6243.81 8800.63,6242.96 8795.01,6241.55 8789.55,6239.6 8784.31,6237.12 8779.34,6234.14 8774.68,6230.69 8770.39,6226.8 8766.5,6222.5 8763.05,6217.85 8760.07,6212.88 8757.59,6207.64 8755.64,6202.18 8754.23,6196.56 8753.38,6190.83 8753.09,6185.04 8753.09,5496.06 8753.38,5490.27 8754.23,5484.54 8755.64,5478.92 8757.59,5473.46 8760.07,5468.22 8763.05,5463.25 8766.5,5458.6 8770.39,5454.31 8774.68,5450.41 8779.34,5446.96 8784.31,5443.98 8789.55,5441.5 8795.01,5439.55 8800.63,5438.14 8806.36,5437.29 8812.15,5437.01 8930.26,5437.01 Z"
         id="path104" />
    </g>
    <g
       id="g108" />
    <g
       style="fill:#000000; fill-opacity:1.0;  stroke:#000000; stroke-width:0; stroke-opacity:1;  stroke-linecap:round; stroke-linejoin:round;"
       id="g114">
      <path
         style="fill:#000000; fill-opacity:1.0;  stroke:#000000; stroke-width:0; stroke-opacity:1;  stroke-linecap:round; stroke-linejoin:round;fill-rule:evenodd;"
         d="M 7225.2,3523.34 6517.2,3523.34 6517.2,2894.34 7225.2,2894.34 Z"
         id="path110" />
      <path
         style="fill:#000000; fill-opacity:1.0;  stroke:#000000; stroke-width:0; stroke-opacity:1;  stroke-linecap:round; stroke-linejoin:round;fill-rule:evenodd;"
         d="M 7225.2,4625.34 6517.2,4625.34 6517.2,3996.34 7225.2,3996.34 Z"
         id="path112" />
    </g>
    <g
       id="g116" />
    <g
       id="g118" />
    <g
       style="fill:#000000; fill-opacity:1.0;  stroke:#000000; stroke-width:0; stroke-opacity:1;  stroke-linecap:round; stroke-linejoin:round;"
       id="g120" />
    <g
       style="fill:#000000; fill-opacity:1.0;  stroke:#000000; stroke-width:196.85; stroke-opacity:1;  stroke-linecap:round; stroke-linejoin:round;"
       id="g122" />
    <g
       style="fill:#000000; fill-opacity:0.0;  stroke:#000000; stroke-width:196.85; stroke-opacity:1;  stroke-linecap:round; stroke-linejoin:round;"
       id="g200">
      <path
         d="M9348 2156 L9371 2179 "
         id="path124" />
      <path
         d="M8871 2179 L8871 3259 "
         id="path126" />
      <path
         d="M6922 3259 L6871 3208 "
         id="path128" />
      <path
         d="M8871 3259 L6922 3259 "
         id="path130" />
      <path
         d="M6871 3208 L5672 3208 "
         id="path132" />
      <path
         d="M5672 3208 L5621 3259 "
         id="path134" />
      <path
         d="M5371 4009 L4371 4009 "
         id="path136" />
      <path
         d="M5621 3759 L5371 4009 "
         id="path138" />
      <path
         d="M5621 3259 L5621 3759 "
         id="path140" />
      <path
         d="M8871 3259 L13621 3259 "
         id="path142" />
      <path
         d="M15371 1509 L15871 1509 "
         id="path144" />
      <path
         d="M13621 3259 L15371 1509 "
         id="path146" />
      <path
         d="M6692 4131 L6871 4310 "
         id="path148" />
      <path
         d="M6922 4259 L6871 4310 "
         id="path150" />
      <path
         d="M8621 4259 L6922 4259 "
         id="path152" />
      <path
         d="M6871 4310 L6820 4310 "
         id="path154" />
      <path
         d="M6121 5009 L4371 5009 "
         id="path156" />
      <path
         d="M6820 4310 L6121 5009 "
         id="path158" />
      <path
         d="M8871 4509 L8621 4259 "
         id="path160" />
      <path
         d="M8871 5840 L8871 4509 "
         id="path162" />
      <path
         d="M8871 4509 L9371 4009 "
         id="path164" />
      <path
         d="M9371 4009 L14121 4009 "
         id="path166" />
      <path
         d="M14621 3509 L15871 3509 "
         id="path168" />
      <path
         d="M14121 4009 L14621 3509 "
         id="path170" />
      <path
         d="M10871 1532 L10871 2179 "
         id="path172" />
      <path
         d="M10598 1259 L10871 1532 "
         id="path174" />
      <path
         d="M6121 1259 L10598 1259 "
         id="path176" />
      <path
         d="M4371 3009 L6121 1259 "
         id="path178" />
      <path
         d="M14871 5509 L15871 5509 "
         id="path180" />
      <path
         d="M12871 5840 L12871 6759 "
         id="path182" />
      <path
         d="M12871 6759 L13121 7009 "
         id="path184" />
      <path
         d="M13121 7009 L14121 7009 "
         id="path186" />
      <path
         d="M14121 7009 L14621 6509 "
         id="path188" />
      <path
         d="M14621 5759 L14871 5509 "
         id="path190" />
      <path
         d="M14621 6509 L14621 5759 "
         id="path192" />
      <path
         d="M12371 5840 L12371 5009 "
         id="path194" />
      <path
         d="M12371 5009 L12871 4509 "
         id="path196" />
      <path
         d="M12871 4509 L15871 4509 "
         id="path198" />
    </g>
    <g
       id="g202" />
  </g>
  <g
     style="fill:#FFFFFF; fill-opacity:0.0;  stroke:#FFFFFF; stroke-width:196.85; stroke-opacity:1;  stroke-linecap:round; stroke-linejoin:round;"
     id="g206" />
  <g
     style="fill:#FFFFFF; fill-opacity:1.0;  stroke:#FFFFFF; stroke-width:0; stroke-opacity:1;  stroke-linecap:round; stroke-linejoin:round;"
     id="g210">
    <circle
       cx="15871.2"
       cy="6509.84"
       r="196.85"
       id="circle208" />
  </g>
  <g
     style="fill:#FFFFFF; fill-opacity:1.0;  stroke:#FFFFFF; stroke-width:39.3701; stroke-opacity:1;  stroke-linecap:round; stroke-linejoin:round;"
     id="g212" />
  <g
     style="fill:#FFFFFF; fill-opacity:1.0;  stroke:#FFFFFF; stroke-width:0; stroke-opacity:1;  stroke-linecap:round; stroke-linejoin:round;"
     id="g216">
    <circle
       cx="15871.2"
       cy="5509.84"
       r="196.85"
       id="circle214" />
  </g>
  <g
     style="fill:#FFFFFF; fill-opacity:1.0;  stroke:#FFFFFF; stroke-width:39.3701; stroke-opacity:1;  stroke-linecap:round; stroke-linejoin:round;"
     id="g218" />
  <g
     style="fill:#FFFFFF; fill-opacity:1.0;  stroke:#FFFFFF; stroke-width:0; stroke-opacity:1;  stroke-linecap:round; stroke-linejoin:round;"
     id="g222">
    <circle
       cx="15871.2"
       cy="4509.84"
       r="196.85"
       id="circle220" />
  </g>
  <g
     style="fill:#FFFFFF; fill-opacity:1.0;  stroke:#FFFFFF; stroke-width:39.3701; stroke-opacity:1;  stroke-linecap:round; stroke-linejoin:round;"
     id="g224" />
  <g
     style="fill:#FFFFFF; fill-opacity:1.0;  stroke:#FFFFFF; stroke-width:0; stroke-opacity:1;  stroke-linecap:round; stroke-linejoin:round;"
     id="g228">
    <circle
       cx="15871.2"
       cy="3509.84"
       r="196.85"
       id="circle226" />
  </g>
  <g
     style="fill:#FFFFFF; fill-opacity:1.0;  stroke:#FFFFFF; stroke-width:39.3701; stroke-opacity:1;  stroke-linecap:round; stroke-linejoin:round;"
     id="g230" />
  <g
     style="fill:#FFFFFF; fill-opacity:1.0;  stroke:#FFFFFF; stroke-width:0; stroke-opacity:1;  stroke-linecap:round; stroke-linejoin:round;"
     id="g234">
    <circle
       cx="15871.2"
       cy="2509.84"
       r="196.85"
       id="circle232" />
  </g>
  <g
     style="fill:#FFFFFF; fill-opacity:1.0;  stroke:#FFFFFF; stroke-width:39.3701; stroke-opacity:1;  stroke-linecap:round; stroke-linejoin:round;"
     id="g236" />
  <g
     style="fill:#FFFFFF; fill-opacity:1.0;  stroke:#FFFFFF; stroke-width:0; stroke-opacity:1;  stroke-linecap:round; stroke-linejoin:round;"
     id="g240">
    <circle
       cx="15871.2"
       cy="1509.84"
       r="196.85"
       id="circle238" />
  </g>
  <g
     style="fill:#FFFFFF; fill-opacity:1.0;  stroke:#FFFFFF; stroke-width:39.3701; stroke-opacity:1;  stroke-linecap:round; stroke-linejoin:round;"
     id="g242" />
  <g
     style="fill:#FFFFFF; fill-opacity:1.0;  stroke:#FFFFFF; stroke-width:0; stroke-opacity:1;  stroke-linecap:round; stroke-linejoin:round;"
     id="g246">
    <circle
       cx="4371.2"
       cy="3009.84"
       r="196.85"
       id="circle244" />
  </g>
  <g
     style="fill:#FFFFFF; fill-opacity:1.0;  stroke:#FFFFFF; stroke-width:39.3701; stroke-opacity:1;  stroke-linecap:round; stroke-linejoin:round;"
     id="g248" />
  <g
     style="fill:#FFFFFF; fill-opacity:1.0;  stroke:#FFFFFF; stroke-width:0; stroke-opacity:1;  stroke-linecap:round; stroke-linejoin:round;"
     id="g252">
    <circle
       cx="4371.2"
       cy="4009.84"
       r="196.85"
       id="circle250" />
  </g>
  <g
     style="fill:#FFFFFF; fill-opacity:1.0;  stroke:#FFFFFF; stroke-width:39.3701; stroke-opacity:1;  stroke-linecap:round; stroke-linejoin:round;"
     id="g254" />
  <g
     style="fill:#FFFFFF; fill-opacity:1.0;  stroke:#FFFFFF; stroke-width:0; stroke-opacity:1;  stroke-linecap:round; stroke-linejoin:round;"
     id="g258">
    <circle
       cx="4371.2"
       cy="5009.84"
       r="196.85"
       id="circle256" />
  </g>
  <g
     style="fill:#FFFFFF; fill-opacity:1.0;  stroke:#FFFFFF; stroke-width:39.3701; stroke-opacity:1;  stroke-linecap:round; stroke-linejoin:round;"
     id="g260" />
</svg>
